<svg xmlns="http://www.w3.org/2000/svg" viewBox="0 0 220 40" width="100%" height="100%">
    <path fill="#ffffff" d="M15 8h22c5 0 8 2 8 6 0 3-2 5-5 6 4 1 6 3 6 7 0 5-4 7-9 7H15V8zm8 6v4h12c2 0 3-1 3-2s-1-2-3-2H23zm0 9v5h14c2 0 3-1 3-2.5s-1-2.5-3-2.5H23zm42-7c0-6 5-10 11-10s11 4 11 10-5 10-11 10-11-4-11-10zm8 0c0 3 1.5 5 3 5s3-2 3-5-1.5-5-3-5-3 2-3 5zm33-7h22v5h-14v4h12v5h-12v4h14v5h-22V8zm35 0h8v24h-8V8zm15 0h7l12 14V8h8v24h-6L143 17v15h-8V8zm40 12v4h8v3c0 5-4 8-10 8-7 0-11-4-11-10s4-10 11-10c5 0 8 2 9 5l-7 2c-1-1-1.5-2-2.5-2-2.5 0-3.5 2-3.5 5s1 5 3.5 5c2.5 0 3.5-1 3.5-3h-2v-2h4z"/>
</svg>
