<?xml version="1.0" encoding="UTF-8"?>
<svg version="1.1" xmlns="http://www.w3.org/2000/svg" width="1080" height="1080">
<path d="M0 0 C356.4 0 712.8 0 1080 0 C1080 356.4 1080 712.8 1080 1080 C723.6 1080 367.2 1080 0 1080 C0 723.6 0 367.2 0 0 Z M209.4765625 475.859375 C203.26067261 484.87077092 203.98545536 498.06334592 205.50390625 508.4453125 C206.98574528 515.20249848 209.02009747 521.02420132 214.703125 525.2734375 C220.1437025 528.60874805 225.00631774 529.12626005 231.2590332 529.11352539 C232.49994217 529.11344986 233.74085114 529.11337433 235.0193634 529.11329651 C236.36316977 529.10819072 237.70697571 529.10297474 239.05078125 529.09765625 C240.43368987 529.09578965 241.81659915 529.09436689 243.19950867 529.09336853 C246.82774706 529.08956237 250.455945 529.07974843 254.08416748 529.06866455 C257.79113203 529.05840945 261.49810335 529.05380725 265.20507812 529.04882812 C272.47008773 529.03865589 279.73498647 529.01907941 287 529 C287 515.8 287 502.6 287 489 C272.48 489 257.96 489 243 489 C243 494.61 243 500.22 243 506 C251.58 506 260.16 506 269 506 C269 508.31 269 510.62 269 513 C264.12499847 512.90608846 259.25047163 512.79991273 254.37597656 512.68261719 C252.71947444 512.6444549 251.06289305 512.60958025 249.40625 512.578125 C247.01794199 512.532196 244.63017368 512.47424963 242.2421875 512.4140625 C241.50757294 512.40251129 240.77295837 512.39096008 240.01608276 512.37905884 C235.66832459 512.25569468 232.00900725 511.71604929 228 510 C223.59863716 504.71836459 224.52859933 498.50373126 225 492 C225.42470152 489.40031194 225.99534061 487.45583406 227 485 C229.62177779 483.6891111 231.61524634 483.83916293 234.55126953 483.79467773 C235.71232208 483.77473251 236.87337463 483.75478729 238.0696106 483.73423767 C239.32796722 483.71752518 240.58632385 483.70081268 241.8828125 483.68359375 C243.16735321 483.66281265 244.45189392 483.64203156 245.77536011 483.62062073 C249.19149359 483.56540951 252.60768745 483.51599612 256.02392578 483.46777344 C259.50949481 483.41755143 262.99497609 483.36186903 266.48046875 483.30664062 C273.32023805 483.1990707 280.16008878 483.0981277 287 483 C287 477.06 287 471.12 287 465 C279.21932498 464.90922662 271.43894522 464.83601388 263.6578846 464.79275131 C260.04385655 464.77197558 256.43021305 464.74384487 252.81640625 464.69824219 C249.32152463 464.65442186 245.82701024 464.63078782 242.33187485 464.62049103 C240.36558659 464.60962519 238.39944377 464.57845819 236.43338013 464.54681396 C224.80447671 464.54393536 216.98188311 466.69903497 209.4765625 475.859375 Z M302 465 C302 486.12 302 507.24 302 529 C325.43 529 348.86 529 373 529 C373 523.72 373 518.44 373 513 C355.84 513 338.68 513 321 513 C321 510.69 321 508.38 321 506 C338.16 506 355.32 506 373 506 C373 500.72 373 495.44 373 490 C355.84 490 338.68 490 321 490 C321 488.02 321 486.04 321 484 C338.16 484 355.32 484 373 484 C373 477.73 373 471.46 373 465 C349.57 465 326.14 465 302 465 Z M389 465 C389 486.12 389 507.24 389 529 C394.61 529 400.22 529 406 529 C406.33 514.81 406.66 500.62 407 486 C420.62510584 503.0313823 420.62510584 503.0313823 425.25 509.3125 C432.65913736 519.55012772 432.65913736 519.55012772 441 529 C443.52377655 529.27808217 443.52377655 529.27808217 446.4453125 529.1953125 C447.52167969 529.18886719 448.59804688 529.18242188 449.70703125 529.17578125 C450.83496094 529.15902344 451.96289062 529.14226562 453.125 529.125 C454.26066406 529.11597656 455.39632812 529.10695313 456.56640625 529.09765625 C459.37781299 529.07403098 462.18880298 529.04109013 465 529 C465.79926194 523.38333947 466.14794218 517.95408283 466.1328125 512.28515625 C466.13424759 511.06414467 466.13424759 511.06414467 466.13571167 509.81846619 C466.13638846 508.10155154 466.13456931 506.38463426 466.13037109 504.66772461 C466.12507873 502.10068674 466.13030055 499.53382893 466.13671875 496.96679688 C466.14058178 486.26814533 465.72509502 475.67501005 465 465 C459.39 465 453.78 465 448 465 C447.67 479.19 447.34 493.38 447 508 C434.24271845 491.65473301 434.24271845 491.65473301 428.6484375 484.26953125 C427.57916016 482.85837036 427.57916016 482.85837036 426.48828125 481.41870117 C425.10017204 479.58365801 423.71467057 477.74663875 422.33203125 475.9074707 C421.69394531 475.064021 421.05585938 474.22057129 420.3984375 473.3515625 C419.83817871 472.60729004 419.27791992 471.86301758 418.70068359 471.09619141 C416.94783913 468.9357087 414.96725052 466.96725052 413 465 C405.08 465 397.16 465 389 465 Z M483 465 C482.979375 475.374375 482.95875 485.74875 482.9375 496.4375 C482.928396 499.71743896 482.91929199 502.99737793 482.90991211 506.37670898 C482.90699324 508.95817016 482.90444462 511.53963178 482.90234375 514.12109375 C482.89973038 514.79608414 482.897117 515.47107452 482.89442444 516.16651917 C482.88714339 518.14542498 482.8866616 520.12435228 482.88647461 522.10327148 C482.884254 523.22023911 482.88203339 524.33720673 482.87974548 525.48802185 C482.71489224 527.93905414 482.71489224 527.93905414 484 529 C486.10608457 529.09948086 488.21554233 529.12799637 490.32397461 529.12939453 C490.98415085 529.13114685 491.64432709 529.13289917 492.32450867 529.13470459 C494.51714674 529.1391228 496.70970479 529.13618491 498.90234375 529.1328125 C500.42070023 529.13348563 501.93905661 529.13445573 503.45741272 529.13571167 C506.64438907 529.13718866 509.83133744 529.13503434 513.01831055 529.13037109 C517.10864716 529.12467863 521.19891809 529.12794972 525.28925228 529.13394356 C528.42644243 529.13755326 531.56361696 529.13640861 534.70080757 529.13381577 C536.20913259 529.13314738 537.71745902 529.13397185 539.22578239 529.13629532 C541.33277021 529.138828 543.43965103 529.13497233 545.54663086 529.12939453 C546.74718613 529.12859894 547.94774139 529.12780334 549.18467712 529.12698364 C551.95218924 529.19326275 551.95218924 529.19326275 554 528 C554.02685412 525.68756208 554.04632841 523.3750373 554.0625 521.0625 C554.07410156 519.77472656 554.08570313 518.48695313 554.09765625 517.16015625 C554.36532549 514.13701597 554.36532549 514.13701597 553 513 C551.37325222 512.90659566 549.74245949 512.88254829 548.11303711 512.88647461 C546.55153175 512.88658791 546.55153175 512.88658791 544.95848083 512.88670349 C543.26006798 512.89444542 543.26006798 512.89444542 541.52734375 512.90234375 C540.37456436 512.9037587 539.22178497 512.90517365 538.03407288 512.90663147 C534.33518936 512.91224995 530.63636536 512.92480558 526.9375 512.9375 C524.43684983 512.94251262 521.93619871 512.94707594 519.43554688 512.95117188 C513.29034412 512.96222538 507.14517631 512.97898148 501 513 C501 510.69 501 508.38 501 506 C518.49 506 535.98 506 554 506 C554 500.72 554 495.44 554 490 C536.51 489.67 519.02 489.34 501 489 C501 487.35 501 485.7 501 484 C518.49 484 535.98 484 554 484 C554 477.73 554 471.46 554 465 C530.57 465 507.14 465 483 465 Z M569 465 C569 486.12 569 507.24 569 529 C574.94 529 580.88 529 587 529 C587 522.73 587 516.46 587 510 C590.7302876 510.08703004 594.45819419 510.19393179 598.1875 510.3125 C599.77014648 510.34633789 599.77014648 510.34633789 601.38476562 510.38085938 C602.91713867 510.4340332 602.91713867 510.4340332 604.48046875 510.48828125 C605.88655396 510.52755737 605.88655396 510.52755737 607.32104492 510.56762695 C611.9757625 511.31888047 615.04296385 513.59958081 617.82421875 517.3203125 C618.29537109 517.93777344 618.76652344 518.55523438 619.25195312 519.19140625 C619.96254883 520.14853516 619.96254883 520.14853516 620.6875 521.125 C623.78173858 525.69117295 623.78173858 525.69117295 628 529 C629.6674606 529.08426094 631.33825187 529.10725143 633.0078125 529.09765625 C633.99394531 529.09443359 634.98007812 529.09121094 635.99609375 529.08789062 C637.54490234 529.07532227 637.54490234 529.07532227 639.125 529.0625 C640.16527344 529.05798828 641.20554687 529.05347656 642.27734375 529.04882812 C644.85161962 529.03701952 647.42578146 529.02055075 650 529 C647.45530142 524.31822046 644.79022368 520.31979895 641.3125 516.25 C637.10743062 511.32229185 637.10743062 511.32229185 636 508 C636.721875 507.938125 637.44375 507.87625 638.1875 507.8125 C642.02483999 506.70393512 643.49461179 505.09876962 646 502 C650.16517246 493.95690836 650.34421467 484.66569764 647.8125 476 C646.27072243 472.09177315 644.40768092 469.55576069 641 467 C636.29342245 465.38533745 632.20014518 464.75360567 627.23852539 464.77294922 C625.28729515 464.77317581 625.28729515 464.77317581 623.29664612 464.77340698 C621.89698123 464.78361719 620.49731795 464.79404913 619.09765625 464.8046875 C617.65034685 464.80842267 616.20303489 464.81126726 614.75572205 464.81326294 C610.96634813 464.82085976 607.17713015 464.84047375 603.38781738 464.8626709 C598.83058647 464.88683386 594.27330309 464.89592915 589.71602631 464.90757751 C582.81057611 464.92690091 575.90546735 464.96525065 569 465 Z M685 467 C683.29387814 469.23744467 683.29387814 469.23744467 681.94140625 471.8828125 C681.39734131 472.87345703 680.85327637 473.86410156 680.29272461 474.88476562 C679.72175049 475.95404297 679.15077637 477.02332031 678.5625 478.125 C677.32589427 480.38822492 676.08890359 482.65123953 674.8515625 484.9140625 C674.21237032 486.09266782 673.57337428 487.27137954 672.93457031 488.45019531 C669.82886625 494.16680966 666.6265939 499.82964693 663.4375 505.5 C661.78870708 508.44116553 660.14123106 511.38300493 658.49951172 514.328125 C657.50777079 516.09523876 656.50433414 517.85584438 655.48876953 519.609375 C655.02970215 520.40859375 654.57063477 521.2078125 654.09765625 522.03125 C653.48869507 523.07635742 653.48869507 523.07635742 652.86743164 524.14257812 C651.78843014 526.11136744 651.78843014 526.11136744 652 529 C654.89740622 529.13539281 657.78845621 529.23426829 660.6875 529.3125 C661.50412109 529.35439453 662.32074219 529.39628906 663.16210938 529.43945312 C667.42121997 529.52566994 669.38149591 529.45824392 672.89453125 526.85546875 C674.99191622 524.01096335 676.46160834 521.17202363 678 518 C683.72884612 517.75217956 689.45455751 517.57108309 695.1875 517.45068359 C697.13564397 517.40049039 699.08341293 517.33231438 701.03027344 517.24560547 C717.29575738 516.53949406 717.29575738 516.53949406 721.60839844 520.23535156 C723.14094862 522.80670145 724.14577269 525.14126818 725 528 C725.98407311 529.20495909 725.98407311 529.20495909 727.85766602 529.11352539 C728.64842529 529.10828857 729.43918457 529.10305176 730.25390625 529.09765625 C731.10791016 529.09443359 731.96191406 529.09121094 732.84179688 529.08789062 C734.18854492 529.07532227 734.18854492 529.07532227 735.5625 529.0625 C736.91504883 529.05573242 736.91504883 529.05573242 738.29492188 529.04882812 C740.53001314 529.03700225 742.76497437 529.0205222 745 529 C744.42195209 525.42067062 743.48781521 522.67476802 741.734375 519.5078125 C741.26281982 518.64913574 740.79126465 517.79045898 740.30541992 516.90576172 C739.79213135 515.98811035 739.27884277 515.07045898 738.75 514.125 C738.21930908 513.16480957 737.68861816 512.20461914 737.1418457 511.21533203 C735.43683291 508.13847846 733.72028839 505.06833657 732 502 C731.43007324 500.98228516 730.86014648 499.96457031 730.27294922 498.91601562 C726.54123903 492.26249647 722.78114217 485.62553855 719 479 C718.59813477 478.29439941 718.19626953 477.58879883 717.78222656 476.86181641 C714.40308738 470.55336358 714.40308738 470.55336358 710 465 C706.76398473 464.40218352 703.47125561 464.34717522 700.1875 464.1875 C699.28451172 464.12369141 698.38152344 464.05988281 697.45117188 463.99414062 C696.13536133 463.92549805 696.13536133 463.92549805 694.79296875 463.85546875 C693.9939917 463.81059326 693.19501465 463.76571777 692.37182617 463.71948242 C689.2328795 464.09072789 687.52155249 465.10626157 685 467 Z M752 465 C752 486.12 752 507.24 752 529 C773.12 529 794.24 529 816 529 C816 523.72 816 518.44 816 513 C800.82 512.67 785.64 512.34 770 512 C770 496.49 770 480.98 770 465 C764.06 465 758.12 465 752 465 Z M206 551 C206 572.12 206 593.24 206 615 C221.283125 615.12375 221.283125 615.12375 236.875 615.25 C241.67200439 615.30462402 241.67200439 615.30462402 246.56591797 615.36035156 C249.12466767 615.37204329 251.68342485 615.38223396 254.2421875 615.390625 C255.55131104 615.41108887 256.86043457 615.43155273 258.20922852 615.45263672 C266.81738599 615.45589307 274.64842165 614.77900225 281.375 608.9375 C288.37095376 596.29096821 289.78346434 581.9618059 286 568 C283.88656225 561.75479144 280.48739258 557.61935276 275 554 C267.61647541 550.37201224 260.05499364 550.60803906 251.99609375 550.70703125 C250.82566528 550.71005249 249.65523682 550.71307373 248.44934082 550.71618652 C244.11196977 550.73178403 239.77472525 550.77366738 235.4375 550.8125 C225.723125 550.874375 216.00875 550.93625 206 551 Z M284 551 C288.07061976 556.77498495 292.62700234 561.94678889 297.41796875 567.1328125 C299.92272712 569.9141932 302.28370579 572.76795869 304.625 575.6875 C307.37332836 579.1131646 310.18712832 582.23082956 313.375 585.25 C317.41076631 589.22949069 319.83391084 592.7466065 320.1328125 598.6015625 C320.12780016 600.42104316 320.08907949 602.24092197 320.0078125 604.05859375 C319.99808584 607.72068112 320.54577236 611.3661789 321 615 C326.94 615 332.88 615 339 615 C339.03867187 612.95619141 339.03867187 612.95619141 339.078125 610.87109375 C339.13443263 609.05986497 339.19177936 607.24866829 339.25 605.4375 C339.26417969 604.54224609 339.27835937 603.64699219 339.29296875 602.72460938 C339.65979298 592.71030786 343.88747797 587.71833035 350.6875 580.75 C355.70059649 575.50319272 360.43397177 570.18887971 364.95703125 564.51171875 C367.69567642 561.14470375 370.61537773 557.95847196 373.56640625 554.77734375 C375.20927311 553.12112189 375.20927311 553.12112189 375 551 C361.16417803 549.09567264 361.16417803 549.09567264 348.52734375 553.09765625 C346.01377761 555.92989956 344.006623 558.79183057 342 562 C340.5397856 563.8278031 339.0615042 565.64137175 337.5625 567.4375 C335.33368443 570.2619072 333.14924433 573.11462305 331 576 C327.23637591 574.74545864 326.26260282 573.15439966 323.8125 570.0625 C323.02101563 569.07378906 322.22953125 568.08507812 321.4140625 567.06640625 C319.8640397 565.09752615 318.31690961 563.12636334 316.7734375 561.15234375 C316.08507812 560.27707031 315.39671875 559.40179687 314.6875 558.5 C313.76517578 557.30890625 313.76517578 557.30890625 312.82421875 556.09375 C309.17175435 551.90162812 306.41281185 550.53086835 300.79296875 550.05078125 C295.17592247 549.94865314 289.58883273 550.4832516 284 551 Z M380 551 C380 572.12 380 593.24 380 615 C385.61 615 391.22 615 397 615 C397.33 600.81 397.66 586.62 398 572 C406.10702846 582.36362402 414.14127544 592.75907898 421.93579102 603.36035156 C422.52545654 604.15538086 423.11512207 604.95041016 423.72265625 605.76953125 C424.23578369 606.46667236 424.74891113 607.16381348 425.27758789 607.88208008 C426.13018188 608.93045044 426.13018188 608.93045044 427 610 C427.6386499 610.90580811 428.2772998 611.81161621 428.93530273 612.74487305 C433.74365074 616.28304803 438.5158236 615.53271272 444.3125 615.3125 C445.43462891 615.28994141 446.55675781 615.26738281 447.71289062 615.24414062 C450.47662536 615.18533776 453.23762554 615.10320401 456 615 C456.0231271 606.80309439 456.04091696 598.60620232 456.05181217 590.40927219 C456.0570402 586.60348423 456.06413638 582.79771852 456.07543945 578.99194336 C456.0862712 575.32207456 456.09227744 571.65222722 456.09487724 567.98234367 C456.09673097 566.57925008 456.1003506 565.17615771 456.10573006 563.7730732 C456.11294419 561.8143032 456.11340809 559.8555118 456.11352539 557.89672852 C456.115746 556.77976089 456.11796661 555.66279327 456.12025452 554.51197815 C456.28510776 552.06094586 456.28510776 552.06094586 455 551 C449.72 551 444.44 551 439 551 C438.67 565.19 438.34 579.38 438 594 C424.99759615 577.74699519 424.99759615 577.74699519 419.234375 569.99609375 C416.72067412 566.62544939 414.18067082 563.27637531 411.625 559.9375 C411.20782715 559.38884277 410.7906543 558.84018555 410.36083984 558.27490234 C408.35445799 555.65948414 406.33977135 553.33977135 404 551 C396.08 551 388.16 551 380 551 Z M495.64453125 554.84765625 C494.72475641 556.5449194 493.84466418 558.26413411 493 560 C492.01172419 561.77489307 491.02075385 563.548288 490.02734375 565.3203125 C488.993581 567.25317286 487.96378633 569.18815954 486.9375 571.125 C481.83170147 580.66466383 476.59173549 590.11617223 471.22631836 599.51220703 C466.32148498 606.87538821 466.32148498 606.87538821 464 615 C475.49116191 616.54181312 475.49116191 616.54181312 485.8203125 612.84375 C488.97945528 608.30126173 488.97945528 608.30126173 490 603 C495.71219754 602.87056781 501.41890856 602.81385927 507.13256836 602.82299805 C509.07349466 602.81604364 511.01445661 602.78959904 512.95483398 602.74291992 C526.07475477 602.44343981 526.07475477 602.44343981 531 604 C533.696428 606.69747975 534.95655217 609.09061511 536.52172852 612.54418945 C537.77162288 615.1922137 537.77162288 615.1922137 540.37084961 615.90307617 C543.13348729 616.07898761 545.68483823 615.97089138 548.4375 615.6875 C549.35982422 615.63787109 550.28214844 615.58824219 551.23242188 615.53710938 C553.49656336 615.40806504 555.74407231 615.22830691 558 615 C556.67977581 611.54935291 555.17793551 608.31759724 553.41796875 605.0703125 C552.90435791 604.1210791 552.39074707 603.1718457 551.86157227 602.19384766 C551.03290649 600.67476807 551.03290649 600.67476807 550.1875 599.125 C549.61507568 598.07231934 549.04265137 597.01963867 548.45288086 595.93505859 C544.37848086 588.46690082 540.24447262 581.0334149 536.0625 573.625 C535.54389404 572.70605957 535.02528809 571.78711914 534.4909668 570.84033203 C529.06755599 560.31557862 529.06755599 560.31557862 522 551 C518.27618497 550.38598392 514.51816066 550.39782555 510.75 550.3125 C509.19345703 550.21291992 509.19345703 550.21291992 507.60546875 550.11132812 C502.12322684 550.00280354 498.8711099 550.13281886 495.64453125 554.84765625 Z M564 551 C563.97685579 559.04925101 563.95907428 567.09848817 563.94818783 575.14776421 C563.94296356 578.8851425 563.93587416 582.62249807 563.92456055 586.35986328 C563.9137155 589.96489816 563.90771972 593.56991116 563.90512276 597.17496109 C563.90327143 598.55210846 563.8996564 599.92925459 563.89426994 601.30639267 C563.88703819 603.23143094 563.88659176 605.15649112 563.88647461 607.08154297 C563.884254 608.17852509 563.88203339 609.2755072 563.87974548 610.4057312 C563.82368355 612.98513224 563.82368355 612.98513224 565 615 C570.28 615 575.56 615 581 615 C581.33 600.48 581.66 585.96 582 571 C587.03295898 581.06591797 592.06591797 591.13183594 597.09887695 601.19775391 C597.58500961 602.16554779 597.58500961 602.16554779 598.08096313 603.15289307 C598.93986667 604.87914229 599.77400277 606.61765286 600.60620117 608.35693359 C602.79136257 612.50066408 605.35751444 614.48900449 609.8125 615.875 C613.83964647 616.03292731 617.35926072 615.75497662 621 614 C623.16837129 611.56956805 624.40523483 608.82290925 625.75 605.875 C626.1526709 605.05346436 626.5553418 604.23192871 626.97021484 603.38549805 C627.85094281 601.58546644 628.72005301 599.77971643 629.57910156 597.96923828 C631.60351696 593.73883622 633.72159205 589.55709594 635.83544922 585.37084961 C638.2403494 580.5889369 640.61733695 575.79303149 643 571 C643.33 585.52 643.66 600.04 644 615 C649.61 615 655.22 615 661 615 C661 593.88 661 572.76 661 551 C651.76 551 642.52 551 633 551 C626.14525051 564.57767687 619.5539044 578.27488959 613 592 C609.8769964 588.29922553 608.05921045 584.13352695 606.05859375 579.76953125 C605.30280089 578.1464534 604.54693949 576.52340746 603.79101562 574.90039062 C602.60848941 572.34667655 601.42805111 569.79201609 600.24926758 567.23657227 C599.10760344 564.76592678 597.9584722 562.2988618 596.80859375 559.83203125 C596.45647324 559.0622847 596.10435272 558.29253815 595.74156189 557.49946594 C594.14779216 553.56691402 594.14779216 553.56691402 591 551 C588.96767366 550.91472372 586.93252994 550.89283865 584.8984375 550.90234375 C583.08085938 550.90717773 583.08085938 550.90717773 581.2265625 550.91210938 C579.95554687 550.92048828 578.68453125 550.92886719 577.375 550.9375 C575.456875 550.94426758 575.456875 550.94426758 573.5 550.95117188 C570.33328708 550.96298797 567.16666644 550.97946185 564 551 Z M680 551 C680 572.12 680 593.24 680 615 C685.94 615 691.88 615 698 615 C698 593.88 698 572.76 698 551 C692.06 551 686.12 551 680 551 Z M716 558.5625 C710.02631283 566.44146389 709.73809407 575.00982096 709.625 584.5625 C709.61090088 585.43672607 709.59680176 586.31095215 709.58227539 587.21166992 C709.63683371 594.57980571 710.9251083 601.46499933 714.6875 607.875 C720.43864317 613.15983426 727.00278595 615.13052481 734.68652344 615.11352539 C736.39784454 615.11341209 736.39784454 615.11341209 738.14373779 615.11329651 C739.36989807 615.10813522 740.59605835 615.10297394 741.859375 615.09765625 C743.11888977 615.0962413 744.37840454 615.09482635 745.67608643 615.09336853 C749.01665119 615.08872073 752.35714721 615.07974281 755.69769287 615.06866455 C759.1096538 615.05841598 762.52162185 615.05386354 765.93359375 615.04882812 C772.62241725 615.03779963 779.31119921 615.02053524 786 615 C786 609.72 786 604.44 786 599 C784.54706543 598.98541748 783.09413086 598.97083496 781.59716797 598.95581055 C776.19604129 598.89774882 770.79532805 598.82051561 765.39453125 598.73754883 C763.05898763 598.70433667 760.72336447 598.67629324 758.38769531 598.65356445 C755.02634855 598.61995099 751.66572831 598.56762997 748.3046875 598.51171875 C747.26384003 598.50532883 746.22299255 598.4989389 745.15060425 598.49235535 C739.76555819 598.38365006 735.56323186 598.20655702 731 595 C729.66173865 590.98521596 729.73736308 587.26761992 729.6875 583.0625 C729.65849609 582.25103516 729.62949219 581.43957031 729.59960938 580.60351562 C729.59123047 579.81783203 729.58285156 579.03214844 729.57421875 578.22265625 C729.55963623 577.50859619 729.54505371 576.79453613 729.5300293 576.05883789 C730.21215265 573.0706061 731.66505221 571.93662687 734 570 C736.45513916 569.48101807 736.45513916 569.48101807 739.22753906 569.45410156 C740.78870453 569.42452362 740.78870453 569.42452362 742.38140869 569.39434814 C744.05659576 569.39250519 744.05659576 569.39250519 745.765625 569.390625 C747.48842682 569.36582062 747.48842682 569.36582062 749.24603271 569.34051514 C752.91407566 569.29193385 756.5817037 569.27064077 760.25 569.25 C762.73700016 569.22184894 765.2239809 569.19192275 767.7109375 569.16015625 C773.80725753 569.08617153 779.90334585 569.0366583 786 569 C786 563.06 786 557.12 786 551 C778.36860895 550.900618 770.73760034 550.82828783 763.10571289 550.78027344 C760.51319815 550.76024279 757.92072812 550.73301033 755.32836914 550.69824219 C751.58728967 550.64934859 747.8468111 550.62694461 744.10546875 550.609375 C742.95918503 550.58872986 741.81290131 550.56808472 740.63188171 550.54681396 C731.41872271 550.54428421 722.77098847 551.84997796 716 558.5625 Z M798 557 C793.59936385 563.81388823 792.86669 571.64177699 794.53125 579.51171875 C795.85814789 583.87461671 797.13748419 587.31769735 801 590 C806.91693522 592.13717038 812.42267976 592.32431498 818.67578125 592.37890625 C820.18533638 592.40439796 820.18533638 592.40439796 821.72538757 592.43040466 C824.921029 592.48328043 828.11665866 592.52374064 831.3125 592.5625 C834.52613137 592.60643684 837.73966315 592.6530814 840.95317078 592.70530701 C842.94854708 592.73725767 844.94401195 592.76414977 846.93952942 592.78553772 C848.28684395 592.80577248 848.28684395 592.80577248 849.66137695 592.82641602 C850.45300735 592.83592789 851.24463776 592.84543976 852.06025696 592.85523987 C854 593 854 593 856 594 C856 594.99 856 595.98 856 597 C852.92781664 598.02406112 850.73987825 598.1546536 847.51879883 598.20532227 C845.83739555 598.2352401 845.83739555 598.2352401 844.12202454 598.26576233 C842.91257675 598.28247482 841.70312897 598.29918732 840.45703125 598.31640625 C839.21829758 598.33718735 837.9795639 598.35796844 836.70329285 598.37937927 C833.41374744 598.43371797 830.12417274 598.48395951 826.83453369 598.53222656 C823.47622186 598.58250646 820.11799954 598.63815861 816.75976562 598.69335938 C810.1732462 598.80053051 803.58665911 598.90180476 797 599 C797 604.28 797 609.56 797 615 C805.35405725 615.06791916 813.70789794 615.12289835 822.06215763 615.15543652 C825.94185246 615.17105735 829.82134773 615.19222949 833.70092773 615.22631836 C837.44864792 615.25904056 841.19617678 615.27687994 844.94402885 615.28463173 C846.37010139 615.29015227 847.79616407 615.30093244 849.22215462 615.31719017 C860.77341481 615.66224999 860.77341481 615.66224999 870.7421875 610.53515625 C875.91659121 603.80843142 875.51421479 597.26699163 875 589 C874.38531158 585.13975675 873.38606216 582.26173222 870.44758606 579.58683777 C864.62111574 575.65155923 859.73832541 575.29265697 852.82421875 575.36328125 C851.77724319 575.35290329 850.73026764 575.34252533 849.65156555 575.33183289 C846.32987087 575.30228075 843.00930179 575.30551282 839.6875 575.3125 C836.34816139 575.30360919 833.00912054 575.28769688 829.6698761 575.2610321 C827.59765127 575.24610413 825.52530992 575.24232131 823.45304871 575.25080872 C822.05062675 575.24521187 822.05062675 575.24521187 820.61987305 575.23950195 C819.79794968 575.24125931 818.97602631 575.24301666 818.12919617 575.24482727 C816 575 816 575 813 573 C813 572.34 813 571.68 813 571 C815.62177779 569.6891111 817.61524634 569.83916293 820.55126953 569.79467773 C821.71232208 569.77473251 822.87337463 569.75478729 824.0696106 569.73423767 C825.32796722 569.71752518 826.58632385 569.70081268 827.8828125 569.68359375 C829.16735321 569.66281265 830.45189392 569.64203156 831.77536011 569.62062073 C835.19149359 569.56540951 838.60768745 569.51599612 842.02392578 569.46777344 C845.50949481 569.41755143 848.99497609 569.36186903 852.48046875 569.30664062 C859.32023805 569.1990707 866.16008878 569.0981277 873 569 C873 563.72 873 558.44 873 553 C864.40244224 552.90939668 855.80525969 552.83611084 847.20735168 552.79275131 C843.21438771 552.77193407 839.22176914 552.74372511 835.22900391 552.69824219 C831.37103919 552.6545731 827.51340533 552.63081885 823.6552124 552.62049103 C822.18807776 552.61313718 820.72095991 552.59877712 819.25396729 552.57707977 C808.03407179 552.41768759 808.03407179 552.41768759 798 557 Z " fill="#000000" transform="translate(0,0)"/>
<path d="M0 0 C3.24822479 2.77687356 5.12183056 6.39061382 7.1875 10.0625 C7.55552734 10.69994141 7.92355469 11.33738281 8.30273438 11.99414062 C11 16.74312964 11 16.74312964 11 19 C4.07 19 -2.86 19 -10 19 C-8.74835013 15.87087533 -7.69858563 13.28626875 -6.0546875 10.44921875 C-5.70019531 9.83369141 -5.34570312 9.21816406 -4.98046875 8.58398438 C-4.61566406 7.95814453 -4.25085938 7.33230469 -3.875 6.6875 C-3.50246094 6.04232422 -3.12992188 5.39714844 -2.74609375 4.73242188 C-1.83367787 3.15324055 -0.91724491 1.57638136 0 0 Z " fill="#000000" transform="translate(698,481)"/>
<path d="M0 0 C5.48092694 -0.07420027 10.96156099 -0.1286258 16.44287109 -0.16479492 C18.30718072 -0.17987414 20.17145492 -0.20034061 22.03564453 -0.22631836 C24.71656033 -0.26273996 27.3970068 -0.2797349 30.078125 -0.29296875 C30.91055725 -0.30845261 31.7429895 -0.32393646 32.60064697 -0.33988953 C36.09983807 -0.34090539 38.39366461 -0.31796921 41.53027344 1.3269043 C43 3 43 3 43.4375 6.0625 C43.293125 7.031875 43.14875 8.00125 43 9 C39.955498 11.029668 39.39723672 11.24856301 35.98754883 11.22705078 C35.18694534 11.22689972 34.38634186 11.22674866 33.56147766 11.22659302 C32.70201035 11.21627045 31.84254303 11.20594788 30.95703125 11.1953125 C30.0734343 11.1924826 29.18983734 11.18965271 28.27946472 11.18673706 C25.45700546 11.17554097 22.63486338 11.15043751 19.8125 11.125 C17.89909312 11.11496946 15.98568127 11.10584374 14.07226562 11.09765625 C9.38138818 11.07560351 4.69074787 11.04107762 0 11 C0 7.37 0 3.74 0 0 Z " fill="#000000" transform="translate(587,483)"/>
<path d="M0 0 C3.5117964 3.15440119 5.55209593 6.46401067 7.75 10.625 C8.36359375 11.77226563 8.9771875 12.91953125 9.609375 14.1015625 C11 17 11 17 11 19 C4.07 19 -2.86 19 -10 19 C-8.72125 16.421875 -7.4425 13.84375 -6.125 11.1875 C-5.72555176 10.37949951 -5.32610352 9.57149902 -4.91455078 8.73901367 C-4.59470215 8.09681885 -4.27485352 7.45462402 -3.9453125 6.79296875 C-3.62062988 6.1383667 -3.29594727 5.48376465 -2.96142578 4.80932617 C-2 3 -2 3 0 0 Z " fill="#000000" transform="translate(510,567)"/>
<path d="M0 0 C1.85071404 -0.01653871 3.70136476 -0.04380134 5.55175781 -0.08203125 C8.21892462 -0.13687198 10.88459095 -0.15868654 13.55224609 -0.17333984 C14.78844696 -0.2073439 14.78844696 -0.2073439 16.04962158 -0.24203491 C20.30278454 -0.2264384 22.04386777 -0.01730788 25.55883789 2.60351562 C27.55031117 5.3691093 28.16879936 6.488666 28.16552734 9.81884766 C28.16746094 10.63740234 28.16939453 11.45595703 28.17138672 12.29931641 C28.14753906 13.14107422 28.12369141 13.98283203 28.09912109 14.85009766 C28.11007812 15.69185547 28.12103516 16.53361328 28.13232422 17.40087891 C28.08430585 21.46643408 27.84798129 23.8213985 25.75146484 27.38134766 C21.52991002 31.13384083 16.72024643 30.49726102 11.30615234 30.48291016 C10.51512619 30.48386688 9.72410004 30.48482361 8.90910339 30.48580933 C7.24237997 30.48648832 5.57565386 30.48465365 3.90893555 30.48046875 C1.34792211 30.47509514 -1.21291764 30.48043414 -3.77392578 30.48681641 C-5.3930668 30.48615599 -7.0122077 30.4848756 -8.63134766 30.48291016 C-9.40109421 30.48493439 -10.17084076 30.48695862 -10.96391296 30.48904419 C-16.34841337 30.46506319 -16.34841337 30.46506319 -17.46337891 29.35009766 C-17.56331422 27.28954455 -17.59418796 25.22557176 -17.59619141 23.16259766 C-17.59748047 21.90705078 -17.59876953 20.65150391 -17.60009766 19.35791016 C-17.59800293 18.70081055 -17.5959082 18.04371094 -17.59375 17.36669922 C-17.58840124 15.35848431 -17.59369582 13.35049307 -17.60009766 11.34228516 C-17.59880859 10.08673828 -17.59751953 8.83119141 -17.59619141 7.53759766 C-17.59449951 5.79542969 -17.59449951 5.79542969 -17.59277344 4.01806641 C-17.28093796 -2.41162813 -5.14160467 0.03370051 0 0 Z " fill="#000000" transform="translate(240.46337890625,568.64990234375)"/>
</svg>
