<?xml version="1.0" standalone="no"?>
<!DOCTYPE svg PUBLIC "-//W3C//DTD SVG 20010904//EN"
 "http://www.w3.org/TR/2001/REC-SVG-20010904/DTD/svg10.dtd">
<svg version="1.0" xmlns="http://www.w3.org/2000/svg"
 width="431.000000pt" height="117.000000pt" viewBox="0 0 431.000000 117.000000"
 preserveAspectRatio="xMidYMid meet">

<g transform="translate(0.000000,117.000000) scale(0.100000,-0.100000)"
fill="#000000" stroke="none">
<path d="M230 1094 c-58 -41 -112 -83 -122 -92 -9 -9 -35 -81 -59 -160 l-42
-143 43 -140 c24 -76 50 -145 59 -153 9 -8 63 -48 120 -90 l104 -76 139 0 139
0 117 86 117 85 46 142 45 142 -44 150 c-24 83 -45 151 -46 153 -2 1 -56 40
-121 87 l-118 85 -136 0 -136 0 -105 -76z m379 -11 c6 -31 11 -62 11 -69 0 -8
-31 6 -77 35 -43 26 -94 57 -113 69 l-35 22 101 0 101 0 12 -57z m-156 -9 c50
-31 104 -64 119 -73 16 -9 28 -19 28 -22 0 -4 -34 -15 -76 -24 -41 -9 -107
-28 -146 -41 -40 -13 -75 -24 -80 -24 -9 0 -4 28 24 153 11 48 24 87 29 87 5
0 51 -25 102 -56z m316 -53 l24 -19 -44 -6 c-24 -4 -56 -9 -70 -12 -24 -5 -27
-2 -32 33 -4 21 -10 53 -13 72 l-7 35 59 -42 c32 -23 70 -51 83 -61z m-462 77
c-3 -7 -13 -57 -23 -110 -10 -54 -21 -98 -25 -98 -4 0 -35 21 -69 46 -72 53
-74 45 35 123 72 52 90 60 82 39z m534 -170 c6 -24 19 -69 29 -100 10 -32 16
-58 13 -58 -3 0 -39 34 -82 75 -42 41 -87 83 -101 92 l-25 18 30 6 c17 4 51 7
77 8 l47 1 12 -42z m-616 -73 c-10 -5 -53 -33 -96 -61 -43 -29 -79 -48 -79
-44 0 4 4 20 9 36 6 16 19 61 31 101 l21 72 65 -47 c56 -40 63 -48 49 -57z
m408 53 c8 -57 13 -213 7 -212 -3 0 -38 19 -78 43 -40 23 -111 58 -157 78 -47
20 -85 39 -85 44 0 12 243 85 296 88 7 1 14 -18 17 -41z m152 -83 c59 -58 104
-109 101 -113 -3 -5 -34 -12 -68 -16 -35 -3 -82 -9 -105 -12 l-43 -7 0 80 c0
44 -3 101 -6 127 -5 30 -3 46 4 46 6 0 59 -47 117 -105z m-527 -184 l-3 -71
-63 40 c-35 22 -81 49 -102 60 -22 11 -40 24 -40 29 0 12 87 76 153 112 l52
28 3 -64 c2 -35 2 -96 0 -134z m290 77 c39 -23 72 -44 72 -48 0 -3 -31 -13
-68 -23 -38 -10 -104 -31 -148 -48 -43 -17 -86 -33 -95 -36 -14 -4 -18 8 -24
76 -4 44 -4 107 0 140 l7 59 91 -40 c51 -21 125 -58 165 -80z m351 -50 c0 -7
-15 -58 -32 -113 l-32 -99 -27 45 c-15 25 -48 69 -73 97 -53 59 -53 58 50 71
102 12 115 12 114 -1z m-697 -94 c26 -16 47 -31 48 -34 0 -4 -110 -78 -132
-88 -6 -3 -68 180 -68 201 0 9 55 -20 152 -79z m438 17 c0 -48 -29 -293 -35
-299 -2 -2 -52 38 -112 90 -60 51 -126 107 -148 124 l-39 30 85 31 c105 40
209 72 232 72 14 1 17 -8 17 -48z m76 -9 c37 -44 107 -152 102 -157 -14 -14
-182 -134 -184 -132 -2 2 3 41 10 87 8 47 17 120 21 163 4 42 10 77 13 77 4 0
21 -17 38 -38z m-441 -109 c4 -21 12 -69 20 -108 7 -38 13 -71 12 -72 -2 -2
-157 113 -170 126 -8 8 106 91 124 91 4 0 11 -17 14 -37z m142 -60 c54 -45
111 -95 127 -112 l30 -31 -116 0 -116 0 -16 73 c-25 115 -30 160 -18 156 5 -2
54 -41 109 -86z"/>
</g>
</svg>
