<?xml version="1.0" encoding="UTF-8"?>
<svg version="1.1" xmlns="http://www.w3.org/2000/svg" width="1593" height="440">
<path d="M0 0 C38.94 0 77.88 0 118 0 C112.37784588 5.62215412 112.37784588 5.62215412 108.91796875 8.12890625 C108.1587915 8.68296143 107.39961426 9.2370166 106.61743164 9.80786133 C105.8155542 10.38689209 105.01367676 10.96592285 104.1875 11.5625 C102.48134022 12.80670138 100.77561816 14.05150321 99.0703125 15.296875 C97.79269043 16.22790039 97.79269043 16.22790039 96.48925781 17.17773438 C92.82499508 19.86016445 89.19124614 22.58230474 85.5625 25.3125 C84.9010498 25.80983643 84.23959961 26.30717285 83.55810547 26.81958008 C82.28531858 27.77680128 81.01268794 28.73423029 79.74023438 29.69189453 C77.26834234 31.54997499 74.78974468 33.39906436 72.3125 35.25 C65.81586789 40.12025225 59.36350151 45.048537 52.91137695 49.97753906 C51.64040161 50.94771973 51.64040161 50.94771973 50.34375 51.9375 C49.05476807 52.94913208 49.05476807 52.94913208 47.73974609 53.98120117 C45 56 45 56 41.90478516 57.79418945 C31.07833982 64.48239614 29.40994511 73.42159314 26.375 85.1875 C25.81684481 87.2161707 25.25405734 89.24357172 24.68701172 91.26977539 C23.44996109 95.70676149 22.23551561 100.14918469 21.03320312 104.59570312 C18.82032442 112.72203493 16.47289846 120.80713314 14.109375 128.890625 C13.90202854 129.60015635 13.69468208 130.30968769 13.4810524 131.04071999 C12.64826927 133.88993999 11.81511788 136.73905161 10.98112679 139.58791828 C8.78721508 147.08413425 6.61527722 154.58666693 4.4453125 162.08984375 C3.92139923 163.90050323 3.92139923 163.90050323 3.38690186 165.7477417 C2.59104664 168.49843055 1.79540147 171.24917992 1 174 C0.67 174 0.34 174 0 174 C0 116.58 0 59.16 0 0 Z " fill="#000000" transform="translate(0,0)"/>
<path d="M0 0 C452.1 0 904.2 0 1370 0 C1370 145.2 1370 290.4 1370 440 C844.31 440 318.62 440 -223 440 C-223 355.52 -223 271.04 -223 184 C-221.44438817 187.11122365 -220.34100818 189.80279587 -219.31103516 193.08349609 C-218.98912704 194.1029985 -218.66721893 195.12250092 -218.33555603 196.17289734 C-217.81754173 197.83141472 -217.81754173 197.83141472 -217.2890625 199.5234375 C-216.92458511 200.68136307 -216.56010773 201.83928864 -216.18458557 203.03230286 C-215.19913784 206.16471344 -214.21661555 209.29802599 -213.23479843 212.43157578 C-212.21799464 215.67212384 -211.19529151 218.91080784 -210.1730957 222.1496582 C-206.80355738 232.83316971 -203.4406062 243.51834121 -200.16802979 254.23205566 C-199.09316239 257.7502377 -198.00922951 261.26559571 -196.92474365 264.78082275 C-196.20373166 267.13451296 -195.498447 269.49254519 -194.79345703 271.85107422 C-194.35660578 273.26945592 -193.91899339 274.68760352 -193.48046875 276.10546875 C-193.11848389 277.30324951 -192.75649902 278.50103027 -192.38354492 279.73510742 C-189.75095261 285.94750499 -185.30245058 289.8037451 -179.9375 293.8125 C-179.37023193 294.23990479 -178.80296387 294.66730957 -178.21850586 295.10766602 C-176.48417859 296.41220584 -174.74296206 297.70702814 -173 299 C-171.0202654 300.47840646 -169.04107746 301.95754528 -167.0625 303.4375 C-166.0828125 304.1696875 -165.103125 304.901875 -164.09375 305.65625 C-160.11747731 308.66857779 -156.19947019 311.75103574 -152.28369141 314.84130859 C-146.75912455 319.19929108 -141.18515538 323.490497 -135.60009766 327.77050781 C-133.50110106 329.38334682 -131.40959803 331.00571966 -129.31998825 332.6306963 C-127.72880303 333.85746984 -126.12069513 335.06220462 -124.51153564 336.26530457 C-122.19539286 338.02287933 -120.0466349 339.8584385 -117.93255615 341.85298157 C-106.8181979 351.82801867 -95.88798396 351.57443334 -81.515625 351.35546875 C-79.16444654 351.35525954 -76.81326513 351.35877034 -74.46209717 351.36579895 C-69.55961946 351.36846379 -64.65937411 351.33327526 -59.75732422 351.26928711 C-53.49695523 351.18964955 -47.24014613 351.19482376 -40.97946548 351.22698498 C-36.13368347 351.24429086 -31.28871168 351.22196667 -26.44304657 351.18734169 C-24.13557107 351.17453264 -21.82800705 351.17258694 -19.52051544 351.18205833 C-3.43467077 351.57226651 -3.43467077 351.57226651 10.10816956 343.95765686 C10.7324736 343.3116301 11.35677765 342.66560333 12 342 C13.10258666 341.13048757 14.21928329 340.27825032 15.35546875 339.453125 C16.29003906 338.72609375 17.22460938 337.9990625 18.1875 337.25 C23.06635425 333.46901777 27.98992873 329.75301816 32.9375 326.0625 C38.47158536 321.92898411 43.93634236 317.72184652 49.3503418 313.43261719 C55.62201214 308.4786578 61.9929132 303.65547338 68.3659668 298.83300781 C70.07428861 297.5373659 71.77145807 296.22689067 73.45727539 294.90209961 C76 293 76 293 78.63452148 291.45922852 C88.3999312 285.23519187 89.81007569 274.85630464 92.5625 264.3125 C93.11298659 262.31386996 93.66738416 260.31631322 94.22558594 258.31982422 C95.33028107 254.36053896 96.4200896 250.39766322 97.49853516 246.43115234 C99.41327983 239.44000181 101.55730656 232.53352641 103.75 225.625 C104.45134778 223.37135093 105.15187561 221.11744652 105.8515625 218.86328125 C107.19143478 214.56478547 108.55129631 210.27334349 109.92614746 205.98596191 C110.7964428 203.25817777 111.65099326 200.52561169 112.50256348 197.79193115 C113.10397725 195.87935516 113.7249859 193.97297487 114.34667969 192.06689453 C114.70922852 190.89626465 115.07177734 189.72563477 115.4453125 188.51953125 C115.77031738 187.49964111 116.09532227 186.47975098 116.43017578 185.42895508 C118.26314897 174.39891719 113.7408451 163.37254126 110.64453125 152.9140625 C110.09907804 151.04834534 109.55438905 149.1824046 109.01042175 147.31625366 C107.57879141 142.4127761 106.13650794 137.51249479 104.6920166 132.61279297 C103.24302506 127.69044503 101.8047389 122.76497257 100.36523438 117.83984375 C98.23551975 110.56045326 96.10265645 103.28200067 93.96020508 96.00634766 C93.71913938 95.18713648 93.47807367 94.3679253 93.22970295 93.52388954 C91.93319445 89.12825566 90.62092011 84.73784017 89.29086304 80.35223389 C89.01195315 79.43078772 88.73304327 78.50934155 88.44568157 77.55997276 C87.90857978 75.78846862 87.36910004 74.01768323 86.82693958 72.24772072 C86.46753804 71.06215112 86.46753804 71.06215112 86.10087585 69.85263062 C85.88782146 69.15514395 85.67476706 68.45765728 85.45525646 67.73903465 C85 66 85 66 85 64 C84.16275391 63.61714844 84.16275391 63.61714844 83.30859375 63.2265625 C80.67211031 61.82579126 78.44026078 60.18363448 76.0625 58.375 C75.55726807 57.99239014 75.05203613 57.60978027 74.53149414 57.21557617 C72.68440089 55.81461996 70.84186084 54.40782851 69 53 C65.64634992 50.43682271 62.29238444 47.87406158 58.9375 45.3125 C58.03918457 44.62647705 57.14086914 43.9404541 56.21533203 43.23364258 C47.88732923 36.88733431 39.46148041 30.67937407 31.02001953 24.48535156 C26.31815518 21.02799808 21.65356085 17.52208409 17 14 C15.93410645 13.1958667 15.93410645 13.1958667 14.84667969 12.37548828 C12.47838779 10.58723636 10.11380327 8.79417982 7.75 7 C6.9854248 6.42306396 6.22084961 5.84612793 5.43310547 5.25170898 C4.72814941 4.71489502 4.02319336 4.17808105 3.296875 3.625 C2.34312988 2.90183594 2.34312988 2.90183594 1.37011719 2.1640625 C0.91797852 1.77992187 0.46583984 1.39578125 0 1 C0 0.67 0 0.34 0 0 Z M319 104 C314.36491373 110.14418412 311.80509114 116.55795756 310 124 C316.9134848 127.63657293 323.90816542 130.89398357 331.125 133.875 C331.87128662 134.1851001 332.61757324 134.4952002 333.38647461 134.81469727 C337.07243659 136.43036803 337.07243659 136.43036803 341 137 C341.09796875 136.41992188 341.1959375 135.83984375 341.296875 135.2421875 C342.29576772 130.02383417 343.33857005 126.02757295 347 122 C351.82534447 118.76599253 356.98857347 116.08148099 362.921875 116.515625 C368.83385303 117.89360484 373.66758592 120.40760269 377.5625 125.0625 C380.8875408 131.85714859 381.31986311 140.19569827 379.31640625 147.48828125 C377.20730997 152.13529421 374.66993044 154.75151497 370 157 C365.05 157.99 365.05 157.99 360 159 C360 168.24 360 177.48 360 187 C363.96 187.99 367.92 188.98 372 190 C377.43138969 192.71569484 379.43565668 195.681362 382 201 C383.92511444 207.05582357 384.1673457 214.9280168 381.8125 220.875 C378.85942908 225.96650158 375.96781622 230.42505403 370.21484375 232.52734375 C362.86363536 234.09612014 355.14859763 234.12924048 348.58203125 230.203125 C343.3767399 226.24453306 341.40464089 221.46830945 340.375 215.1875 C340.25125 214.135625 340.1275 213.08375 340 212 C333.66053684 213.03550378 328.08630371 215.85416422 322.25 218.4375 C321.08855469 218.94087891 319.92710937 219.44425781 318.73046875 219.96289062 C317.62832031 220.44822266 316.52617188 220.93355469 315.390625 221.43359375 C314.38032227 221.87759521 313.37001953 222.32159668 312.32910156 222.77905273 C309.86593269 223.78101442 309.86593269 223.78101442 309 226 C312.7289753 239.09779383 319.79227533 249.24889689 331.4140625 256.5078125 C333.90084744 257.82620325 336.39048231 258.94661671 339 260 C339.76054688 260.3196875 340.52109375 260.639375 341.3046875 260.96875 C355.20799251 265.76605652 372.50495472 264.31227611 386 259 C386.72703125 258.74605469 387.4540625 258.49210938 388.203125 258.23046875 C399.3035316 253.65042294 406.77865124 243.96303131 411.6953125 233.45703125 C416.51428313 220.68820188 417.52076274 204.39125767 412.328125 191.57421875 C408.800841 184.73751241 404.65688608 179.01181504 398.578125 174.25390625 C396.92460986 172.94009843 395.46769741 171.51632594 394 170 C394.680625 169.835 395.36125 169.67 396.0625 169.5 C402.42232954 166.25242747 406.6376695 160.06845456 409.21484375 153.51953125 C413.09544546 141.06685411 413.32197734 125.73453582 407.125 113.91015625 C406.75375 113.27980469 406.3825 112.64945313 406 112 C405.62875 111.31808594 405.2575 110.63617188 404.875 109.93359375 C397.52898533 97.19889068 385.90259546 90.77186894 372 87 C368.39534252 86.18685089 368.39534252 86.18685089 365 86 C364.37480469 85.9484375 363.74960937 85.896875 363.10546875 85.84375 C346.18048411 85.09013287 330.33565334 91.49238963 319 104 Z M203 88 C201.67702944 89.09774883 201.67702944 89.09774883 201.87695217 91.82485294 C201.87787396 93.09969264 201.87879576 94.37453234 201.87974548 95.68800354 C201.87889106 96.39531252 201.87803663 97.10262151 201.87715632 97.8313641 C201.87549945 100.21906282 201.88102623 102.60669243 201.88647461 104.99438477 C201.88675646 106.69894407 201.88659878 108.40350351 201.8860321 110.10806274 C201.88574406 114.750428 201.89164194 119.39276765 201.89860606 124.03512692 C201.90483841 128.88115895 201.9054433 133.72719151 201.90663147 138.57322693 C201.90974514 147.75655964 201.917959 156.9398805 201.92798096 166.12320799 C201.94122592 178.52792612 201.94664172 190.93264746 201.95248318 203.33737087 C201.96189887 222.89158946 201.98181755 242.44578305 202 262 C230.71 262 259.42 262 289 262 C289 251.77 289 241.54 289 231 C271.84 231 254.68 231 237 231 C237 183.81 237 136.62 237 88 C225.78 88 214.56 88 203 88 Z M449 88 C449 145.09 449 202.18 449 261 C460.22 261 471.44 261 483 261 C483 237.24 483 213.48 483 189 C501.15 189 519.3 189 538 189 C538 212.76 538 236.52 538 261 C549.55 261 561.1 261 573 261 C573 203.91 573 146.82 573 88 C561.78 88 550.56 88 539 88 C537.68714072 89.0877193 537.68714072 89.0877193 537.87974548 91.73976135 C537.88196609 92.96331833 537.88418671 94.18687531 537.88647461 95.44750977 C537.88632858 96.12065216 537.88618256 96.79379456 537.8860321 97.48733521 C537.88673122 99.72205784 537.89452348 101.9566981 537.90234375 104.19140625 C537.90420794 105.73697362 537.90563184 107.28254157 537.90663147 108.82810974 C537.9104566 112.90357077 537.92028683 116.97899637 537.93133545 121.05444336 C537.94334434 125.94027728 537.94795183 130.82612302 537.95378876 135.71196747 C537.9634986 143.14133631 537.98265516 150.57062737 538 158 C519.85 158 501.7 158 483 158 C483 134.9 483 111.8 483 88 C471.78 88 460.56 88 449 88 Z M661 88 C657.88424077 94.67735141 655.32212225 101.46685313 652.91015625 108.42578125 C652.52922821 109.51433411 652.14830017 110.60288696 651.75582886 111.72442627 C650.94256833 114.04922403 650.13092392 116.37458769 649.32077026 118.70046997 C647.19308121 124.8082808 645.05349025 130.91191798 642.9140625 137.015625 C642.49037888 138.22509293 642.06669525 139.43456085 641.63017273 140.68067932 C638.12843301 150.66427513 634.55397342 160.61999029 630.9375 170.5625 C626.81115697 181.91565672 622.7943929 193.29871869 618.89648438 204.73291016 C616.43203097 211.93292097 613.89489323 219.10220273 611.3046875 226.2578125 C610.98513596 227.14170151 610.66558441 228.02559052 610.33634949 228.93626404 C608.75028906 233.32056735 607.15801524 237.70247707 605.55688477 242.08129883 C604.97394826 243.68825111 604.3911768 245.29526329 603.80859375 246.90234375 C603.40463882 247.99731674 603.40463882 247.99731674 602.99252319 249.1144104 C601.53200395 253.1601417 600.71755664 256.69466015 600 261 C611.55 261 623.1 261 635 261 C636.093125 258.050625 637.18625 255.10125 638.3125 252.0625 C638.65063721 251.15250244 638.98877441 250.24250488 639.3371582 249.30493164 C643.20735143 240.36667399 643.20735143 240.36667399 645 231 C674.205 231.495 674.205 231.495 704 232 C706.97 241.57 709.94 251.14 713 261 C724.55 261 736.1 261 748 261 C746.64281432 254.89266445 745.21277692 249.32586446 743.0859375 243.515625 C742.79989151 242.72007202 742.51384552 241.92451904 742.21913147 241.1048584 C741.60063227 239.3867051 740.9796489 237.66944439 740.35641479 235.95300293 C739.34735833 233.17386958 738.34486671 230.39244206 737.34399414 227.61035156 C735.93154911 223.68487273 734.51696489 219.76017473 733.10107422 215.8359375 C730.17336989 207.71321525 727.28195466 199.57765112 724.39303589 191.44107056 C723.42934399 188.72703028 722.4648887 186.01326236 721.50024414 183.29956055 C717.42082869 171.82215433 713.34673777 160.34285878 709.2734375 148.86328125 C709.02700312 148.16876987 708.78056873 147.4742585 708.52666664 146.75870132 C706.06831992 139.83038972 703.61018364 132.90200356 701.15272141 125.97337818 C700.45685172 124.01146627 699.76092141 122.04957587 699.06497192 120.08769226 C698.213913 117.68849622 697.36297081 115.28925877 696.51217651 112.88996887 C695.7381542 110.70804585 694.9631807 108.52645997 694.18716431 106.34524536 C693.32981039 103.92935467 692.47734196 101.51203293 691.6289978 99.09298706 C691.17481584 97.80473743 690.72060314 96.51649863 690.26635742 95.22827148 C689.85665207 94.06093979 689.44694672 92.89360809 689.02482605 91.69090271 C688.2554574 89.11907782 688.2554574 89.11907782 687 88 C685.07332493 87.91251793 683.14348139 87.89302666 681.21484375 87.90234375 C680.04501953 87.90556641 678.87519531 87.90878906 677.66992188 87.91210938 C676.43822266 87.92048828 675.20652344 87.92886719 673.9375 87.9375 C672.70193359 87.94201172 671.46636719 87.94652344 670.19335938 87.95117188 C667.12885883 87.96300392 664.06445279 87.97948827 661 88 Z M1090 88 C1090 145.09 1090 202.18 1090 261 C1101.22 261 1112.44 261 1124 261 C1124 203.91 1124 146.82 1124 88 C1112.78 88 1101.56 88 1090 88 Z M1169 107 C1159.43031163 119.5938756 1156.85337007 134.65730796 1158.625 150.125 C1160.4214738 160.73728234 1164.07817441 169.5913291 1172 177 C1172.65742187 177.61617188 1173.31484375 178.23234375 1173.9921875 178.8671875 C1185.00426804 188.26577639 1198.62051313 190.11969286 1212.4375 192.125 C1214.85746331 192.48145307 1217.27641634 192.84238785 1219.69386292 193.21554565 C1221.18269023 193.44496946 1222.6730147 193.66496285 1224.16490173 193.87356567 C1228.61634651 194.55446856 1232.04955371 195.87687855 1236 198 C1236.66 198 1237.32 198 1238 198 C1241.25072627 205.43023147 1242.91680117 212.02854117 1241 220 C1239.4375 222.9375 1239.4375 222.9375 1238 225 C1238 225.66 1238 226.32 1238 227 C1223.23642381 234.67705962 1207.40695279 234.95682242 1191.578125 230.27734375 C1184.92721244 227.90305509 1179.57901351 224.23452151 1174 220 C1168.56090145 222.36322105 1164.8360377 226.75547305 1160.6875 230.875 C1159.41422852 232.09896484 1159.41422852 232.09896484 1158.11523438 233.34765625 C1157.31794922 234.13785156 1156.52066406 234.92804688 1155.69921875 235.7421875 C1154.59839966 236.82282471 1154.59839966 236.82282471 1153.4753418 237.92529297 C1151.76782181 239.86686926 1151.76782181 239.86686926 1152.12939453 242.1340332 C1155.99374784 250.4164932 1171.06802131 257.03614266 1179 260 C1201.21803493 267.51500241 1228.1645489 266.90290877 1249.375 256.8125 C1262.12956166 249.94242929 1270.78121314 240.15489322 1275.16015625 226.33984375 C1278.75454625 210.97591625 1277.33388883 195.64440019 1269.65234375 181.65234375 C1262.75058355 170.57363175 1253.82327096 165.66699697 1241.2800293 162.6628418 C1234.8190799 161.3571866 1228.26952096 160.85178659 1221.7109375 160.27148438 C1203.06964848 158.39178399 1203.06964848 158.39178399 1196.875 152.5 C1192.38745436 146.51660581 1192.37871831 141.34690253 1193 134 C1194.63498132 129.00422374 1197.50119389 125.68784602 1202 123 C1212.0729454 118.43797763 1224.56801656 118.59722439 1235 122 C1240.76724809 124.50033489 1245.96591658 127.22443744 1251 131 C1257.93 124.07 1264.86 117.14 1272 110 C1267.07509167 100.15018334 1255.64400173 94.98259735 1245.6875 91.3125 C1220.09261829 83.47824055 1187.62200898 86.11036632 1169 107 Z M776 89 C776 146.09 776 203.18 776 262 C787.22 262 798.44 262 810 262 C810 239.23 810 216.46 810 193 C817.59 193.33 825.18 193.66 833 194 C834.485 197.3 835.97 200.6 837.5 204 C840.74646985 211.17287262 844.07770699 218.27010466 847.66015625 225.28125 C853.76872049 237.35235702 859.30522585 249.73433261 865 262 C877.87 262 890.74 262 904 262 C902.2771125 256.81839703 902.2771125 256.81839703 900.09570312 251.94848633 C899.72771606 251.20943558 899.359729 250.47038483 898.98059082 249.7089386 C898.58480835 248.92455917 898.18902588 248.14017975 897.78125 247.33203125 C897.36387573 246.49774094 896.94650146 245.66345062 896.51647949 244.80387878 C895.63072024 243.03537552 894.74302152 241.26784248 893.85351562 239.5012207 C892.52807344 236.8682671 891.20880007 234.23230105 889.890625 231.59570312 C885.15376945 222.14228714 880.33136984 212.73949615 875.37316895 203.40010071 C872.84422389 198.63346886 870.39610599 193.83490201 868 189 C868.70125 188.5153125 869.4025 188.030625 870.125 187.53125 C882.9813265 178.44797584 892.00950656 168.87405868 895.64257812 153.08007812 C896.26309824 149.4688545 896.34020488 145.9074394 896.3125 142.25 C896.30686035 141.46359131 896.3012207 140.67718262 896.29541016 139.86694336 C896.0009424 125.617328 891.07706609 113.48603879 881.25390625 103.06640625 C854.12009776 78.18982966 805.89763984 89 776 89 Z M933 89 C933 146.09 933 203.18 933 262 C944.22 262 955.44 262 967 262 C967 239.23 967 216.46 967 193 C974.59 193.33 982.18 193.66 990 194 C990.7734375 195.69125 991.546875 197.3825 992.34375 199.125 C999.43854694 214.62470307 999.43854694 214.62470307 1006.97705078 229.91064453 C1010.67083258 237.19278104 1013.98644526 244.65389994 1017.32055664 252.10595703 C1017.99332642 253.59651611 1017.99332642 253.59651611 1018.6796875 255.1171875 C1019.07913574 256.01034668 1019.47858398 256.90350586 1019.89013672 257.82373047 C1020.92626314 260.13204354 1020.92626314 260.13204354 1023 262 C1025.94096737 262.17539436 1028.78653349 262.23132375 1031.7265625 262.1953125 C1032.58937836 262.1924826 1033.45219421 262.18965271 1034.34115601 262.18673706 C1037.1025772 262.17552333 1039.8636765 262.15041684 1042.625 262.125 C1044.49478699 262.11497173 1046.36457905 262.10584562 1048.234375 262.09765625 C1052.82304109 262.07558012 1057.41146593 262.04104234 1062 262 C1061.31647461 260.63403687 1061.31647461 260.63403687 1060.61914062 259.24047852 C1057.14578546 252.29736202 1053.67609329 245.35245084 1050.21459961 238.40341187 C1048.43220955 234.82586831 1046.64806034 231.24920329 1044.86376953 227.67260742 C1043.95387482 225.84776846 1043.04469612 224.02257231 1042.13623047 222.19702148 C1036.58409956 211.04188674 1030.94237647 199.95284207 1025 189 C1026.17393311 188.15671143 1026.17393311 188.15671143 1027.37158203 187.29638672 C1030.2605756 185.21481537 1033.1295872 183.10708973 1036 181 C1037.60875 179.8553125 1037.60875 179.8553125 1039.25 178.6875 C1048.68484641 169.46708192 1053.0033179 157.66530036 1053.47070312 144.66552734 C1053.6508935 128.65561277 1049.80261017 115.19391618 1038.6875 103.1875 C1011.81616486 78.06340414 961.88978269 89 933 89 Z M1302 93 C1302 95.31 1302 97.62 1302 100 C1305.63 100 1309.26 100 1313 100 C1313 111.22 1313 122.44 1313 134 C1314.98 134 1316.96 134 1319 134 C1319 122.78 1319 111.56 1319 100 C1322.63 100 1326.26 100 1330 100 C1330 97.69 1330 95.38 1330 93 C1320.76 93 1311.52 93 1302 93 Z M1336 93 C1336 106.53 1336 120.06 1336 134 C1337.98 134 1339.96 134 1342 134 C1342.33 126.74 1342.66 119.48 1343 112 C1345.31 116.62 1347.62 121.24 1350 126 C1351.65 126 1353.3 126 1355 126 C1357.31 121.38 1359.62 116.76 1362 112 C1362.33 119.26 1362.66 126.52 1363 134 C1364.98 134 1366.96 134 1369 134 C1369 120.47 1369 106.94 1369 93 C1367.02 93 1365.04 93 1363 93 C1361.89442408 95.35351368 1360.79051018 97.7077841 1359.6875 100.0625 C1359.37876953 100.71927734 1359.07003906 101.37605469 1358.75195312 102.05273438 C1356.7481021 106.33464761 1354.84042376 110.64527425 1353 115 C1349.33333333 107.66666667 1345.66666667 100.33333333 1342 93 C1340.02 93 1338.04 93 1336 93 Z M203 346 C202.89946492 348.8250333 202.86384284 351.62565285 202.87060547 354.45117188 C202.86885315 355.33728653 202.86710083 356.22340118 202.86529541 357.1363678 C202.8608756 360.08051482 202.86381533 363.02460231 202.8671875 365.96875 C202.8665145 368.00516776 202.8655445 370.04158544 202.86428833 372.07800293 C202.86281118 376.35197716 202.86496645 380.62593053 202.86962891 384.89990234 C202.8753262 390.39158539 202.87204729 395.88321957 202.86605644 401.37490082 C202.86245128 405.58177054 202.86358921 409.78862859 202.86618423 413.99549866 C202.86685363 416.02100124 202.86602465 418.04650486 202.86370468 420.07200623 C202.8611789 422.8976423 202.8650177 425.72319807 202.87060547 428.54882812 C202.86858124 429.39457901 202.86655701 430.2403299 202.86447144 431.11170959 C202.51557623 434.86059746 202.51557623 434.86059746 204 438 C207.3 438 210.6 438 214 438 C214 424.8 214 411.6 214 398 C226.87 398 239.74 398 253 398 C253 394.7 253 391.4 253 388 C240.13 388 227.26 388 214 388 C214 377.11 214 366.22 214 355 C228.85 355 243.7 355 259 355 C259 351.7 259 348.4 259 345 C251.18547248 344.97473437 243.37095542 344.95716895 235.55639648 344.94506836 C232.89558519 344.94002617 230.23477668 344.93319264 227.57397461 344.92456055 C223.75894484 344.91248991 219.94395156 344.90677071 216.12890625 344.90234375 C214.93100967 344.89718246 213.7331131 344.89202118 212.49891663 344.88670349 C211.3978508 344.88662796 210.29678497 344.88655243 209.16235352 344.88647461 C208.18750504 344.884254 207.21265656 344.88203339 206.20826721 344.87974548 C204.02527884 344.75218415 204.02527884 344.75218415 203 346 Z M293 345 C292.32307067 346.86155567 291.64614321 348.72311202 290.96922302 350.58467102 C290.35179011 352.28258815 289.73432675 353.98049421 289.11683655 355.6783905 C287.35901191 360.51198391 285.60175343 365.34578201 283.84545898 370.17993164 C280.42007022 379.60646622 276.9912203 389.03166059 273.54263306 398.44973755 C272.06821392 402.47694521 270.59639235 406.50509999 269.12475586 410.5333252 C268.4183755 412.46454734 267.7106995 414.39529609 267.00170898 416.32556152 C266.00958218 419.0270533 265.02190878 421.73013521 264.03515625 424.43359375 C263.7410939 425.23065231 263.44703156 426.02771088 263.14405823 426.84892273 C262.74029213 427.95902458 262.74029213 427.95902458 262.32836914 429.09155273 C262.09461075 429.72939194 261.86085236 430.36723114 261.62001038 431.0243988 C260.90523655 433.30195429 260.4681453 435.65927349 260 438 C263.63 438 267.26 438 271 438 C276.61453144 427.96930418 276.61453144 427.96930418 279 417 C297.315 417.495 297.315 417.495 316 418 C319.4375 427.4375 319.4375 427.4375 320.51733398 430.41577148 C320.79907471 431.18477783 321.08081543 431.95378418 321.37109375 432.74609375 C321.8031311 433.93223267 321.8031311 433.93223267 322.24389648 435.14233398 C322.85248918 436.98194412 322.85248918 436.98194412 324 438 C325.85287502 438.07226502 327.70833878 438.0838122 329.5625 438.0625 C331.08037109 438.04896484 331.08037109 438.04896484 332.62890625 438.03515625 C333.41136719 438.02355469 334.19382812 438.01195312 335 438 C328.90737177 419.36639978 322.43560495 400.90712784 315.6875 382.5 C314.79848003 380.06653339 313.90980727 377.63293991 313.02148438 375.19921875 C311.39885532 370.75507765 309.77426059 366.31166724 308.1472168 361.86914062 C306.08951308 356.24922463 304.04271754 350.62537856 302 345 C299.03 345 296.06 345 293 345 Z M353 353 C347.39604666 360.01909307 346.61717878 367.75706929 347.15234375 376.484375 C348.10753674 382.7092282 351.34550888 386.87718421 356 391 C359.67880811 393.49914662 362.82776463 394.59740537 367.18359375 395.4296875 C368.35857422 395.66816406 369.53355469 395.90664063 370.74414062 396.15234375 C373.20115511 396.63309222 375.65950172 397.10708309 378.11914062 397.57421875 C389.64040597 399.93528902 389.64040597 399.93528902 394 405 C396.03022101 409.50999096 396.13620761 413.96141698 395.5 418.8125 C393.13168883 423.84516124 389.94729227 426.18213725 384.875 428.3125 C374.35492695 430.17896457 364.98894199 429.29807757 355.7578125 423.62109375 C354.12876505 422.4729097 352.55628588 421.2450287 351 420 C349.99105628 420.92786789 348.99309093 421.86768433 348 422.8125 C347.443125 423.33457031 346.88625 423.85664063 346.3125 424.39453125 C344.683535 426.04148967 344.683535 426.04148967 345 429 C353.34595838 436.72773924 363.58787615 439.33679241 374.625 439.4375 C375.41245605 439.44765137 376.19991211 439.45780273 377.01123047 439.46826172 C386.27436429 439.33104442 393.32751924 436.72645887 400.046875 430.30078125 C404.89652854 424.58788938 406.74835188 417.94375455 406.375 410.51171875 C405.22749929 402.82585461 402.33097379 397.19940733 396.17578125 392.39453125 C390.25831314 388.60182728 383.76159754 387.75661919 376.9375 386.5625 C370.33425599 385.40565496 364.09549902 384.31196749 359.32421875 379.20703125 C356.87598776 375.12664626 357.51248538 370.60133664 358 366 C359.63892191 361.25575238 361.818906 358.75340336 366 356 C374.10112106 353.37544674 382.40305367 354.59356714 390.0390625 357.9296875 C392 359 392 359 394 361 C396.8966677 360.80688882 398.03210237 359.97235629 400.25 358.0625 C402.21565915 356.19664456 402.21565915 356.19664456 402 354 C387.95105785 343.22829752 367.09652462 340.05421208 353 353 Z M415 346 C415 348.97 415 351.94 415 355 C423.58 355 432.16 355 441 355 C441 382.39 441 409.78 441 438 C444.3 438 447.6 438 451 438 C451 410.61 451 383.22 451 355 C459.58 355 468.16 355 477 355 C477 351.7 477 348.4 477 345 C469.06386213 344.97687236 461.12773824 344.95908277 453.19157505 344.94818783 C449.50685502 344.94295992 445.82215797 344.93586395 442.13745117 344.92456055 C438.58429169 344.91372838 435.03115437 344.90772247 431.47797966 344.90512276 C430.11954334 344.9032691 428.76110829 344.89964962 427.40268135 344.89426994 C425.50617777 344.88705525 423.60965207 344.88659191 421.71313477 344.88647461 C420.63169693 344.884254 419.55025909 344.88203339 418.43605042 344.87974548 C416.05202528 344.7241803 416.05202528 344.7241803 415 346 Z M548 345 C548 375.69 548 406.38 548 438 C551.3 438 554.6 438 558 438 C558 424.8 558 411.6 558 398 C570.87 398 583.74 398 597 398 C597 394.7 597 391.4 597 388 C584.13 388 571.26 388 558 388 C558 377.11 558 366.22 558 355 C573.18 355 588.36 355 604 355 C604 351.7 604 348.4 604 345 C585.52 345 567.04 345 548 345 Z M624 354 C617.15603316 362.7693795 615.84888338 372.30431043 615.83203125 383.20703125 C615.82870285 383.9724675 615.82537445 384.73790375 615.82194519 385.52653503 C615.81691039 387.13755701 615.81453579 388.7485893 615.81469727 390.35961914 C615.81251544 392.79526371 615.79433582 395.2304512 615.77539062 397.66601562 C615.72562009 411.00494602 616.3444322 421.29355307 625.375 431.75 C633.68864694 438.87598309 642.25126193 439.90129937 652.83789062 439.26953125 C660.46497689 438.31872917 667.07060556 433.90289216 671.81640625 428.00390625 C675.05048595 422.52838518 676.54444353 417.4290254 677.1875 411.125 C677.26718018 410.39031494 677.34686035 409.65562988 677.42895508 408.89868164 C678.21962507 400.92149238 678.23591992 393.00455862 678 385 C677.98598145 384.2992334 677.97196289 383.5984668 677.95751953 382.87646484 C677.70480562 371.59291885 676.68884166 360.93890555 668.56640625 352.4296875 C662.11337459 346.53988803 655.34418523 344.531429 646.74609375 344.75390625 C638.00724307 345.5370465 630.23207339 347.56549267 624 354 Z M699 345 C699 375.69 699 406.38 699 438 C702.63 438 706.26 438 710 438 C710 424.47 710 410.94 710 397 C716.93 397.33 723.86 397.66 731 398 C731.70125 399.4746875 732.4025 400.949375 733.125 402.46875 C737.56906253 411.79829661 742.0138029 421.12660281 746.625 430.375 C746.955 431.03951172 747.285 431.70402344 747.625 432.38867188 C749.01638714 435.39447772 749.01638714 435.39447772 751 438 C753.01964199 438.07244053 755.04167124 438.08377188 757.0625 438.0625 C758.16722656 438.05347656 759.27195312 438.04445313 760.41015625 438.03515625 C761.26480469 438.02355469 762.11945312 438.01195312 763 438 C759.6340203 428.775867 755.17444212 420.12094507 750.75 411.375 C749.99702107 409.87909483 749.24441398 408.38300244 748.4921875 406.88671875 C746.66573585 403.25564085 744.83427864 399.62712987 743 396 C743.61053223 395.74895508 744.22106445 395.49791016 744.85009766 395.23925781 C745.65495605 394.89733398 746.45981445 394.55541016 747.2890625 394.203125 C748.08521973 393.86958008 748.88137695 393.53603516 749.70166016 393.19238281 C755.27053536 390.30324042 758.63379094 385.02194942 760.53125 379.16015625 C762.40574415 370.52186237 760.84757234 361.7459539 756.3125 354.1875 C740.70617221 339.42475749 719.83399013 345 699 345 Z M777 345 C778.60079987 355.05632262 781.08818456 364.88298884 783.53515625 374.7578125 C783.97849885 376.55568799 784.42164643 378.35361159 784.86460876 380.15158081 C785.78782904 383.89554662 786.71347656 387.63890152 787.64086914 391.38183594 C788.83153175 396.18822833 790.01588856 400.99614922 791.19846439 405.80453682 C792.10952424 409.50589639 793.02392706 413.20642367 793.93935966 416.90670395 C794.37780427 418.68074443 794.81518059 420.45504928 795.25148201 422.22961807 C795.85833312 424.69576825 796.46967989 427.16075973 797.08227539 429.62548828 C797.3526915 430.73028786 797.3526915 430.73028786 797.62857056 431.85740662 C798.25679844 435.20767696 798.25679844 435.20767696 800 438 C801.51928038 438.07179964 803.04167482 438.08392007 804.5625 438.0625 C805.38878906 438.05347656 806.21507812 438.04445313 807.06640625 438.03515625 C807.70449219 438.02355469 808.34257813 438.01195312 809 438 C815.75523174 415.45084617 821.84860337 392.71938061 828 370 C830.11027723 373.16541585 830.81435992 375.53569973 831.77172852 379.19970703 C832.01847321 380.13429749 832.01847321 380.13429749 832.27020264 381.08776855 C832.81158541 383.14313594 833.3451283 385.20045839 833.87890625 387.2578125 C834.25420682 388.68618001 834.63010519 390.11439057 835.00657654 391.54244995 C835.99564916 395.29896212 836.97855685 399.05705627 837.95959473 402.81567383 C839.53225625 408.83948647 841.11121871 414.86163021 842.69590569 420.88228989 C843.24905812 422.98934511 843.79773389 425.09753187 844.34608459 427.20584106 C844.67990646 428.47741058 845.01372833 429.7489801 845.35766602 431.05908203 C845.65141617 432.18476593 845.94516632 433.31044983 846.24781799 434.47024536 C846.75614172 436.91489289 846.75614172 436.91489289 848 438 C849.51928038 438.07179964 851.04167482 438.08392007 852.5625 438.0625 C853.34616943 438.0514624 854.12983887 438.0404248 854.93725586 438.02905273 C855.61796143 438.01946533 856.29866699 438.00987793 857 438 C860.28032218 427.74966532 863.06660704 417.40708555 865.765625 406.9921875 C866.20816488 405.29155691 866.65085565 403.59096558 867.09368896 401.89041138 C868.01328789 398.35615133 868.93073733 394.82134219 869.84667969 391.28613281 C871.02131347 386.75339576 872.20195228 382.22224692 873.38422012 377.6914959 C874.29612189 374.19382012 875.20462471 370.69526842 876.11211395 367.19644547 C876.54639303 365.52397897 876.98179549 363.85180376 877.41834259 362.17992783 C878.02491083 359.85505568 878.62683215 357.52902914 879.22753906 355.20263672 C879.40826965 354.51383926 879.58900024 353.82504181 879.77520752 353.1153717 C880.493637 350.31585201 881 347.90528128 881 345 C877.37 345 873.74 345 870 345 C867.30348133 354.151798 864.89397858 363.31431705 862.765625 372.6171875 C862.48273621 373.84035675 862.19984741 375.063526 861.90838623 376.32376099 C861.0188677 380.17340122 860.13434381 384.02416812 859.25 387.875 C858.64266834 390.50928587 858.03423846 393.14331766 857.42578125 395.77734375 C855.94671874 402.18402411 854.47173837 408.59163341 853 415 C846.53119124 391.70254146 840.24242351 368.35902446 834 345 C830.7 345 827.4 345 824 345 C817.73 368.1 811.46 391.2 805 415 C800.70598058 397.21049098 796.46549015 379.44008952 792.53613281 361.57226562 C791.96725036 358.9901975 791.39401985 356.4091246 790.8203125 353.828125 C790.65056915 353.04930969 790.48082581 352.27049438 790.30593872 351.46807861 C789.76364277 347.94054707 789.76364277 347.94054707 788 345 C786.14712498 344.92773498 784.29166122 344.9161878 782.4375 344.9375 C781.477229 344.9485376 780.51695801 344.9595752 779.52758789 344.97094727 C778.27643188 344.98532837 778.27643188 344.98532837 777 345 Z M917 345 C910.19067284 362.86720887 903.6895434 380.84314835 897.20532227 398.83032227 C896.85335281 399.80617783 896.50138336 400.78203339 896.13874817 401.78746033 C895.44201424 403.71958752 894.74586882 405.65192703 894.05033875 407.58448792 C892.36559893 412.2568561 890.66235018 416.92095038 888.91894531 421.57177734 C888.59141266 422.44807297 888.26388 423.32436859 887.92642212 424.22721863 C887.30945574 425.87346332 886.68840779 427.51818621 886.06259155 429.16108704 C884.91013688 432.23822493 884 434.6852344 884 438 C887.3 438 890.6 438 894 438 C894.7727205 436.16746128 895.54306961 434.33392258 896.3125 432.5 C896.74175781 431.4790625 897.17101563 430.458125 897.61328125 429.40625 C899.14926487 425.63335501 900.56967366 421.81420357 902 418 C914.54 417.67 927.08 417.34 940 417 C940.99 420.3 941.98 423.6 943 427 C943.70753963 429.04926194 944.43198855 431.09293473 945.1875 433.125 C945.785625 434.73375 946.38375 436.3425 947 438 C950.63 438 954.26 438 958 438 C957.31708373 432.2048642 955.37646314 426.9843667 953.421875 421.5234375 C953.0584903 420.49604965 952.69510559 419.4686618 952.32070923 418.41014099 C951.13539859 415.06332331 949.94285882 411.71913402 948.75 408.375 C947.93408088 406.07653195 947.11849026 403.77794727 946.30322266 401.47924805 C939.60933333 382.62629346 932.8389908 363.8007867 926 345 C923.03 345 920.06 345 917 345 Z M1062 345 C1062 375.69 1062 406.38 1062 438 C1089.84393919 440.55828543 1089.84393919 440.55828543 1115 430 C1124.66021087 419.96655371 1124.51180275 407.34843055 1124.44604492 394.22167969 C1124.43753803 391.63655773 1124.46637393 389.05365486 1124.49804688 386.46875 C1124.55008054 374.34955826 1124.09204821 361.82545881 1115.0546875 352.65234375 C1099.97096163 340.52227523 1080.48841435 345 1062 345 Z M978 346 C978 376.69 978 407.38 978 439 C981.3 439 984.6 439 988 439 C988 425.47 988 411.94 988 398 C994.93 398.33 1001.86 398.66 1009 399 C1010.155 401.475 1011.31 403.95 1012.5 406.5 C1015.3510166 412.57467645 1018.25584683 418.61951878 1021.25 424.625 C1021.56646484 425.26244141 1021.88292969 425.89988281 1022.20898438 426.55664062 C1024.33307575 430.79146431 1026.61998274 434.90342161 1029 439 C1032.96 439 1036.92 439 1041 439 C1039.6972856 434.823799 1038.11874965 431.01090448 1036.13671875 427.11328125 C1035.57919922 426.00919922 1035.02167969 424.90511719 1034.44726562 423.76757812 C1033.86654297 422.62740234 1033.28582031 421.48722656 1032.6875 420.3125 C1028.61024481 412.2826622 1024.64814362 404.23503332 1021 396 C1021.86625 395.9175 1022.7325 395.835 1023.625 395.75 C1028.8685074 394.58477613 1031.9541558 392.33635647 1035.25 388.125 C1039.65849121 380.25269428 1040.35225022 371.91913121 1038.34765625 363.14453125 C1035.73767866 355.74026006 1031.50328594 351.99206455 1024.8125 348.1875 C1010.00850395 341.93692389 994.61544938 346 978 346 Z M479 425 C479 429.29 479 433.58 479 438 C482.96 438 486.92 438 491 438 C491 433.71 491 429.42 491 425 C487.04 425 483.08 425 479 425 Z M1140 425 C1140 429.29 1140 433.58 1140 438 C1143.96 438 1147.92 438 1152 438 C1152 433.71 1152 429.42 1152 425 C1148.04 425 1144.08 425 1140 425 Z " fill="#000000" transform="translate(223,0)"/>
<path d="M0 0 C23.1 0 46.2 0 70 0 C71.8876163 5.6628489 73.45725998 10.53765808 74.5703125 16.2734375 C74.69687225 16.92269196 74.82343201 17.57194641 74.9538269 18.24087524 C75.21713072 19.59979227 75.47746056 20.9592888 75.73486328 22.31933594 C76.12323445 24.36569716 76.52380885 26.40939719 76.92578125 28.453125 C78.37728457 35.9488161 79.5168298 43.37553415 80 51 C77.16947051 49.65312362 74.62237458 48.13754983 72.05078125 46.34765625 C71.2942627 45.82429688 70.53774414 45.3009375 69.75830078 44.76171875 C68.95118652 44.20097656 68.14407227 43.64023437 67.3125 43.0625 C47.33123367 29.29754305 26.81635633 16.27444863 5.68798828 4.33789062 C3.77706313 3.25110075 1.88602071 2.12945697 0 1 C0 0.67 0 0.34 0 0 Z " fill="#000000" transform="translate(144,11)"/>
<path d="M0 0 C25.99980547 10.03845801 51.38372813 27.91178415 74 44 C74.83402344 44.58894043 75.66804688 45.17788086 76.52734375 45.78466797 C79.06494715 47.5786391 81.59647232 49.3807639 84.125 51.1875 C85.29119873 52.01749512 85.29119873 52.01749512 86.48095703 52.86425781 C87.54612549 53.63334473 87.54612549 53.63334473 88.6328125 54.41796875 C89.26074707 54.86938232 89.88868164 55.3207959 90.53564453 55.78588867 C92 57 92 57 93 59 C92.02691895 59.18997559 91.05383789 59.37995117 90.05126953 59.57568359 C57.78842974 65.92087145 26.81273995 74.45587895 -4.01513672 85.89355469 C-8.66846589 87.61847599 -13.33454305 89.30821382 -18 91 C-17.51100255 80.0984268 -15.8988253 69.63964364 -13.875 58.9375 C-13.64556702 57.70549866 -13.64556702 57.70549866 -13.41149902 56.4486084 C-9.8612638 37.42784832 -5.76103094 18.48720018 0 0 Z " fill="#000000" transform="translate(124,15)"/>
<path d="M0 0 C4.95728927 3.19071994 9.56239154 6.72362529 14.1875 10.375 C20.65141293 15.44342454 27.18498618 20.39753401 33.8125 25.25 C39.44571711 29.3789934 45.07075828 33.51505747 50.625 37.75 C51.64851563 38.52859375 52.67203125 39.3071875 53.7265625 40.109375 C56 42 56 42 57 44 C51.1289617 44.71663109 45.2573804 45.42857135 39.38525391 46.13623047 C37.38900513 46.3774641 35.3929089 46.61996358 33.39697266 46.86376953 C30.52285605 47.21462084 27.64821598 47.56086915 24.7734375 47.90625 C23.44184097 48.07030334 23.44184097 48.07030334 22.08334351 48.2376709 C17.69217518 48.76071092 13.43254233 49.12682525 9 49 C7.18905279 41.24879601 5.7542683 33.43745336 4.34057617 25.60644531 C3.93706938 23.37261608 3.53025524 21.1394071 3.12304688 18.90625 C1.98167044 12.61505901 0.87143085 6.33461232 0 0 Z " fill="#000000" transform="translate(229,20)"/>
<path d="M0 0 C1.11063338 3.34490973 0.86527659 5.49264674 -0.00390625 8.8828125 C-0.36887207 10.36128662 -0.36887207 10.36128662 -0.74121094 11.86962891 C-1.01223633 12.94390137 -1.28326172 14.01817383 -1.5625 15.125 C-4.16708968 25.9055354 -6.33466987 36.70441515 -8.25 47.625 C-8.37424347 48.32417542 -8.49848694 49.02335083 -8.62649536 49.74371338 C-10.21883885 58.73401468 -11.50442778 67.70174444 -12.46386719 76.78271484 C-13 80 -13 80 -15 83 C-31.95612704 71.94402117 -47.72659372 60.4413287 -62 46 C-52.54365854 38.70593174 -43.05513166 31.48070915 -33.38671875 24.46875 C-29.07572797 21.33348398 -24.78948039 18.16459032 -20.5 15 C-13.68578858 9.9732982 -6.8601233 4.96395439 0 0 Z " fill="#000000" transform="translate(108,23)"/>
<path d="M0 0 C1.94708899 3.50504019 2.9860238 7.09081956 4.07885742 10.93994141 C4.27582718 11.62981644 4.47279694 12.31969147 4.67573547 13.0304718 C5.3232216 15.30298803 5.96466659 17.57715319 6.60546875 19.8515625 C7.05326627 21.43293279 7.50121044 23.01426157 7.94929504 24.59555054 C8.88594004 27.9050303 9.81933303 31.21540751 10.75073242 34.52636719 C11.94694676 38.77688897 13.15348311 43.02440406 14.36272717 47.27123451 C15.28987873 50.53310577 16.21044263 53.79680848 17.12911415 57.06107712 C17.57138549 58.62867639 18.01599265 60.19561854 18.46294212 61.76189041 C19.08528317 63.94567492 19.69846162 66.13182966 20.30932617 68.31884766 C20.66081223 69.56364899 21.01229828 70.80845032 21.37443542 72.0909729 C22 75 22 75 21 77 C19.1444613 75.00125881 17.29055876 73.00103842 15.4375 71 C14.92380859 70.44699219 14.41011719 69.89398438 13.88085938 69.32421875 C11.19057016 66.41670121 8.55500512 63.48201915 5.98828125 60.46484375 C0.83164228 54.54813657 -4.76656067 49.04743385 -10.31396484 43.50073242 C-12.23696182 41.57555298 -14.15180574 39.64250969 -16.06640625 37.70898438 C-23.07484705 30.66907397 -30.19946601 24.16135192 -38 18 C-39.86879509 16.40848122 -41.68402976 14.77753292 -43.5 13.125 C-44.2940625 12.40570313 -45.088125 11.68640625 -45.90625 10.9453125 C-47.64441332 9.33037717 -49.32850363 7.68282249 -51 6 C-49.73929688 5.85377197 -48.47859375 5.70754395 -47.1796875 5.55688477 C-42.47570742 5.01117883 -37.77178141 4.46500807 -33.06787109 3.91870117 C-31.0369612 3.68289841 -29.00603692 3.44721954 -26.97509766 3.21166992 C-24.04585993 2.87191282 -21.11667526 2.53170142 -18.1875 2.19140625 C-16.83857666 2.03509483 -16.83857666 2.03509483 -15.46240234 1.87562561 C-10.3048349 1.27594006 -5.15125265 0.6517591 0 0 Z " fill="#000000" transform="translate(299,74)"/>
<path d="M0 0 C1.33897583 0.95043374 2.67105427 1.91059147 4 2.875 C4.7425 3.40867187 5.485 3.94234375 6.25 4.4921875 C7.11625 5.23855469 7.11625 5.23855469 8 6 C8 6.66 8 7.32 8 8 C8.53625 8.23074219 9.0725 8.46148437 9.625 8.69921875 C12.71011195 10.38892645 15.29423937 12.5880337 18 14.8125 C24.8496444 20.35284679 32.1253625 25.10292046 39.59765625 29.7590332 C40.42910156 30.28327881 41.26054688 30.80752441 42.1171875 31.34765625 C42.86597168 31.81179932 43.61475586 32.27594238 44.38623047 32.75415039 C44.91877441 33.16528076 45.45131836 33.57641113 46 34 C46 34.66 46 35.32 46 36 C45.48953125 36.25467041 44.9790625 36.50934082 44.453125 36.77172852 C23.65649533 47.22304894 3.99483477 59.08432256 -14.21533203 73.61035156 C-17.07598026 75.83782211 -20.03387251 77.9156942 -23 80 C-20.4599483 69.57868489 -17.71419574 59.24334661 -14.70703125 48.9453125 C-14.3113747 47.58297569 -13.91592733 46.22057811 -13.52067566 44.85812378 C-12.70323519 42.04272595 -11.88379854 39.22792018 -11.06274414 36.41357422 C-10.01026211 32.80559449 -8.96226089 29.19633116 -7.91560841 25.58665657 C-7.10470176 22.79134255 -6.29186826 19.99659188 -5.47839928 17.20202255 C-5.09074579 15.86968696 -4.7036069 14.53720153 -4.31699562 13.20456314 C-3.78070581 11.35733642 -3.24161912 9.51092237 -2.70239258 7.66455078 C-2.39690994 6.61582794 -2.09142731 5.5671051 -1.77668762 4.48660278 C-1 2 -1 2 0 0 Z " fill="#000000" transform="translate(40,80)"/>
<path d="M0 0 C4.29797876 32.08411001 5.31195422 63.68634188 5 96 C1.33806628 94.67586747 -1.56504939 93.05247094 -4.70703125 90.76171875 C-29.81257918 72.8172582 -57.77642249 59.76374493 -85.92703247 47.3870697 C-88.59570371 46.2135192 -91.26190907 45.03440773 -93.92840576 43.85592651 C-95.83526449 43.01747189 -97.74669786 42.19018896 -99.65869141 41.36352539 C-100.82062012 40.85168701 -101.98254883 40.33984863 -103.1796875 39.8125 C-104.72245361 39.14154297 -104.72245361 39.14154297 -106.29638672 38.45703125 C-109.07785885 36.95804031 -110.90024778 35.34099501 -113 33 C-31.33826367 0 -31.33826367 0 0 0 Z " fill="#000000" transform="translate(228,82)"/>
<path d="M0 0 C0.81404297 0.61488281 0.81404297 0.61488281 1.64453125 1.2421875 C2.35996094 1.78101562 3.07539063 2.31984375 3.8125 2.875 C4.52019531 3.40867187 5.22789062 3.94234375 5.95703125 4.4921875 C7.60456297 5.70814781 9.29624211 6.86416141 11 8 C11 8.66 11 9.32 11 10 C11.88510254 10.40182495 11.88510254 10.40182495 12.78808594 10.81176758 C15.02184458 12.01173483 16.56273425 13.26612013 18.390625 15.01171875 C19.33228516 15.90213867 19.33228516 15.90213867 20.29296875 16.81054688 C20.93878906 17.42994141 21.58460938 18.04933594 22.25 18.6875 C26.04770879 22.30270131 29.84351792 25.89056989 33.82421875 29.3046875 C38.97326562 33.77517295 43.75319771 38.60760113 48.5625 43.4375 C49.9227832 44.79198242 49.9227832 44.79198242 51.31054688 46.17382812 C55.86860414 50.73849606 60.29551977 55.35437269 64.49584961 60.25073242 C66.60376208 62.70215149 68.80425811 65.06479865 71 67.4375 C83 80.5934633 83 80.5934633 83 83 C81.97567871 83.12528076 80.95135742 83.25056152 79.89599609 83.37963867 C61.02824179 85.69726416 42.21028885 88.11042828 23.48193359 91.38745117 C17.32637359 92.46447595 11.22040993 93.3924865 5 94 C4.43588129 85.57422692 4.0096373 77.15415164 3.81640625 68.7109375 C3.29035458 45.74308271 1.79244828 22.90219425 0 0 Z " fill="#000000" transform="translate(240,90)"/>
<path d="M0 0 C8.3840625 -0.0928125 8.3840625 -0.0928125 16.9375 -0.1875 C18.68281006 -0.21481201 20.42812012 -0.24212402 22.22631836 -0.27026367 C39.82582716 -0.43209767 39.82582716 -0.43209767 46.8125 5.3125 C52.95182976 12.85510513 54.91545182 18.35552169 54 28 C52.28333536 34.39580197 49.4715147 38.35232353 44 42 C38.52270572 44.80676847 34.32918364 45.41578916 28.22265625 45.29296875 C27.50235229 45.28994751 26.78204834 45.28692627 26.03991699 45.28381348 C23.38062967 45.26826209 20.72154857 45.22637934 18.0625 45.1875 C12.101875 45.125625 6.14125 45.06375 0 45 C0 30.15 0 15.3 0 0 Z " fill="#000000" transform="translate(1031,119)"/>
<path d="M0 0 C8.3840625 -0.0928125 8.3840625 -0.0928125 16.9375 -0.1875 C18.68281006 -0.21481201 20.42812012 -0.24212402 22.22631836 -0.27026367 C31.28574117 -0.35305813 38.90454111 -0.28374017 46.8125 4.8125 C52.55353182 10.55353182 54.13481892 15.35721931 54.3125 23.25 C54.23498419 29.01846852 53.84458732 33.52481899 50 38 C43.27571902 43.53478723 38.04341482 45.15261238 29.39453125 45.09765625 C28.65054077 45.09664917 27.90655029 45.09564209 27.14001465 45.09460449 C24.36416073 45.08937743 21.58832879 45.07541615 18.8125 45.0625 C9.5003125 45.0315625 9.5003125 45.0315625 0 45 C0 30.15 0 15.3 0 0 Z " fill="#000000" transform="translate(1188,119)"/>
<path d="M0 0 C4.46315301 1.45630483 8.73021188 3.13689035 12.99609375 5.08984375 C13.98848053 5.54016716 13.98848053 5.54016716 15.00091553 5.99958801 C17.14804228 6.97542514 19.29291401 7.95609293 21.4375 8.9375 C22.54238266 9.44162415 22.54238266 9.44162415 23.66958618 9.95593262 C35.61478755 15.4069558 47.51842659 20.93783255 59.3203125 26.69384766 C61.13874543 27.58020117 62.95913069 28.46255829 64.78125 29.34130859 C84.67649158 38.94697992 103.16055436 49.96703712 121 63 C117.89673681 64.70828121 114.94839552 65.60733125 111.50390625 66.41015625 C110.40280518 66.67296387 109.3017041 66.93577148 108.16723633 67.20654297 C106.97767334 67.48900879 105.78811035 67.77147461 104.5625 68.0625 C73.47204028 75.65893499 43.33861843 86.15585821 13.94165039 98.77075195 C9.64820793 100.56488282 5.32354195 102.27990741 1 104 C-0.97083054 85.68544488 -1.28291437 67.48779222 -1.19561768 49.09484863 C-1.18472868 46.20099625 -1.18515188 43.30719084 -1.18575573 40.4133215 C-1.18548088 37.5690229 -1.1799522 34.72475335 -1.17275429 31.88046455 C-1.16815287 29.918355 -1.16631708 27.95623956 -1.16459656 25.99412537 C-1.11917784 17.28925317 -0.66917609 8.67587834 0 0 Z " fill="#000000" transform="translate(104,126)"/>
<path d="M0 0 C-0.00222061 0.86934174 -0.00444122 1.73868347 -0.00672913 2.6343689 C-0.02703243 10.95560544 -0.04212366 19.2768333 -0.05181217 27.59808922 C-0.05696102 31.87285826 -0.06390684 36.14760632 -0.07543945 40.42236328 C-0.12771428 60.30819328 -0.01702323 80.13361085 1 100 C-4.58455005 96.9869954 -9.9564287 93.82225007 -15.18359375 90.2265625 C-16.52441727 89.31650086 -17.86557656 88.40693376 -19.20703125 87.49780273 C-20.2427124 86.79383865 -20.2427124 86.79383865 -21.29931641 86.07565308 C-36.16570392 75.98953566 -51.27573024 66.69415284 -67 58 C-68.73967338 57.03271402 -70.47926402 56.0652792 -72.21875 55.09765625 C-73.47905765 54.39824102 -74.73942888 53.69894026 -76 53 C-74.05737381 48.68503962 -71.04875707 46.08534707 -67.5 43.0625 C-66.83564941 42.49402344 -66.17129883 41.92554688 -65.48681641 41.33984375 C-16.44128042 0 -16.44128042 0 0 0 Z " fill="#000000" transform="translate(92,126)"/>
<path d="M0 0 C2.24095803 3.36143704 3.36962904 6.73365212 4.609375 10.53515625 C4.8586676 11.2872789 5.10796021 12.03940155 5.36480713 12.8143158 C6.16411419 15.22899947 6.95718747 17.64567714 7.75 20.0625 C8.26781004 21.6309978 8.78603538 23.19935857 9.3046875 24.76757812 C10.08266227 27.12052735 10.85973492 29.47375112 11.63366699 31.82803345 C12.98338259 35.9334272 14.34539545 40.03414518 15.72851562 44.12841797 C16.0071344 44.95538681 16.28575317 45.78235565 16.57281494 46.63438416 C17.1075575 48.21950534 17.64469101 49.80382246 18.18450928 51.38722229 C20 56.7773868 20 56.7773868 20 59 C6.8 59 -6.4 59 -20 59 C-7.75203619 21.15516801 -7.75203619 21.15516801 -3.8125 9.25 C-3.53398193 8.40155518 -3.25546387 7.55311035 -2.96850586 6.67895508 C-1.11802759 1.11802759 -1.11802759 1.11802759 0 0 Z " fill="#000000" transform="translate(897,143)"/>
<path d="M0 0 C1.29292969 0.00902344 2.58585937 0.01804688 3.91796875 0.02734375 C4.87316406 0.03894531 5.82835937 0.05054688 6.8125 0.0625 C5.47010919 6.46925542 3.8024443 12.66530286 1.8359375 18.90625 C1.54926208 19.82602127 1.26258667 20.74579254 0.96722412 21.69343567 C0.04430148 24.6509464 -0.88394403 27.60675363 -1.8125 30.5625 C-2.44700626 32.59131839 -3.08128289 34.62020862 -3.71533203 36.64916992 C-8.14439591 50.80659258 -12.61504569 64.95065937 -17.1875 79.0625 C-19.98868 75.93810693 -21.9998101 72.67539132 -23.95703125 68.9921875 C-27.25518717 62.81784104 -30.98478441 57.00292997 -34.875 51.1875 C-35.57616943 50.13755859 -36.27733887 49.08761719 -36.99975586 48.00585938 C-42.27481506 40.20526823 -47.85336712 33.02472337 -54.1875 26.0625 C-55.43932905 24.60573641 -56.68954307 23.14758206 -57.9375 21.6875 C-60.76627537 18.45461386 -63.78093786 15.45771257 -66.90234375 12.5078125 C-68.1875 11.0625 -68.1875 11.0625 -68.1875 9.0625 C-58.66332339 6.62823933 -49.1617208 5.05834084 -39.43017578 3.75488281 C-37.05797544 3.43689349 -34.68716445 3.10980218 -32.31640625 2.78125 C-21.55619416 1.30329733 -10.88114957 -0.09982706 0 0 Z " fill="#000000" transform="translate(320.1875,186.9375)"/>
<path d="M0 0 C5.78615867 1.60042687 10.6564898 4.44977372 15.8125 7.4375 C17.20202881 8.23776611 17.20202881 8.23776611 18.61962891 9.05419922 C27.27416643 14.0817622 35.67319565 19.4508425 44 25 C45.3215546 25.87639254 46.64316862 26.75269549 47.96484375 27.62890625 C50.47144852 29.29357152 52.97373361 30.96445258 55.47265625 32.640625 C57.80586648 34.20508966 60.14676585 35.75672323 62.49609375 37.296875 C64.10677734 38.35648438 64.10677734 38.35648438 65.75 39.4375 C66.69359375 40.05496094 67.6371875 40.67242187 68.609375 41.30859375 C70.6581484 42.75813441 72.26501828 44.20887914 74 46 C73.26064209 46.39940796 73.26064209 46.39940796 72.50634766 46.80688477 C63.32240327 51.7867902 54.43166442 56.80863289 46 63 C43.79478796 64.52565218 41.58676364 66.04643771 39.375 67.5625 C34.97843138 70.5849008 30.67521127 73.69560394 26.48828125 77.00390625 C25 78 25 78 23 78 C20.88606385 71.17462533 18.77310963 64.34894744 16.66129875 57.52291489 C15.67992546 54.35091074 14.69815931 51.17902952 13.71582031 48.00732422 C11.13504449 39.67425651 8.56279135 31.3386163 6 23 C5.67874146 21.95690674 5.35748291 20.91381348 5.02648926 19.83911133 C4.16135928 17.02436841 3.30213529 14.20790602 2.4453125 11.390625 C2.19329071 10.57253357 1.94126892 9.75444214 1.68161011 8.91156006 C0.75419592 5.84206383 0 3.22567083 0 0 Z " fill="#000000" transform="translate(16,193)"/>
<path d="M0 0 C0.27775588 12.26755125 -0.56131766 24.34708675 -1.625 36.5625 C-1.75455078 38.07627731 -1.75455078 38.07627731 -1.88671875 39.62063599 C-4.55869842 70.54898224 -8.41651289 101.45504109 -14 132 C-17.66434951 130.28974534 -19.9345589 128.24002076 -22.75 125.3125 C-26.39372879 121.58863055 -30.11404232 118.09521681 -34.0703125 114.7109375 C-36.13308521 112.88200137 -38.0659072 110.96419542 -40 109 C-43.08245505 105.87589016 -46.27509772 102.97298912 -49.6015625 100.11328125 C-52.79147009 97.30262977 -55.89254498 94.40119171 -59 91.5 C-63.9260688 86.90952085 -68.87409658 82.36791401 -74 78 C-74.99644531 77.14792969 -75.99289063 76.29585938 -77.01953125 75.41796875 C-83.58447629 69.82216234 -90.22192271 64.33699048 -97 59 C-97.54301758 58.57187012 -98.08603516 58.14374023 -98.64550781 57.70263672 C-105.74279066 52.10828483 -112.85742066 46.53644377 -120 41 C-117.1404204 38.70919256 -114.3510529 37.11371852 -111.00390625 35.6328125 C-110.02953613 35.20129883 -109.05516602 34.76978516 -108.05126953 34.32519531 C-107.04435059 33.88788086 -106.03743164 33.45056641 -105 33 C-104.05108887 32.58588867 -103.10217773 32.17177734 -102.12451172 31.74511719 C-28.40309577 0 -28.40309577 0 0 0 Z " fill="#000000" transform="translate(233,200)"/>
<path d="M0 0 C20.86788935 17.46088701 34.72652854 40.55081966 48 64 C48.4424707 64.75812988 48.88494141 65.51625977 49.34082031 66.29736328 C50.5078125 68.41015625 50.5078125 68.41015625 52 72 C50.87692405 75.43784419 48.99526501 77.03765895 46.10546875 79.1015625 C45.32147705 79.66891113 44.53748535 80.23625977 43.72973633 80.82080078 C42.47132935 81.71387939 42.47132935 81.71387939 41.1875 82.625 C39.4445355 83.88434197 37.70234963 85.14476228 35.9609375 86.40625 C35.10854492 87.02113281 34.25615234 87.63601563 33.37792969 88.26953125 C30.31153454 90.50101059 27.30891929 92.80032207 24.3125 95.125 C12.03588819 104.63198329 -0.45870041 113.84629283 -13 123 C-14.50734224 118.99253307 -13.60979652 115.21614521 -12.92578125 111.125 C-12.66953178 109.5027086 -12.41343512 107.88039305 -12.1574707 106.25805664 C-12.01959137 105.40245148 -11.88171204 104.54684631 -11.73965454 103.66531372 C-9.46973001 89.50167872 -7.39352483 75.32030105 -5.8125 61.0625 C-5.73338379 60.34934631 -5.65426758 59.63619263 -5.57275391 58.90142822 C-3.97679285 44.27411608 -2.91877418 29.60272665 -1.95043945 14.92211914 C-1.89327759 14.07312546 -1.83611572 13.22413177 -1.77722168 12.34941101 C-1.67042477 10.75275552 -1.56737129 9.15584383 -1.46862793 7.55867004 C-1.1114863 2.2229726 -1.1114863 2.2229726 0 0 Z " fill="#000000" transform="translate(244,207)"/>
<path d="M0 0 C1.34451809 6.20888306 2.39353215 12.42202024 3.296875 18.70703125 C3.41220078 19.50808289 3.52752655 20.30913452 3.64634705 21.13446045 C3.88891388 22.82225997 4.13129525 24.51008616 4.37350464 26.19793701 C6.51957006 41.10123676 8.96748796 55.84585288 12.25878906 70.54223633 C12.62375488 72.18808716 12.62375488 72.18808716 12.99609375 73.8671875 C13.21450928 74.81706543 13.4329248 75.76694336 13.65795898 76.74560547 C14 79 14 79 13 81 C11.63681641 79.89205078 11.63681641 79.89205078 10.24609375 78.76171875 C3.14325084 73.018162 -4.03704436 67.43931305 -11.43505859 62.08129883 C-16.36044907 58.50206169 -21.15459916 54.77806929 -25.92626953 50.99731445 C-33.7858937 44.77744383 -41.80598683 38.77305473 -50 33 C-40.30914798 23.03276004 -14.43389141 0 0 0 Z " fill="#000000" transform="translate(96,249)"/>
<path d="M0 0 C10.62529152 7.86271573 20.9805392 16.0074189 30.96606445 24.66748047 C34.35784117 27.60698866 37.79761523 30.45720636 41.3125 33.25 C47.08517824 37.92638327 52.44059169 43.02474552 57.81176758 48.15332031 C61.78700861 51.94567874 65.82880245 55.62385713 69.97973633 59.22265625 C73.56493955 62.37676857 77.02875555 65.65910246 80.5 68.9375 C81.20769531 69.60201172 81.91539062 70.26652344 82.64453125 70.95117188 C93.16147435 80.86247749 93.16147435 80.86247749 97 85 C97 85.33 97 85.66 97 86 C69.94 86 42.88 86 15 86 C8.0366977 56.98624043 8.0366977 56.98624043 5.8125 44.6875 C5.56308748 43.32867645 5.31357382 41.96987146 5.06396484 40.61108398 C3.66495686 32.94277148 2.32308835 25.26492153 1.125 17.5625 C1.00487549 16.80735107 0.88475098 16.05220215 0.76098633 15.27416992 C0.00606817 10.14387924 -0.09195465 5.18522036 0 0 Z " fill="#000000" transform="translate(109,253)"/>
<path d="M0 0 C5.73329758 3.20390159 9.36332787 7.18956968 11.8125 13.3125 C13.01296452 20.18510753 13.03377749 27.01148573 13.05273438 33.96313477 C13.062429 36.10928281 13.09351103 38.25446682 13.125 40.40039062 C13.21026294 51.25544801 12.52955914 60.54475993 4.703125 68.68359375 C0.88743414 71.97107947 -2.57026087 73.13607391 -7.625 73.6875 C-14.83115397 72.92895748 -20.07335678 70.42664322 -25.1875 65.3125 C-28.9760582 59.04178298 -29.35016798 53.23691244 -29.390625 46.046875 C-29.39632507 45.25404114 -29.40202515 44.46120728 -29.40789795 43.64434814 C-29.4173179 41.97010622 -29.42386995 40.295846 -29.42773438 38.62158203 C-29.43741557 36.08462429 -29.46845675 33.54848588 -29.5 31.01171875 C-29.62209353 12.48970834 -29.62209353 12.48970834 -23.875 5.5 C-16.46292423 -0.53308493 -9.24806203 -4.34378671 0 0 Z " fill="#000000" transform="translate(878.1875,355.6875)"/>
<path d="M0 0 C6.6825 -0.12375 6.6825 -0.12375 13.5 -0.25 C15.58344727 -0.30462402 15.58344727 -0.30462402 17.70898438 -0.36035156 C24.96617519 -0.42526008 29.90028353 -0.05913743 36 4 C39.57512699 8.12514653 40.90753746 11.54471032 41 17 C40.11480322 21.6218239 38.93686143 25.03848432 35.625 28.4375 C30.74712001 31.34099999 27.08393483 32.24734187 21.38671875 32.1953125 C20.26225342 32.19031738 19.13778809 32.18532227 17.97924805 32.18017578 C16.56297119 32.16196777 15.14669434 32.14375977 13.6875 32.125 C9.170625 32.08375 4.65375 32.0425 0 32 C0 21.44 0 10.88 0 0 Z " fill="#000000" transform="translate(933,355)"/>
<path d="M0 0 C28.31753555 0 28.31753555 0 34.0234375 4.6484375 C41.20663354 13.82465903 41.18662106 22.88767884 41.18530273 34.20288086 C41.1874831 36.29627002 41.20565773 38.38912607 41.22460938 40.48242188 C41.30493281 59.25393969 41.30493281 59.25393969 35 67 C25.07736762 76.40038857 13.80856951 73 0 73 C0 48.91 0 24.82 0 0 Z " fill="#000000" transform="translate(1295,355)"/>
<path d="M0 0 C6.991875 -0.0928125 6.991875 -0.0928125 14.125 -0.1875 C15.58437988 -0.21481201 17.04375977 -0.24212402 18.54736328 -0.27026367 C19.70993652 -0.27775635 20.87250977 -0.28524902 22.0703125 -0.29296875 C23.25383301 -0.3086792 24.43735352 -0.32438965 25.65673828 -0.34057617 C30.03034994 0.10496116 33.38376774 1.5258119 36.64453125 4.5 C40.51608462 9.47216218 41.41918322 12.7122517 41 19 C39.33236419 24.17844803 37.59004726 27.04925533 33 30 C29.00328668 31.94134746 25.81079141 32.23571499 21.38671875 32.1953125 C20.26225342 32.19031738 19.13778809 32.18532227 17.97924805 32.18017578 C16.56297119 32.16196777 15.14669434 32.14375977 13.6875 32.125 C9.170625 32.08375 4.65375 32.0425 0 32 C0 21.44 0 10.88 0 0 Z " fill="#000000" transform="translate(1211,356)"/>
<path d="M0 0 C1.70303853 2.5545578 2.5650087 4.32027091 3.51220703 7.16430664 C3.93241623 8.41559105 3.93241623 8.41559105 4.3611145 9.69215393 C4.65702484 10.5890947 4.95293518 11.48603546 5.2578125 12.41015625 C5.56572723 13.33340195 5.87364197 14.25664764 6.19088745 15.20787048 C6.84019296 17.15812621 7.48728457 19.10912022 8.13232422 21.06079102 C9.12289112 24.05612304 10.12144393 27.04870426 11.12109375 30.04101562 C11.750476 31.9347377 12.37939804 33.8286128 13.0078125 35.72265625 C13.3077713 36.62162125 13.6077301 37.52058624 13.91677856 38.4467926 C14.19061371 39.27783005 14.46444885 40.10886749 14.74658203 40.96508789 C14.98925812 41.69772354 15.2319342 42.43035919 15.48196411 43.18519592 C16 45 16 45 16 47 C5.44 47 -5.12 47 -16 47 C-5.04328018 13.98177677 -5.04328018 13.98177677 0 0 Z " fill="#000000" transform="translate(521,361)"/>
<path d="M0 0 C2.10730069 3.8138912 3.38964686 7.8987187 4.75 12.01953125 C5.0087793 12.79632736 5.26755859 13.57312347 5.53417969 14.37345886 C6.08019886 16.01453176 6.62476312 17.65608936 7.16796875 19.2980957 C7.99397198 21.79428328 8.82471774 24.28885264 9.65625 26.78320312 C10.18778221 28.38271875 10.71904105 29.98232524 11.25 31.58203125 C11.49588867 32.32081009 11.74177734 33.05958893 11.99511719 33.820755 C12.22875977 34.52806259 12.46240234 35.23537018 12.703125 35.96411133 C13.00718262 36.88200188 13.00718262 36.88200188 13.31738281 37.81843567 C14.26954232 40.86142559 15.12405758 43.93420153 16 47 C5.44 47 -5.12 47 -16 47 C-14.12856204 40.76187347 -12.23629302 34.58715035 -10.1171875 28.4375 C-9.85745148 27.67953125 -9.59771545 26.9215625 -9.33010864 26.140625 C-8.78821899 24.56071707 -8.24539751 22.98112845 -7.70166016 21.40185547 C-6.86756797 18.97840629 -6.03710431 16.55373462 -5.20703125 14.12890625 C-4.67729549 12.58586465 -4.14735515 11.04289326 -3.6171875 9.5 C-3.3692746 8.77611084 -3.12136169 8.05222168 -2.86593628 7.30639648 C-1.11541995 2.23083991 -1.11541995 2.23083991 0 0 Z " fill="#000000" transform="translate(1145,361)"/>
</svg>
