<?xml version="1.0" encoding="UTF-8"?>
<svg version="1.1" xmlns="http://www.w3.org/2000/svg" width="1280" height="194">
<path d="M0 0 C400.95 0 801.9 0 1215 0 C1208.24387398 7.88214702 1208.24387398 7.88214702 1205.30859375 11.0078125 C1204.67373047 11.68457031 1204.03886719 12.36132812 1203.38476562 13.05859375 C1202.42086914 14.08146484 1202.42086914 14.08146484 1201.4375 15.125 C1200.79103516 15.81464844 1200.14457031 16.50429688 1199.47851562 17.21484375 C1196.04272602 20.87083147 1192.57153771 24.4764484 1189 28 C1189.33 28.66 1189.66 29.32 1190 30 C1189.26523438 30.40863281 1188.53046875 30.81726563 1187.7734375 31.23828125 C1179.53109072 36.47391279 1172.89602274 45.07267712 1166.875 52.6875 C1164.74036864 55.32021201 1162.42494495 57.63144912 1160 60 C1158.83033684 61.14277435 1157.66384595 62.28880172 1156.5 63.4375 C1155.9534375 63.97246094 1155.406875 64.50742188 1154.84375 65.05859375 C1152.81831701 67.05115061 1152.81831701 67.05115061 1151.15077686 70.07386971 C1149.32638493 72.24242363 1148.31978083 72.92768006 1145.52609098 73.55948615 C1142.2524409 73.77627323 1139.02461966 73.7972663 1135.74382019 73.75949097 C1134.48589749 73.76870107 1133.22797479 73.77791117 1131.93193322 73.78740036 C1128.44262141 73.81214557 1124.95428713 73.79957763 1121.46497405 73.78093672 C1117.70149389 73.7673606 1113.93818858 73.78835751 1110.17474365 73.80516052 C1103.65514386 73.82953496 1097.13583092 73.83199318 1090.6162014 73.81957626 C1081.18996982 73.80165526 1071.76401912 73.81677063 1062.3378096 73.83995558 C1047.04460176 73.8766737 1031.75149781 73.88666511 1016.45825195 73.87988281 C1001.60209622 73.87335152 986.74603328 73.87938639 971.88989258 73.90234375 C970.97419855 73.9037544 970.05850453 73.90516506 969.1150622 73.90661846 C964.52130515 73.91377288 959.92754854 73.92117459 955.33379209 73.92869925 C917.22251924 73.99080632 879.11131831 74.00955291 841 74 C840.34 75.32 839.68 76.64 839 78 C842.94439983 80.62959989 846.30280106 80.26535386 850.87768555 80.22705078 C851.78520569 80.22734283 852.69272583 80.22763489 853.62774658 80.22793579 C856.63083418 80.22654118 859.63367443 80.21097373 862.63671875 80.1953125 C864.71751266 80.19158284 866.79830832 80.18873565 868.87910461 80.18673706 C874.35853922 80.17909692 879.83786798 80.15944512 885.31726074 80.1373291 C890.90745614 80.1168789 896.49766862 80.10773711 902.08789062 80.09765625 C913.05864028 80.07619963 924.02931134 80.04205905 935 80 C935 80.66 935 81.32 935 82 C946.56176255 82.36075454 958.12425419 82.69069728 969.6875 83 C970.57497673 83.0237545 971.46245346 83.047509 972.37682343 83.07198334 C1005.79415537 83.95680494 1039.19688636 84.17567265 1072.625 84.125 C1073.76254604 84.12328796 1074.90009209 84.12157593 1076.07210922 84.11981201 C1090.04813773 84.09719952 1104.02407193 84.05730023 1118 84 C1118.33 84.66 1118.66 85.32 1119 86 C1121.71446979 86.31241455 1124.33909361 86.51336592 1127.0625 86.625 C1127.82111328 86.66367188 1128.57972656 86.70234375 1129.36132812 86.7421875 C1131.24047195 86.83673562 1133.12020336 86.91946756 1135 87 C1130.30233025 92.66129431 1125.25276628 97.85228904 1120 103 C1120.33 103.66 1120.66 104.32 1121 105 C1120.34644531 105.32871094 1119.69289063 105.65742187 1119.01953125 105.99609375 C1114.72484308 108.8462555 1111.30293813 112.40829041 1107.6875 116.0625 C1106.94693359 116.79533203 1106.20636719 117.52816406 1105.44335938 118.28320312 C1104.74404297 118.98509766 1104.04472656 119.68699219 1103.32421875 120.41015625 C1102.3664856 121.37127319 1102.3664856 121.37127319 1101.3894043 122.35180664 C1099.78515675 123.89557861 1099.78515675 123.89557861 1100 126 C1100.66 126.66 1101.32 127.32 1102 128 C1102 128.33 1102 128.66 1102 129 C1105.05065359 129.50922811 1107.17144176 129.56279427 1109.78564453 127.78710938 C1111.78242629 126.00349399 1113.67858284 124.15249261 1115.5625 122.25 C1116.97856622 120.86917562 1118.39524155 119.48897566 1119.8125 118.109375 C1120.51503906 117.41650391 1121.21757813 116.72363281 1121.94140625 116.00976562 C1124.9186392 113.10315016 1127.98661521 110.30133326 1131.0625 107.5 C1134.97443335 103.91180066 1138.79206975 100.25608205 1142.50390625 96.4609375 C1144.0615906 94.9398567 1145.68703501 93.56170209 1147.375 92.1875 C1150.0316122 90.2707913 1150.0316122 90.2707913 1151 88 C1147.7 88 1144.4 88 1141 88 C1141 87.67 1141 87.34 1141 87 C1155.02603124 86.84061328 1168.9907504 87.32932546 1183 88 C1182.67 89.65 1182.34 91.3 1182 93 C1182.66 93 1183.32 93 1184 93 C1184 93.66 1184 94.32 1184 95 C1183.01 95 1182.02 95 1181 95 C1180.95101563 95.61746094 1180.90203125 96.23492187 1180.8515625 96.87109375 C1180.33391578 102.73478159 1179.38417877 108.27872775 1178 114 C1178.66 114 1179.32 114 1180 114 C1180 114.66 1180 115.32 1180 116 C1176.92382812 116.29296875 1176.92382812 116.29296875 1173.84765625 116.5859375 C1173.23792969 116.72257812 1172.62820313 116.85921875 1172 117 C1171.67 117.66 1171.34 118.32 1171 119 C1168.8113624 120.35542972 1166.62592 121.63167868 1164.375 122.875 C1163.77042969 123.21402344 1163.16585938 123.55304688 1162.54296875 123.90234375 C1161.31908576 124.58865767 1160.09348526 125.27191752 1158.86621094 125.95214844 C1157.58576723 126.67109982 1156.31327356 127.40434068 1155.04785156 128.14941406 C1150.20311123 131 1150.20311123 131 1148 131 C1147.67 131.66 1147.34 132.32 1147 133 C1145.18086361 134.14117831 1143.31630727 135.20998635 1141.4375 136.25 C1140.16982852 136.95960932 1138.9029661 137.67066503 1137.63671875 138.3828125 C1136.91532715 138.78790039 1136.19393555 139.19298828 1135.45068359 139.61035156 C1130.52454224 142.40369651 1125.64007933 145.26916055 1120.75 148.125 C1119.24264282 149.00333496 1119.24264282 149.00333496 1117.70483398 149.89941406 C1112.08516811 153.17874568 1106.50129691 156.50292803 1100.96972656 159.92919922 C1099 161 1099 161 1097 161 C1096.67 161.66 1096.34 162.32 1096 163 C1093.48782687 165.07903983 1090.95395428 166.62852123 1088 168 C1088.66 168.99 1089.32 169.98 1090 171 C1099.18009227 172.62462187 1106.51768584 167.7607939 1114.375 163.625 C1115.81805269 162.88232375 1117.26190741 162.14120391 1118.70654297 161.40161133 C1122.81656597 159.29077461 1126.90992278 157.14916509 1131 155 C1131.98548828 154.48453613 1132.97097656 153.96907227 1133.98632812 153.43798828 C1137.81172889 151.43556168 1141.63000308 149.4200078 1145.4453125 147.3984375 C1150.94278164 144.49555675 1156.46195559 141.63718094 1162 138.8125 C1162.95148926 138.3177417 1163.90297852 137.8229834 1164.88330078 137.31323242 C1165.76743652 136.86568604 1166.65157227 136.41813965 1167.5625 135.95703125 C1168.34753906 135.55460205 1169.13257813 135.15217285 1169.94140625 134.73754883 C1172 134 1172 134 1175 135 C1175 135.66 1175 136.32 1175 137 C1174.34 137 1173.68 137 1173 137 C1172.28674095 143.99600901 1171.6258645 150.99564408 1171 158 C1170.34 158 1169.68 158 1169 158 C1169 158.99 1169 159.98 1169 161 C1169.66 161.33 1170.32 161.66 1171 162 C1170.34 162.33 1169.68 162.66 1169 163 C1168.31270746 165.11846285 1168.31270746 165.11846285 1167.875 167.5625 C1167.70742187 168.38878906 1167.53984375 169.21507812 1167.3671875 170.06640625 C1167.24601562 170.70449219 1167.12484375 171.34257812 1167 172 C1167.66 172.33 1168.32 172.66 1169 173 C1168.01 173 1167.02 173 1166 173 C1166.33 174.98 1166.66 176.96 1167 179 C1166.34 179 1165.68 179 1165 179 C1165 179.99 1165 180.98 1165 182 C1165.66 182.33 1166.32 182.66 1167 183 C1166.34 183.33 1165.68 183.66 1165 184 C1164.34 187.3 1163.68 190.6 1163 194 C779.21 194 395.42 194 0 194 C0 186.74 0 179.48 0 172 C18.48 171.67 36.96 171.34 56 171 C57.08084521 167.36380344 57.08084521 167.36380344 57 165 C57.66 165 58.32 165 59 165 C59 164.01 59 163.02 59 162 C58.34 161.67 57.68 161.34 57 161 C57.99 161 58.98 161 60 161 C60.33 160.01 60.66 159.02 61 158 C61.33 158.66 61.66 159.32 62 160 C62.99 160.66 63.98 161.32 65 162 C65 162.66 65 163.32 65 164 C75.28540951 172.91899038 86.81173735 173.82614361 99.82714844 173.1640625 C114.56959829 172.05092471 125.24565991 165.83815566 135 155 C134.67 154.34 134.34 153.68 134 153 C134.99 152.67 135.98 152.34 137 152 C138.69281093 149.22286692 138.69281093 149.22286692 140.1875 145.9375 C140.71730469 144.83277344 141.24710938 143.72804687 141.79296875 142.58984375 C142.39044922 141.30787109 142.39044922 141.30787109 143 140 C143.66 140 144.32 140 145 140 C145 142.97 145 145.94 145 149 C144.34 149 143.68 149 143 149 C143 149.99 143 150.98 143 152 C143.66 152 144.32 152 145 152 C144.67 153.32 144.34 154.64 144 156 C144.66 156.33 145.32 156.66 146 157 C149 160.57692308 149 160.57692308 149 163 C155.00431727 169.93102862 163.11338341 172.2468969 172 173 C185.37889002 173.64090491 198.67168216 172.78617811 210 165 C212.95495096 162.19599855 215.54575425 159.24826644 218 156 C217.67 155.34 217.34 154.68 217 154 C217.99 154 218.98 154 220 154 C220.99 150.04 220.99 150.04 222 146 C211.44 146 200.88 146 190 146 C189.34 147.65 188.68 149.3 188 151 C185.34211707 153.65788293 183.72706873 153.85384044 180 154 C177.125 152.25 177.125 152.25 175 150 C175 149.01 175 148.02 175 147 C174.34 146.67 173.68 146.34 173 146 C172.67 145.34 172.34 144.68 172 144 C172.66 144 173.32 144 174 144 C174.33 141.03 174.66 138.06 175 135 C174.34 135 173.68 135 173 135 C173 134.34 173 133.68 173 133 C173.99 133 174.98 133 176 133 C176.33 131.02 176.66 129.04 177 127 C176.34 126.67 175.68 126.34 175 126 C175.99 126 176.98 126 178 126 C177.67 124.35 177.34 122.7 177 121 C177.99 121 178.98 121 180 121 C180.37125 120.13375 180.37125 120.13375 180.75 119.25 C182.53195718 116.04247707 184.7014109 113.64929455 188 112 C191 111.8125 191 111.8125 194 112 C196 114 196 114 196 119 C206.56 119 217.12 119 228 119 C227.20010336 107.285259 227.20010336 107.285259 220.625 98.75 C212.24974269 93.16649513 204.82515421 92.00263016 195 93.5625 C194.01 93.706875 193.02 93.85125 192 94 C191.67 93.67 191.34 93.34 191 93 C180.28111176 91.81333542 171.83138837 95.13272867 163.16015625 101.25 C155.76475978 107.24120727 151.17342651 114.54248795 147 123 C147.66 123.33 148.32 123.66 149 124 C148.01 124 147.02 124 146 124 C146 124.66 146 125.32 146 126 C145.34 126 144.68 126 144 126 C144 123.03 144 120.06 144 117 C144.66 117 145.32 117 146 117 C146 115.68 146 114.36 146 113 C145.34 112.67 144.68 112.34 144 112 C143.7834375 110.8553125 143.7834375 110.8553125 143.5625 109.6875 C142.92470494 106.64025694 141.99084474 105.35951969 140 103 C139.4225 102.175 138.845 101.35 138.25 100.5 C133.07478651 94.74976278 126.24770901 92.46520291 118.67285156 91.79370117 C116.19470885 91.69643533 113.72997777 91.67108103 111.25 91.6875 C109.93056396 91.69487183 109.93056396 91.69487183 108.58447266 91.70239258 C95.2102844 91.94222766 82.87806568 95.68365325 72.89453125 104.89453125 C66.73856038 111.68698361 66.73856038 111.68698361 64 120 C63.34 120 62.68 120 62 120 C62.20625 120.78375 62.4125 121.5675 62.625 122.375 C62.74875 123.24125 62.8725 124.1075 63 125 C61 127 61 127 59 128 C59.33 129.32 59.66 130.64 60 132 C59.34 132 58.68 132 58 132 C58 138.6 58 145.2 58 152 C48.43 152 38.86 152 29 152 C29 150.68 29 149.36 29 148 C28.34 148 27.68 148 27 148 C27 147.34 27 146.68 27 146 C27.99 146 28.98 146 30 146 C30 143.03 30 140.06 30 137 C30.66 137 31.32 137 32 137 C32 136.01 32 135.02 32 134 C31.34 133.67 30.68 133.34 30 133 C30.99 133 31.98 133 33 133 C32.34 131.02 31.68 129.04 31 127 C31.99 127 32.98 127 34 127 C34.83488387 120.67873638 35.45118943 114.35219042 36 108 C36.66 108 37.32 108 38 108 C38 107.01 38 106.02 38 105 C37.01 104.505 37.01 104.505 36 104 C36.99 104 37.98 104 39 104 C39.02689216 102.52093108 39.04634621 101.04172517 39.0625 99.5625 C39.07410156 98.73878906 39.08570313 97.91507812 39.09765625 97.06640625 C39.23267348 95.00836062 39.23267348 95.00836062 38 94 C36.10888327 93.90022976 34.21405814 93.86919328 32.3203125 93.8671875 C31.16402344 93.86589844 30.00773437 93.86460938 28.81640625 93.86328125 C27.59824219 93.86714844 26.38007813 93.87101562 25.125 93.875 C23.30935547 93.86919922 23.30935547 93.86919922 21.45703125 93.86328125 C20.29816406 93.86457031 19.13929687 93.86585937 17.9453125 93.8671875 C16.87812988 93.86831543 15.81094727 93.86944336 14.71142578 93.87060547 C11.9027548 93.88205577 11.9027548 93.88205577 9 95 C9.33 95.99 9.66 96.98 10 98 C9.34 98 8.68 98 8 98 C8.33 99.65 8.66 101.3 9 103 C8.34 103 7.68 103 7 103 C7 103.99 7 104.98 7 106 C7.66 106.33 8.32 106.66 9 107 C8.34 107 7.68 107 7 107 C6.67 108.32 6.34 109.64 6 111 C6.66 111.33 7.32 111.66 8 112 C7.01 112.495 7.01 112.495 6 113 C5.33992852 115.57213263 5.33992852 115.57213263 4.9375 118.625 C4.77378906 119.70523438 4.61007813 120.78546875 4.44140625 121.8984375 C4.29574219 122.92195313 4.15007813 123.94546875 4 125 C3.88527344 125.77601562 3.77054687 126.55203125 3.65234375 127.3515625 C3.42616223 128.89979091 3.21140659 130.44968502 3 132 C2.34 132 1.68 132 1 132 C1.66 133.32 2.32 134.64 3 136 C2.01 136 1.02 136 0 136 C0 91.12 0 46.24 0 0 Z M235.19213867 94.33764648 C233.39470085 96.84404708 232.96065881 99.37769418 232.3125 102.375 C232.06113281 103.49648437 231.80976563 104.61796875 231.55078125 105.7734375 C231.06625625 108.61186054 230.97006457 111.13617754 231 114 C230.36971413 115.68076231 229.70211894 117.34795544 229 119 C227.95961095 123.27715497 227.43751395 127.62486047 227 132 C227.33 132.33 227.66 132.66 228 133 C227.01 133.495 227.01 133.495 226 134 C225.73638669 135.9770998 225.48017245 137.95598625 225.2890625 139.94140625 C225 142 225 142 223.875 144.6875 C222.8048499 147.51575384 223.18169973 149.13594905 224 152 C223.01 152.495 223.01 152.495 222 153 C221.03977352 155.86129006 221.03977352 155.86129006 220.3125 159.25 C220.04050781 160.38953125 219.76851562 161.5290625 219.48828125 162.703125 C219.01640326 165.88924517 219.0789715 167.94106899 220 171 C222.71820419 173.71820419 230.71686773 172.28456111 234.375 172.3125 C235.633125 172.34150391 236.89125 172.37050781 238.1875 172.40039062 C239.99347656 172.41295898 239.99347656 172.41295898 241.8359375 172.42578125 C243.49955322 172.44765503 243.49955322 172.44765503 245.19677734 172.4699707 C248.09145812 172.264497 248.09145812 172.264497 249.82592773 170.16455078 C251.34850925 167.3574791 252.00629939 164.68016418 252.6875 161.5625 C252.93886719 160.45003906 253.19023437 159.33757812 253.44921875 158.19140625 C253.93579748 155.37201036 254.11186953 152.85000947 254 150 C254.66 149.67 255.32 149.34 256 149 C256.391875 150.2375 256.78375 151.475 257.1875 152.75 C258.5129902 156.6827044 259.92673859 160.57200244 261.4375 164.4375 C261.82808594 165.44683594 262.21867187 166.45617187 262.62109375 167.49609375 C264.23856707 170.43320536 264.90321983 170.86762898 268 172 C271.27776511 172.29182261 271.27776511 172.29182261 274.91796875 172.23046875 C275.57581863 172.23001053 276.23366852 172.22955231 276.91145325 172.2290802 C278.29572362 172.22606911 279.67999094 172.21821711 281.06420898 172.20581055 C283.19071335 172.18747229 285.31678392 172.18530157 287.44335938 172.18554688 C293.70083794 172.79542827 293.70083794 172.79542827 299 171 C301.04770494 170.8537219 303.10012639 170.77257114 305.15234375 170.71875 C306.40337891 170.68136719 307.65441406 170.64398438 308.94335938 170.60546875 C310.26142578 170.57066406 311.57949219 170.53585938 312.9375 170.5 C315.53006414 170.43133965 318.1225253 170.35863264 320.71484375 170.28125 C321.87105225 170.25095703 323.02726074 170.22066406 324.21850586 170.18945312 C326.95621516 170.18247551 326.95621516 170.18247551 329 169 C329.46523063 167.10466658 329.46523063 167.10466658 329.625 164.9375 C329.810625 162.9884375 329.810625 162.9884375 330 161 C329.34 161 328.68 161 328 161 C328 160.34 328 159.68 328 159 C328.99 159 329.98 159 331 159 C332.22443772 154.48488589 333.13408339 150.69291854 333 146 C333.33 145.01 333.66 144.02 334 143 C338.62 143 343.24 143 348 143 C348.33 143.99 348.66 144.98 349 146 C348.01 146.495 348.01 146.495 347 147 C346.03858057 149.8268464 346.03858057 149.8268464 345.3125 153.1875 C345.04050781 154.31542969 344.76851563 155.44335938 344.48828125 156.60546875 C343.99183781 160.05674352 344.23552371 162.61885991 345 166 C344.34 166 343.68 166 343 166 C343 166.99 343 167.98 343 169 C343.66 169.66 344.32 170.32 345 171 C345 171.33 345 171.66 345 172 C349.43715855 172.14483042 353.87371277 172.23391752 358.3125 172.3125 C359.57513672 172.35439453 360.83777344 172.39628906 362.13867188 172.43945312 C363.95141602 172.46362305 363.95141602 172.46362305 365.80078125 172.48828125 C366.91622314 172.51446533 368.03166504 172.54064941 369.1809082 172.56762695 C372.20003408 172.27854613 372.20003408 172.27854613 373.85986328 169.61206055 C374.96943663 167.07002087 375.41252169 165.24798961 375.5625 162.5 C375.85027784 158.92920557 376.66782408 156.33043981 378 153 C379.18630205 147.37048381 379.18630205 147.37048381 378 142 C378.66 142 379.32 142 380 142 C380.7733994 139.34834493 381.12526564 136.89050431 381.4375 134.125 C381.85028921 130.54971282 382.81301043 127.40270342 384 124 C384 123.01 384 122.02 384 121 C383.34 121 382.68 121 382 121 C382 120.34 382 119.68 382 119 C382.99 119 383.98 119 385 119 C385.53364887 116.94077867 386.05142189 114.87743893 386.5625 112.8125 C386.99755859 111.08966797 386.99755859 111.08966797 387.44140625 109.33203125 C387.98068761 106.11519907 387.88247476 104.10327217 387 101 C387.66 100.67 388.32 100.34 389 100 C389 98.35 389 96.7 389 95 C378.77 95 368.54 95 358 95 C357.67 97.64 357.34 100.28 357 103 C356.35902703 105.00838196 355.69100553 107.00827818 355 109 C353.8595076 113.43007591 353 117.40510685 353 122 C348.38 122 343.76 122 339 122 C339.48685881 117.21255507 340.14457187 113.45302752 342 109 C342 107.68 342 106.36 342 105 C341.34 105 340.68 105 340 105 C340 104.34 340 103.68 340 103 C340.99 103 341.98 103 343 103 C343.20625 101.72125 343.4125 100.4425 343.625 99.125 C343.79902344 98.04605469 343.79902344 98.04605469 343.9765625 96.9453125 C343.98429687 96.30335937 343.99203125 95.66140625 344 95 C341.28930486 92.28930486 339.82584184 92.74217475 336.0390625 92.734375 C334.84539062 92.73179688 333.65171875 92.72921875 332.421875 92.7265625 C331.16890625 92.73429687 329.9159375 92.74203125 328.625 92.75 C327.37976563 92.74226563 326.13453125 92.73453125 324.8515625 92.7265625 C323.0571875 92.73042969 323.0571875 92.73042969 321.2265625 92.734375 C319.58034912 92.73775879 319.58034912 92.73775879 317.90087891 92.74121094 C315.06408044 92.99428335 313.40651077 93.53085399 311 95 C311 94.34 311 93.68 311 93 C292.19546812 90.45113727 292.19546812 90.45113727 275.22265625 96.78515625 C271.00166938 100.80109569 267.32308266 105.21811248 264 110 C264 106.52023497 264.3534064 103.64461639 265 100.25 C265.2784375 98.77273437 265.2784375 98.77273437 265.5625 97.265625 C265.706875 96.51796875 265.85125 95.7703125 266 95 C261.12873683 91.75249122 255.72409973 92.67214566 250 92.6875 C248.79859375 92.67138672 247.5971875 92.65527344 246.359375 92.63867188 C245.20953125 92.63802734 244.0596875 92.63738281 242.875 92.63671875 C241.82054687 92.63373779 240.76609375 92.63075684 239.6796875 92.62768555 C236.99121804 92.78338652 236.99121804 92.78338652 235.19213867 94.33764648 Z M361 93 C361 93.33 361 93.66 361 94 C369.58 94 378.16 94 387 94 C387 93.67 387 93.34 387 93 C378.42 93 369.84 93 361 93 Z M395 93 C395 93.33 395 93.66 395 94 C415.13 94 435.26 94 456 94 C456 93.67 456 93.34 456 93 C435.87 93 415.74 93 395 93 Z M464 93 C464 93.33 464 93.66 464 94 C483.47 94 502.94 94 523 94 C523 93.67 523 93.34 523 93 C503.53 93 484.06 93 464 93 Z M529 96 C528.38922007 98.20117215 528.38922007 98.20117215 528.25 100.5625 C528.17265625 101.34753906 528.0953125 102.13257812 528.015625 102.94140625 C527.84372847 105.06578138 527.84372847 105.06578138 529 107 C528.34 107 527.68 107 527 107 C527 107.66 527 108.32 527 109 C527.66 109 528.32 109 529 109 C529 109.66 529 110.32 529 111 C528.01 111 527.02 111 526 111 C525.87625 112.19625 525.7525 113.3925 525.625 114.625 C525.17290473 118.28697172 524.23842766 121.5169222 523 125 C522.64984951 126.66321482 522.31802943 128.33034549 522 130 C521.64877481 131.33411119 521.29436123 132.66738533 520.9375 134 C520.14642101 137.09451487 519.91100397 139.79614292 520 143 C519.66666667 144.33333333 519.33333333 145.66666667 519 147 C519.33 147.33 519.66 147.66 520 148 C519.01 148.495 519.01 148.495 518 149 C517.70601543 150.99256206 517.42022447 152.98776806 517.22265625 154.9921875 C517 157 517 157 516.375 159.4375 C516.25125 159.953125 516.1275 160.46875 516 161 C516.33 161.33 516.66 161.66 517 162 C516.01 162.495 516.01 162.495 515 163 C514.16417032 166.43407381 514.16417032 166.43407381 514 170 C516.4727924 172.4727924 517.20403702 172.25977853 520.6105957 172.29052734 C521.56952225 172.30328705 522.52844879 172.31604675 523.51643372 172.32919312 C525.08031075 172.33253159 525.08031075 172.33253159 526.67578125 172.3359375 C527.75192184 172.3425943 528.82806244 172.3492511 529.93681335 172.35610962 C532.22421559 172.36625716 534.51164755 172.37092599 536.79907227 172.37060547 C540.2604452 172.37493489 543.72049726 172.41111079 547.18164062 172.44921875 C563.38932436 172.53262726 578.30918488 171.68988223 590.9609375 160.22265625 C597.88108943 152.83410975 602.56749761 144.02751672 604 134 C603.67 133.34 603.34 132.68 603 132 C603.66 132 604.32 132 605 132 C606.77156758 125.13517563 606.63486372 118.5871593 604 112 C603.5978125 110.515 603.5978125 110.515 603.1875 109 C600.61723654 102.50670284 596.56836487 99.40321327 590.671875 96.078125 C583.26527883 93.08949847 575.85181134 92.69180669 567.9453125 92.69921875 C566.92194794 92.69493362 565.89858337 92.6906485 564.84420776 92.68623352 C562.69790382 92.68052543 560.55158054 92.67996376 558.40527344 92.68432617 C555.11360302 92.68751103 551.8228112 92.66389738 548.53125 92.63867188 C546.4401053 92.63640109 544.34895818 92.63569436 542.2578125 92.63671875 C541.27346222 92.627509 540.28911194 92.61829926 539.27493286 92.60881042 C538.36323334 92.61503922 537.45153381 92.62126801 536.51220703 92.62768555 C535.71106476 92.62705612 534.90992249 92.6264267 534.08450317 92.6257782 C531.47955509 93.09343321 530.60410102 93.93276177 529 96 Z M650 93 C650 93.33 650 93.66 650 94 C662.21 94 674.42 94 687 94 C687 93.67 687 93.34 687 93 C674.79 93 662.58 93 650 93 Z M703.76123047 94.73730469 C702.4372998 96.82983079 701.65829575 98.622463 701 101 C700.443125 102.299375 700.443125 102.299375 699.875 103.625 C699.58625 104.40875 699.2975 105.1925 699 106 C698 108 697 110 696 112 C695.32650839 113.66392045 694.6590841 115.33032028 694 117 C693.34786461 118.34050052 692.68620031 119.67661368 692 121 C690.25493385 119.25493385 690.76717216 116.80960857 690.68359375 114.43359375 C690.64169922 113.30888672 690.59980469 112.18417969 690.55664062 111.02539062 C690.51732422 109.84138672 690.47800781 108.65738281 690.4375 107.4375 C690.39431641 106.24962891 690.35113281 105.06175781 690.30664062 103.83789062 C690.20016454 100.89205216 690.09815159 97.9461257 690 95 C684.35834639 94.92589273 678.71697553 94.87141833 673.07495117 94.83520508 C671.15530462 94.8201102 669.2356926 94.79963227 667.31616211 94.77368164 C664.55834436 94.73732891 661.8009822 94.72028088 659.04296875 94.70703125 C658.18350143 94.69154739 657.32403412 94.67606354 656.43852234 94.66011047 C655.63791885 94.65988388 654.83731537 94.65965729 654.01245117 94.65942383 C653.3085173 94.65276199 652.60458344 94.64610016 651.87931824 94.63923645 C649.41626309 95.11205713 648.52815191 96.04926347 647 98 C646.5992312 100.37562706 646.5992312 100.37562706 646.625 103.171875 C646.02122224 114.05798806 643.30780443 124.62262436 641 135.25 C640.30034106 138.49317044 639.60322356 141.73683422 638.91113281 144.98162842 C638.48291459 146.98724095 638.05025421 148.99191228 637.61230469 150.99542236 C636.67304353 155.37611103 635.88934862 159.65550311 635.484375 164.12011719 C635.24460937 166.04065918 635.24460937 166.04065918 635 168 C634.01 168.495 634.01 168.495 633 169 C635.61295867 171.7436066 637.76048869 172.23999175 641.40625 172.3984375 C643.10416604 172.40638406 644.80222178 172.39804676 646.5 172.375 C647.35464844 172.38660156 648.20929687 172.39820313 649.08984375 172.41015625 C654.02441336 172.38984259 654.02441336 172.38984259 658.55078125 170.61328125 C660.52251908 168.41832782 660.67418559 166.93232966 661 164 C661.10183594 163.3296875 661.20367188 162.659375 661.30859375 161.96875 C662.0643664 157.88023323 662.0643664 157.88023323 661 154 C661.66 154 662.32 154 663 154 C663 153.01 663 152.02 663 151 C662.34 151 661.68 151 661 151 C661 150.34 661 149.68 661 149 C661.99 149 662.98 149 664 149 C666.44709712 152.72799951 666.16415891 156.34045249 666 160.625 C665.90585747 163.11036281 665.90661825 165.50787461 666 168 C667.83955978 170.26839977 667.83955978 170.26839977 670.61376953 170.22705078 C671.69255371 170.21657715 672.77133789 170.20610352 673.8828125 170.1953125 C675.04941406 170.18886719 676.21601562 170.18242187 677.41796875 170.17578125 C678.64128906 170.15902344 679.86460937 170.14226562 681.125 170.125 C682.97158203 170.11146484 682.97158203 170.11146484 684.85546875 170.09765625 C687.90383815 170.07402548 690.95182382 170.04108054 694 170 C695.64616818 166.87517628 697.29187754 163.75011114 698.9375 160.625 C699.40607422 159.73554688 699.87464844 158.84609375 700.35742188 157.9296875 C701.0293457 156.65351563 701.0293457 156.65351563 701.71484375 155.3515625 C702.12855225 154.56604004 702.54226074 153.78051758 702.96850586 152.97119141 C703.65788624 151.65378141 704.33504671 150.32990658 705 149 C705 153.44875715 704.40196392 157.79410825 703 162 C703.33 162.66 703.66 163.32 704 164 C703.34 164 702.68 164 702 164 C701.67 165.98 701.34 167.96 701 170 C704.22788911 171.91187811 706.58728236 172.23760388 710.31640625 172.1953125 C711.83331055 172.18564453 711.83331055 172.18564453 713.38085938 172.17578125 C714.43080078 172.15902344 715.48074219 172.14226562 716.5625 172.125 C717.61630859 172.11597656 718.67011719 172.10695313 719.75585938 172.09765625 C721.70780944 172.080217 723.65973015 172.05867435 725.61157227 172.03173828 C729.35080456 171.98205003 733.03653634 172.10987295 736.76953125 172.31640625 C739.11712181 172.40029633 741.46478229 172.48224703 743.8125 172.5625 C744.98876953 172.63791016 746.16503906 172.71332031 747.37695312 172.79101562 C753.74185404 173.11102714 753.74185404 173.11102714 759.05615234 170.13232422 C761.2369365 166.88304341 762.75403694 163.61371366 764.20703125 159.98828125 C766.48817417 157.45864781 767.54775093 157.5852873 770.88671875 157.29296875 C772.81970781 157.23318558 774.7536208 157.19898839 776.6875 157.1875 C777.67556641 157.16236328 778.66363281 157.13722656 779.68164062 157.11132812 C782.12149336 157.05239448 784.55954995 157.01616192 787 157 C787.04898438 157.83144531 787.09796875 158.66289062 787.1484375 159.51953125 C787.26058594 161.14955078 787.26058594 161.14955078 787.375 162.8125 C787.47941406 164.43091797 787.47941406 164.43091797 787.5859375 166.08203125 C787.81195733 169.18626186 787.81195733 169.18626186 790 172 C792.97400557 172.45128304 792.97400557 172.45128304 796.46875 172.36328125 C797.76167969 172.36263672 799.05460938 172.36199219 800.38671875 172.36132812 C801.39871338 172.34888062 801.39871338 172.34888062 802.43115234 172.33618164 C804.49225951 172.3125886 806.5520734 172.31561974 808.61328125 172.32226562 C815.40979392 172.83135539 815.40979392 172.83135539 821 170 C821 170.66 821 171.32 821 172 C829.91 172 838.82 172 848 172 C848.99 170.02 848.99 170.02 850 168 C849.67 167.34 849.34 166.68 849 166 C849.66 166 850.32 166 851 166 C851.53518883 163.9620493 852.05254093 161.91940991 852.5625 159.875 C852.85253906 158.73804688 853.14257812 157.60109375 853.44140625 156.4296875 C854.01056927 152.93510616 853.78666101 150.42796653 853 147 C853.66 147 854.32 147 855 147 C855.33 145.68 855.66 144.36 856 143 C858.97 143.495 858.97 143.495 862 144 C862.02712153 145.916588 862.04645097 147.8332873 862.0625 149.75 C862.07410156 150.81734375 862.08570313 151.8846875 862.09765625 152.984375 C862.01380917 155.57357272 861.63868996 157.52507639 861 160 C860.93375493 161.74886981 860.91447405 163.50002748 860.9375 165.25 C860.94652344 166.14203125 860.95554687 167.0340625 860.96484375 167.953125 C860.97644531 168.62859375 860.98804688 169.3040625 861 170 C861.66 170 862.32 170 863 170 C863 170.66 863 171.32 863 172 C872.24 172 881.48 172 891 172 C891 171.34 891 170.68 891 170 C891.66 169.67 892.32 169.34 893 169 C892.98839844 168.14535156 892.97679687 167.29070312 892.96484375 166.41015625 C892.95130859 164.75306641 892.95130859 164.75306641 892.9375 163.0625 C892.92589844 161.96035156 892.91429687 160.85820312 892.90234375 159.72265625 C893 157 893 157 894 156 C894.20785733 153.23252818 894.32462012 150.52089342 894.375 147.75 C894.41238281 146.98558594 894.44976563 146.22117188 894.48828125 145.43359375 C894.55656368 141.04075743 894.46568615 139.53921554 891.4765625 136.078125 C890.65929687 135.39234375 889.84203125 134.7065625 889 134 C889 133.34 889 132.68 889 132 C889.680625 131.835 890.36125 131.67 891.0625 131.5 C896.19670549 128.87827805 899.78754727 124.31947478 902.4375 119.25 C903.16169042 116.73977949 903.16169042 116.73977949 903 113 C908.94 113 914.88 113 921 113 C920.67 115.64 920.34 118.28 920 121 C920.33 121.66 920.66 122.32 921 123 C920.34 123 919.68 123 919 123 C917.95570261 127.37996575 916.97682174 131.70537562 916.5 136.1875 C916.03459692 139.73619846 915.12559404 142.62321788 914 146 C913.80742136 147.35072521 913.64203809 148.70552899 913.5 150.0625 C913.06314347 153.50274514 912.31131941 155.85283341 911 159 C911 160.32 911 161.64 911 163 C911.66 163 912.32 163 913 163 C913 163.66 913 164.32 913 165 C912.01 165 911.02 165 910 165 C910 166.32 910 167.64 910 169 C912.87018441 170.43509221 915.33543723 170.11158506 918.5390625 170.09765625 C919.84101562 170.09443359 921.14296875 170.09121094 922.484375 170.08789062 C923.86458399 170.07953466 925.24479232 170.07106971 926.625 170.0625 C928.01301926 170.05748501 929.40104022 170.0529221 930.7890625 170.04882812 C934.19275132 170.03700976 937.59635439 170.02053434 941 170 C941.14566406 168.74058594 941.29132813 167.48117188 941.44140625 166.18359375 C941.85935807 162.56997496 942.80496096 159.44452429 944 156 C945.496383 150.6955141 946.40271592 146.4705921 945 141 C945.66 141 946.32 141 947 141 C947 140.34 947 139.68 947 139 C946.34 139 945.68 139 945 139 C945 138.34 945 137.68 945 137 C945.99 137 946.98 137 948 137 C948.144375 135.7625 948.28875 134.525 948.4375 133.25 C948.71866672 130.94769282 949.04800803 128.81276869 949.625 126.5625 C949.74875 126.046875 949.8725 125.53125 950 125 C949.67 124.67 949.34 124.34 949 124 C949.66 123.67 950.32 123.34 951 123 C951 122.01 951 121.02 951 120 C950.34 120 949.68 120 949 120 C949 119.34 949 118.68 949 118 C949.99 118 950.98 118 952 118 C952.33 116.68 952.66 115.36 953 114 C959.27 113.67 965.54 113.34 972 113 C971.67 114.32 971.34 115.64 971 117 C969.90356316 122.10840356 969.90356316 122.10840356 971 127 C970.34 127 969.68 127 969 127 C968.2335371 129.62787281 967.87672609 132.07424411 967.5625 134.8125 C967.11064706 138.71155363 966.12645196 142.24516014 965 146 C965 146.66 965 147.32 965 148 C965.66 148 966.32 148 967 148 C967 148.66 967 149.32 967 150 C966.01 150 965.02 150 964 150 C963.46635113 152.05922133 962.94857811 154.12256107 962.4375 156.1875 C962.14746094 157.33605469 961.85742188 158.48460937 961.55859375 159.66796875 C961.01308608 162.9219411 961.33206773 164.83995069 962 168 C961.34 168.66 960.68 169.32 960 170 C961.86089721 172.29261997 961.86089721 172.29261997 964.79736328 172.22705078 C965.95993652 172.21657715 967.12250977 172.20610352 968.3203125 172.1953125 C969.57714844 172.18886719 970.83398438 172.18242187 972.12890625 172.17578125 C973.44761719 172.15902344 974.76632812 172.14226562 976.125 172.125 C977.46483721 172.11496983 978.80468152 172.10584404 980.14453125 172.09765625 C983.42986573 172.07402075 986.71484465 172.04107234 990 172 C990.66 170.68 991.32 169.36 992 168 C991.67 167.67 991.34 167.34 991 167 C991.66 166.67 992.32 166.34 993 166 C993.96141943 163.1731536 993.96141943 163.1731536 994.6875 159.8125 C994.95949219 158.68457031 995.23148438 157.55664062 995.51171875 156.39453125 C996.00816219 152.94325648 995.76447629 150.38114009 995 147 C995.66 147 996.32 147 997 147 C997.12375 145.783125 997.2475 144.56625 997.375 143.3125 C997.69033811 140.67386197 998.06651445 138.84479961 999.125 136.375 C1000.26429607 133.28262496 999.7351558 131.16116996 999 128 C999.66 128 1000.32 128 1001 128 C1002.00748066 124.20257288 1002.7442908 120.35336871 1003.5 116.5 C1004.87289632 109.49958809 1004.87289632 109.49958809 1005.5625 106.7890625 C1006.04435552 104.8186176 1006.28534397 102.89123338 1006.5 100.875 C1007 97 1007 97 1008 95 C1004.9205159 92.9470106 1004.31265368 92.75078381 1000.84284973 92.75949097 C999.99731033 92.75674164 999.15177094 92.75399231 998.28060913 92.75115967 C996.89417709 92.7619455 996.89417709 92.7619455 995.47973633 92.77294922 C994.01604362 92.77251114 994.01604362 92.77251114 992.52278137 92.77206421 C989.29244136 92.77345928 986.06233105 92.78902892 982.83203125 92.8046875 C980.59429551 92.808417 978.35655814 92.81126427 976.11882019 92.81326294 C970.22510277 92.82090436 964.3314837 92.84055728 958.43780518 92.8626709 C952.42534719 92.88311834 946.41287334 92.8922623 940.40039062 92.90234375 C928.60021717 92.92380264 916.80011676 92.95794477 905 93 C904.67 94.32 904.34 95.64 904 97 C903.34 97 902.68 97 902 97 C901.67 97.99 901.34 98.98 901 100 C899.6328125 98.76302083 898.265625 97.52604167 896.8984375 96.2890625 C890.87509397 92.19913788 884.12671951 92.69341813 877.14453125 92.69921875 C875.4366468 92.69279106 875.4366468 92.69279106 873.69425964 92.68623352 C871.29463363 92.68050384 868.89499025 92.67997989 866.49536133 92.68432617 C862.81496905 92.68749787 859.13537179 92.66396852 855.45507812 92.63867188 C853.12239685 92.63640001 850.78971341 92.63569486 848.45703125 92.63671875 C847.35390091 92.627509 846.25077057 92.61829926 845.11421204 92.60881042 C844.09272568 92.61503922 843.07123932 92.62126801 842.01879883 92.62768555 C841.11978348 92.62705612 840.22076813 92.6264267 839.29450989 92.6257782 C836.52318736 93.07776549 835.66051891 93.77072107 834 96 C833.16758652 98.91920035 833.16758652 98.91920035 832.75 102.125 C832.57984375 103.20007813 832.4096875 104.27515625 832.234375 105.3828125 C832.15703125 106.24648437 832.0796875 107.11015625 832 108 C832.33 108.33 832.66 108.66 833 109 C832.34 109.33 831.68 109.66 831 110 C831 110.99 831 111.98 831 113 C831.66 113 832.32 113 833 113 C833 113.66 833 114.32 833 115 C832.01 115 831.02 115 830 115 C829.86722656 115.80824219 829.73445312 116.61648437 829.59765625 117.44921875 C829.42105469 118.51785156 829.24445313 119.58648437 829.0625 120.6875 C828.88847656 121.74324219 828.71445312 122.79898438 828.53515625 123.88671875 C828.19304975 125.87692953 827.80887517 127.86065528 827.37109375 129.83203125 C827.24863281 130.54746094 827.12617187 131.26289063 827 132 C827.33 132.33 827.66 132.66 828 133 C827.01 133.495 827.01 133.495 826 134 C825.26786228 136.73962518 825.26786228 136.73962518 824.8125 139.9375 C824.63332031 141.01902344 824.45414063 142.10054687 824.26953125 143.21484375 C823.75553899 145.95381884 823.75553899 145.95381884 825 148 C824.34 148 823.68 148 823 148 C822.814375 149.918125 822.814375 149.918125 822.625 151.875 C822.25 155.75 822.25 155.75 820 158 C819.34 154.7 818.68 151.4 818 148 C817.34 148 816.68 148 816 148 C816.19207031 147.00742188 816.38414062 146.01484375 816.58203125 144.9921875 C817.16695193 140.88221391 816.5666202 137.15065448 815.6875 133.125 C815.55666016 132.44953125 815.42582031 131.7740625 815.29101562 131.078125 C814.93562117 129.3681111 814.47566264 127.68053498 814 126 C813.34 125.67 812.68 125.34 812 125 C812.20625 124.319375 812.4125 123.63875 812.625 122.9375 C813.1053561 119.17471053 812.08811507 116.62705022 811 113 C810.67194145 110.69963762 810.44014753 108.40265719 810.21875 106.08984375 C809.9673381 103.68796224 809.53176297 101.35495029 809 99 C808.34 99 807.68 99 807 99 C807.20625 98.38125 807.4125 97.7625 807.625 97.125 C807.810625 96.073125 807.810625 96.073125 808 95 C804.28832153 91.28832153 797.8843145 92.58752193 792.82421875 92.57446289 C790.63947995 92.56257877 788.45757857 92.51342662 786.2734375 92.46289062 C784.88282628 92.45342462 783.49219771 92.44619043 782.1015625 92.44140625 C780.83650879 92.42795166 779.57145508 92.41449707 778.26806641 92.40063477 C774.83164642 92.71436858 774.83164642 92.71436858 772.55615234 95.40991211 C770.82833114 97.78212601 770.82833114 97.78212601 771 100 C770.34 100.33 769.68 100.66 769 101 C769 101.99 769 102.98 769 104 C768.34 104.33 767.68 104.66 767 105 C766.34786708 107.02463255 766.34786708 107.02463255 766 109 C765.34 109 764.68 109 764 109 C762.47551369 111.9826906 761.06059933 114.818202 760 118 C759.34 118.33 758.68 118.66 758 119 C756.96244882 120.98077953 755.97004121 122.98529902 755 125 C754.27894115 126.25469445 753.54975019 127.50475056 752.8125 128.75 C750.8376439 131.67091397 750.8376439 131.67091397 751 134 C750.34 134 749.68 134 749 134 C748.77054688 134.66257813 748.54109375 135.32515625 748.3046875 136.0078125 C746.61253433 139.88861887 744.40610359 143.31701043 742.125 146.875 C738.95402847 151.85257846 735.88939735 156.85284099 733 162 C732.86741573 154.04494382 732.86741573 154.04494382 734 150 C733.67 149.67 733.34 149.34 733 149 C733.66 148.67 734.32 148.34 735 148 C736.36269056 144.21474843 736.61519388 139.97632986 737 136 C736.67 135.34 736.34 134.68 736 134 C736.66 134 737.32 134 738 134 C738.53364887 131.94077867 739.05142189 129.87743893 739.5625 127.8125 C739.85253906 126.66394531 740.14257812 125.51539063 740.44140625 124.33203125 C740.98068761 121.11519907 740.88247476 119.10327217 740 116 C740.99 115.505 740.99 115.505 742 115 C742.26382526 113.02131052 742.52082055 111.04105095 742.71875 109.0546875 C743.06907107 106.49539749 744.00073385 104.3732571 745 102 C745.89830839 98.94727535 745.89830839 98.94727535 746 96 C745.08233628 94.18411829 745.08233628 94.18411829 743 93 C740.19017426 92.64084793 737.60562442 92.4605741 734.7890625 92.42578125 C733.58133682 92.40368843 733.58133682 92.40368843 732.34921265 92.38114929 C730.64631638 92.35720679 728.94328221 92.34177977 727.24023438 92.33422852 C724.63952463 92.31262068 722.04472318 92.23245393 719.4453125 92.15039062 C711.12956962 91.69650365 711.12956962 91.69650365 703.76123047 94.73730469 Z M1013 93 C1013 93.33 1013 93.66 1013 94 C1024.22 94 1035.44 94 1047 94 C1047 93.67 1047 93.34 1047 93 C1035.78 93 1024.56 93 1013 93 Z M393.17063904 96.40557861 C390.62351142 99.8747904 390 104.39863408 390 108.625 C390 111.70007482 388.97120468 114.08638596 388 117 C387.57816575 119.65961348 387.30226769 122.32277187 387 125 C386.79375 125.804375 386.5875 126.60875 386.375 127.4375 C386.25125 127.953125 386.1275 128.46875 386 129 C386.33 129.33 386.66 129.66 387 130 C386.01 130.495 386.01 130.495 385 131 C384.03858057 133.8268464 384.03858057 133.8268464 383.3125 137.1875 C383.04050781 138.31542969 382.76851563 139.44335938 382.48828125 140.60546875 C381.99183781 144.05674352 382.23552371 146.61885991 383 150 C382.34 150 381.68 150 381 150 C381.33 151.32 381.66 152.64 382 154 C381.01 154.495 381.01 154.495 380 155 C379.05141057 157.63497064 378.82638658 160.35824605 378.5 163.125 C378 167 378 167 377 169 C378.80353569 171.36059046 379.70577911 171.9569306 382.69433594 172.39440918 C384.32290527 172.40703796 384.32290527 172.40703796 385.984375 172.41992188 C387.21575195 172.43583374 388.44712891 172.45174561 389.71582031 172.46813965 C391.06054629 172.46940674 392.40527368 172.46958387 393.75 172.46875 C395.12858389 172.47585029 396.50716483 172.4835491 397.88574219 172.49182129 C400.77417214 172.5052676 403.66232875 172.50683401 406.55078125 172.50097656 C410.25359284 172.49507518 413.95509557 172.52568641 417.65765381 172.56609344 C420.50414096 172.59193213 423.35031115 172.59485158 426.19689941 172.59120178 C427.56208592 172.59289619 428.92728658 172.60256978 430.2923584 172.62034607 C432.19998656 172.64245676 434.10792318 172.62965073 436.015625 172.61523438 C437.10133789 172.61728882 438.18705078 172.61934326 439.30566406 172.62145996 C442.20902812 172.2518099 442.20902812 172.2518099 443.84423828 169.60852051 C444.98054015 167.04392032 445.44343532 165.1558064 445.625 162.375 C445.82294566 159.61318677 446.11112566 157.66662301 447 155 C445.95673566 153.36625397 445.95673566 153.36625397 444 152 C441.48272281 151.73846714 439.21896034 151.6502078 436.70703125 151.70703125 C436.00100266 151.71127609 435.29497406 151.71552094 434.56755066 151.71989441 C432.31547697 151.73666966 430.06430258 151.77431757 427.8125 151.8125 C426.28451815 151.82754843 424.75652224 151.84123656 423.22851562 151.85351562 C419.48533128 151.88656911 415.74281804 151.93834168 412 152 C412.33 149.69 412.66 147.38 413 145 C412.34 145 411.68 145 411 145 C411 144.34 411 143.68 411 143 C412.01425049 142.98541748 413.02850098 142.97083496 414.07348633 142.95581055 C417.83654029 142.89783747 421.59899521 142.82060541 425.36157227 142.73754883 C426.99005409 142.70429464 428.61865131 142.67626416 430.24731445 142.65356445 C432.58855361 142.62002643 434.92873486 142.56771415 437.26953125 142.51171875 C437.99775589 142.50532883 438.72598053 142.4989389 439.47627258 142.49235535 C443.45022467 142.38256925 443.45022467 142.38256925 446.93310547 140.64160156 C448.51169543 138.21266817 448.8516799 135.90832797 449.3125 133.0625 C449.49425781 132.02222656 449.67601562 130.98195312 449.86328125 129.91015625 C450.00991641 126.78892214 449.47442251 125.65795798 448 123 C447.09644775 122.97494385 446.19289551 122.9498877 445.26196289 122.92407227 C441.9203572 122.82912683 438.57893748 122.72988379 435.23754883 122.62768555 C433.7893576 122.5842837 432.34111346 122.54261256 430.89282227 122.50268555 C428.81510441 122.44510938 426.73765427 122.38137972 424.66015625 122.31640625 C423.40855713 122.27974854 422.15695801 122.24309082 420.86743164 122.20532227 C418 122 418 122 417 121 C417.66 120.67 418.32 120.34 419 120 C419.40729228 117.67843403 419.74438677 115.3431213 420 113 C421.47593628 113.02356567 421.47593628 113.02356567 422.98168945 113.04760742 C426.63248508 113.10190978 430.28324501 113.13635085 433.93432617 113.16479492 C435.51446536 113.17988094 437.09456269 113.2003525 438.67456055 113.22631836 C440.94590585 113.26271126 443.21669759 113.27972762 445.48828125 113.29296875 C446.19463211 113.30845261 446.90098297 113.32393646 447.6287384 113.33988953 C451.51803997 113.34525631 451.51803997 113.34525631 454.92163086 111.64819336 C456.45426893 109.30568948 456.80004723 107.12551774 457.25 104.375 C457.42015625 103.39273438 457.5903125 102.41046875 457.765625 101.3984375 C457.84296875 100.60695313 457.9203125 99.81546875 458 99 C457.505 98.505 457.505 98.505 457 98 C457.66 97.34 458.32 96.68 459 96 C456.29340775 94.64670387 454.15943245 94.85788561 451.12915039 94.83886719 C449.89769791 94.82925964 448.66624542 94.8196521 447.3974762 94.80975342 C446.04753809 94.80490616 444.69759784 94.80062715 443.34765625 94.796875 C441.96764625 94.79112385 440.58763629 94.78536612 439.20762634 94.77960205 C436.31329984 94.76909357 433.4190011 94.76324971 430.5246582 94.75976562 C426.81433119 94.75427683 423.10437041 94.73024044 419.39415836 94.70179367 C416.54344099 94.68317982 413.69281213 94.67796241 410.84203911 94.67642975 C409.47407463 94.67340054 408.1061118 94.6653629 406.73820686 94.65224457 C404.82562629 94.63520999 402.91289492 94.63890538 401.00024414 94.64355469 C399.91151505 94.63990906 398.82278595 94.63626343 397.70106506 94.63250732 C394.97927458 94.77502921 394.97927458 94.77502921 393.17063904 96.40557861 Z M461 97 C461.33 97.33 461.66 97.66 462 98 C461.01 98.495 461.01 98.495 460 99 C459.03977352 101.86129006 459.03977352 101.86129006 458.3125 105.25 C458.04050781 106.38953125 457.76851563 107.5290625 457.48828125 108.703125 C457.01874257 111.87345016 457.14399403 113.94365653 458 117 C457.34 117.33 456.68 117.66 456 118 C455.73621582 119.97838133 455.47995916 121.95857315 455.2890625 123.9453125 C455 126 455 126 453.875 128.625 C452.73570393 131.71737504 453.2648442 133.83883004 454 137 C453.34 137 452.68 137 452 137 C451.85820312 137.56976563 451.71640625 138.13953125 451.5703125 138.7265625 C451.19992958 140.20302044 450.82023798 141.6771857 450.4296875 143.1484375 C449.27574108 147.78047594 448.78606803 151.26566532 450 156 C449.34 156 448.68 156 448 156 C447.21378471 158.69559528 446.81860838 161.34349823 446.5 164.125 C446 168 446 168 445 170 C448.45257496 172.30171664 449.80408481 172.26570664 453.87670898 172.30639648 C455.08483749 172.32238388 456.292966 172.33837128 457.53770447 172.35484314 C458.84397293 172.36020584 460.15024139 172.36556854 461.49609375 172.37109375 C462.84985962 172.38006117 464.20362447 172.38918304 465.55738831 172.39845276 C468.39448454 172.41493773 471.23146282 172.42264208 474.06860352 172.42553711 C477.70176818 172.43092455 481.33382285 172.46861881 484.96667385 172.51428127 C487.76255837 172.54404119 490.55817504 172.55126038 493.35420418 172.55226326 C495.34402917 172.5585088 497.3337373 172.58798623 499.323349 172.61778259 C500.53462967 172.61170486 501.74591034 172.60562714 502.99389648 172.59936523 C504.05962387 172.60443588 505.12535126 172.60950653 506.22337341 172.61473083 C509.21838213 172.2157649 509.21838213 172.2157649 511.37538147 169.58753967 C513.17724699 167.22691129 513.17724699 167.22691129 513 165 C512.34 165 511.68 165 511 165 C511 164.34 511 163.68 511 163 C511.99 162.67 512.98 162.34 514 162 C514.29562367 156.67829506 514.29562367 156.67829506 512 152 C509.38322508 151.66207464 506.99063608 151.51113911 504.3671875 151.48828125 C503.61535187 151.47033005 502.86351624 151.45237885 502.08889771 151.43388367 C499.68432244 151.37964219 497.27994715 151.34584208 494.875 151.3125 C493.24606583 151.27933898 491.6171581 151.24485045 489.98828125 151.20898438 C485.99233154 151.12390838 481.99644254 151.05716422 478 151 C478 150.34 478 149.68 478 149 C478.99 149 479.98 149 481 149 C481.33 146.69 481.66 144.38 482 142 C482.92337158 142.02618408 483.84674316 142.05236816 484.7980957 142.0793457 C488.22550017 142.16458305 491.65177855 142.22725175 495.07983398 142.2746582 C496.56308768 142.2997981 498.04621753 142.33391592 499.52905273 142.37719727 C501.66160595 142.43788258 503.79252205 142.46621116 505.92578125 142.48828125 C507.20880127 142.51446533 508.49182129 142.54064941 509.8137207 142.56762695 C513.1661301 142.33324927 513.1661301 142.33324927 514.89916992 139.60620117 C516.14639259 136.65341741 517 134.2096823 517 131 C517.20625 130.38125 517.4125 129.7625 517.625 129.125 C518.29036743 126.58765666 518.29036743 126.58765666 516 123 C501.15 122.505 501.15 122.505 486 122 C486.66 119.36 487.32 116.72 488 114 C488.98395752 113.9906543 489.96791504 113.98130859 490.98168945 113.97167969 C494.6330286 113.9318012 498.28352319 113.8660502 501.93432617 113.79248047 C503.51429392 113.76425807 505.09440318 113.74304975 506.67456055 113.72900391 C508.94653845 113.70759035 511.21681271 113.66095466 513.48828125 113.609375 C514.19463211 113.60814636 514.90098297 113.60691772 515.6287384 113.60565186 C518.87578193 113.50870819 520.56555738 113.42539972 522.93530273 111.10498047 C524.11543255 108.77178184 524.52395696 106.97449492 524.75 104.375 C524.82734375 103.59898438 524.9046875 102.82296875 524.984375 102.0234375 C525.15370036 99.92897836 525.15370036 99.92897836 524 98 C524.66 98 525.32 98 526 98 C525.505 96.515 525.505 96.515 525 95 C516.95076017 94.95371165 508.90157571 94.91814874 500.85223579 94.89637566 C497.1148217 94.88592702 493.3774985 94.8717483 489.64013672 94.84912109 C486.035095 94.82743096 482.43014083 94.81543951 478.82503891 94.81024551 C477.44788102 94.80654284 476.07072806 94.79931266 474.69360733 94.78853989 C472.76860455 94.77407665 470.84351413 94.77318352 468.91845703 94.77294922 C467.27298386 94.76628738 467.27298386 94.76628738 465.5942688 94.75949097 C462.83765688 94.73646772 462.83765688 94.73646772 461 97 Z M1064.18994141 94.8972168 C1062.27565598 98.2800113 1062.24946515 101.13329018 1062 105 C1062.495 105.99 1062.495 105.99 1063 107 C1062.34 107 1061.68 107 1061 107 C1061 107.66 1061 108.32 1061 109 C1061.66 109 1062.32 109 1063 109 C1063 109.66 1063 110.32 1063 111 C1062.01 111 1061.02 111 1060 111 C1059.05675742 115.31196609 1058.51958285 119.62065881 1058 124 C1057.34 124 1056.68 124 1056 124 C1055.855625 122.948125 1055.71125 121.89625 1055.5625 120.8125 C1054.83377576 115.87336905 1053.82242358 111.08079506 1052.5625 106.25 C1052.31628906 105.28578125 1052.07007813 104.3215625 1051.81640625 103.328125 C1051.24445208 100.83220675 1051.24445208 100.83220675 1049 100 C1049.33 98.35 1049.66 96.7 1050 95 C1044.62485095 94.95064491 1039.24983315 94.91430198 1033.87451172 94.89013672 C1032.04506127 94.88006516 1030.21562697 94.86640724 1028.38623047 94.84912109 C1025.76005066 94.82492323 1023.13408325 94.81352868 1020.5078125 94.8046875 C1019.68693146 94.79436493 1018.86605042 94.78404236 1018.02029419 94.77340698 C1016.01210858 94.77300816 1014.00444618 94.8775046 1012 95 C1009.4537322 97.5462678 1009.62719882 99.50753434 1009.2890625 102.9765625 C1009 105 1009 105 1007.875 107.6875 C1006.8048499 110.51575384 1007.18169973 112.13594905 1008 115 C1007.34 115.33 1006.68 115.66 1006 116 C1005.03977352 118.86129006 1005.03977352 118.86129006 1004.3125 122.25 C1004.04050781 123.38953125 1003.76851562 124.5290625 1003.48828125 125.703125 C1003.01874257 128.87345016 1003.14399403 130.94365653 1004 134 C1003.01 134.495 1003.01 134.495 1002 135 C1001.73621582 136.97838133 1001.47995916 138.95857315 1001.2890625 140.9453125 C1001 143 1001 143 999.875 145.625 C998.73570393 148.71737504 999.2648442 150.83883004 1000 154 C999.34 154 998.68 154 998 154 C997.87625 155.216875 997.7525 156.43375 997.625 157.6875 C997.30559118 160.35080593 996.90284416 162.23749204 995.875 164.75 C994.86718962 167.34151241 994.99701356 168.44694361 996 171 C998.52624234 173.52624234 1005.47777899 172.18554982 1008.875 172.1875 C1010.54755859 172.20586914 1010.54755859 172.20586914 1012.25390625 172.22460938 C1013.85685547 172.22750977 1013.85685547 172.22750977 1015.4921875 172.23046875 C1016.96727783 172.23663208 1016.96727783 172.23663208 1018.47216797 172.24291992 C1021.24600742 172.17729178 1021.24600742 172.17729178 1024 170 C1024.77019559 167.30981684 1024.82103589 164.81868476 1025 162 C1024.505 161.505 1024.505 161.505 1024 161 C1024.99 160.505 1024.99 160.505 1026 160 C1026 159.01 1026 158.02 1026 157 C1025.34 157 1024.68 157 1024 157 C1024 156.34 1024 155.68 1024 155 C1024.99 155 1025.98 155 1027 155 C1027.185625 153.205625 1027.185625 153.205625 1027.375 151.375 C1027.82178104 147.71657556 1028.78457207 144.48422672 1030 141 C1030 140.01 1030 139.02 1030 138 C1029.34 138 1028.68 138 1028 138 C1028 137.34 1028 136.68 1028 136 C1028.99 136 1029.98 136 1031 136 C1031.09087891 136.90492188 1031.09087891 136.90492188 1031.18359375 137.828125 C1031.26738281 138.62734375 1031.35117188 139.4265625 1031.4375 140.25 C1031.51871094 141.03890625 1031.59992188 141.8278125 1031.68359375 142.640625 C1032.1122116 145.83673836 1032.82708628 148.58297279 1034.0625 151.5625 C1035 154 1035 154 1035 157 C1035.99 157.495 1035.99 157.495 1037 158 C1036.505 159.485 1036.505 159.485 1036 161 C1036.99 161.495 1036.99 161.495 1038 162 C1037.79375 162.556875 1037.5875 163.11375 1037.375 163.6875 C1036.88950625 166.68137815 1037.69110486 168.30949332 1039 171 C1040.9643271 172.9643271 1044.74473418 172.18747535 1047.4296875 172.203125 C1048.17582306 172.20882507 1048.92195862 172.21452515 1049.69070435 172.22039795 C1051.27279232 172.22986151 1052.85490012 172.2363873 1054.43701172 172.24023438 C1056.85809782 172.2499323 1059.2783324 172.28093823 1061.69921875 172.3125 C1063.23436994 172.3190306 1064.76952723 172.32428085 1066.3046875 172.328125 C1067.39231888 172.3466452 1067.39231888 172.3466452 1068.50192261 172.36553955 C1072.47408857 172.36012623 1072.47408857 172.36012623 1075.94189453 170.61621094 C1078.03837185 167.41393133 1078.04427328 163.6523633 1078.5 159.9375 C1078.85115119 157.17218441 1079.22438013 154.65926813 1080 152 C1079.34 152 1078.68 152 1078 152 C1078 151.34 1078 150.68 1078 150 C1078.99 150 1079.98 150 1081 150 C1081.53364887 147.94077867 1082.05142189 145.87743893 1082.5625 143.8125 C1082.85253906 142.66394531 1083.14257812 141.51539063 1083.44140625 140.33203125 C1083.98068761 137.11519907 1083.88247476 135.10327217 1083 132 C1083.66 131.67 1084.32 131.34 1085 131 C1085.26378418 129.02161867 1085.52004084 127.04142685 1085.7109375 125.0546875 C1086 123 1086 123 1087.125 120.375 C1088.26429607 117.28262496 1087.7351558 115.16116996 1087 112 C1087.66 112 1088.32 112 1089 112 C1089.53364887 109.94077867 1090.05142189 107.87743893 1090.5625 105.8125 C1090.85253906 104.66394531 1091.14257812 103.51539062 1091.44140625 102.33203125 C1091.9832235 99.10007243 1091.94800855 97.10515377 1091 94 C1088.45166146 91.45166146 1081.54813119 92.71697587 1078.125 92.6875 C1077.00996094 92.65849609 1075.89492187 92.62949219 1074.74609375 92.59960938 C1073.67746094 92.59123047 1072.60882812 92.58285156 1071.5078125 92.57421875 C1070.52441895 92.55963623 1069.54102539 92.54505371 1068.52783203 92.5300293 C1065.86614265 92.7698316 1065.86614265 92.7698316 1064.18994141 94.8972168 Z M199 121 C199 121.33 199 121.66 199 122 C207.58 122 216.16 122 225 122 C225 121.67 225 121.34 225 121 C216.42 121 207.84 121 199 121 Z M193 143 C193 143.33 193 143.66 193 144 C201.91 144 210.82 144 220 144 C220 143.67 220 143.34 220 143 C211.09 143 202.18 143 193 143 Z M633 165 C634 167 634 167 634 167 Z M299 171 C299 171.33 299 171.66 299 172 C307.91 172 316.82 172 326 172 C326 171.67 326 171.34 326 171 C317.09 171 308.18 171 299 171 Z M669 171 C669 171.33 669 171.66 669 172 C676.59 172 684.18 172 692 172 C692 171.67 692 171.34 692 171 C684.41 171 676.82 171 669 171 Z M912 171 C912 171.33 912 171.66 912 172 C920.58 172 929.16 172 938 172 C938 171.67 938 171.34 938 171 C929.42 171 920.84 171 912 171 Z " fill="#000000" transform="translate(0,0)"/>
<path d="M0 0 C17.82 0 35.64 0 54 0 C54 24.09 54 48.18 54 73 C29.58 73 5.16 73 -20 73 C-19.34 69.7 -18.68 66.4 -18 63 C-17.01 62.505 -17.01 62.505 -16 62 C-16 59.69 -16 57.38 -16 55 C-15.34 55 -14.68 55 -14 55 C-14 52.69 -14 50.38 -14 48 C-13.34 48 -12.68 48 -12 48 C-11.34 43.38 -10.68 38.76 -10 34 C-9.34 34 -8.68 34 -8 34 C-8.495 32.515 -8.495 32.515 -9 31 C-8.34 31 -7.68 31 -7 31 C-7 30.34 -7 29.68 -7 29 C-7.66 28.67 -8.32 28.34 -9 28 C-8.01 28 -7.02 28 -6 28 C-5.67 26.02 -5.34 24.04 -5 22 C-5.66 21.67 -6.32 21.34 -7 21 C-6.01 21 -5.02 21 -4 21 C-4 20.34 -4 19.68 -4 19 C-4.66 18.67 -5.32 18.34 -6 18 C-5.34 17.67 -4.68 17.34 -4 17 C-4 16.01 -4 15.02 -4 14 C-3.34 14 -2.68 14 -2 14 C-2.020625 13.0925 -2.04125 12.185 -2.0625 11.25 C-2.0110245 8.57327412 -1.7784983 6.53011948 -1 4 C-0.34 4 0.32 4 1 4 C0.67 2.68 0.34 1.36 0 0 Z " fill="#000000" transform="translate(1226,0)"/>
<path d="M0 0 C1.10370043 3.3111013 0.92673641 5.24748949 0.5625 8.6875 C0.46066406 9.68136719 0.35882812 10.67523438 0.25390625 11.69921875 C0.17011719 12.45847656 0.08632812 13.21773437 0 14 C-0.66 14 -1.32 14 -2 14 C-2 14.99 -2 15.98 -2 17 C-1.34 17.33 -0.68 17.66 0 18 C-3.25389988 20.16926659 -4.13395957 20.24080049 -7.88671875 20.1953125 C-8.82451172 20.18886719 -9.76230469 20.18242188 -10.72851562 20.17578125 C-12.19321289 20.15064453 -12.19321289 20.15064453 -13.6875 20.125 C-14.67556641 20.11597656 -15.66363281 20.10695313 -16.68164062 20.09765625 C-19.12133765 20.0740843 -21.56054697 20.04118022 -24 20 C-24 19.67 -24 19.34 -24 19 C-23.29875 18.979375 -22.5975 18.95875 -21.875 18.9375 C-18.19893392 17.7387828 -17.02983801 15.93226447 -14.671875 12.97265625 C-10.46905343 8.01371958 -5.10491813 3.98821729 0 0 Z " fill="#000000" transform="translate(1188,55)"/>
<path d="M0 0 C99.99 0 199.98 0 303 0 C303 0.33 303 0.66 303 1 C203.01 1 103.02 1 0 1 C0 0.67 0 0.34 0 0 Z " fill="#000000" transform="translate(845,74)"/>
<path d="M0 0 C25.08 0 50.16 0 76 0 C76 0.33 76 0.66 76 1 C50.92 1 25.84 1 0 1 C0 0.67 0 0.34 0 0 Z " fill="#000000" transform="translate(1204,74)"/>
<path d="M0 0 C9.9 0 19.8 0 30 0 C30 0.33 30 0.66 30 1 C20.1 1 10.2 1 0 1 C0 0.67 0 0.34 0 0 Z " fill="#000000" transform="translate(845,79)"/>
<path d="M0 0 C11.88 0 23.76 0 36 0 C36 0.33 36 0.66 36 1 C24.12 1 12.24 1 0 1 C0 0.67 0 0.34 0 0 Z " fill="#000000" transform="translate(940,81)"/>
<path d="M0 0 C11.88 0 23.76 0 36 0 C36 0.33 36 0.66 36 1 C24.12 1 12.24 1 0 1 C0 0.67 0 0.34 0 0 Z " fill="#000000" transform="translate(981,82)"/>
<path d="M0 0 C11.88 0 23.76 0 36 0 C36 0.33 36 0.66 36 1 C24.12 1 12.24 1 0 1 C0 0.67 0 0.34 0 0 Z " fill="#000000" transform="translate(1022,83)"/>
<path d="M0 0 C0 36.63 0 73.26 0 111 C-34.65 111 -69.3 111 -105 111 C-105.33 110.34 -105.66 109.68 -106 109 C-105.34 109 -104.68 109 -104 109 C-104 108.01 -104 107.02 -104 106 C-104.66 105.67 -105.32 105.34 -106 105 C-105.01 105 -104.02 105 -103 105 C-103 102.36 -103 99.72 -103 97 C-102.34 97 -101.68 97 -101 97 C-100.67 94.69 -100.34 92.38 -100 90 C-100.66 89.67 -101.32 89.34 -102 89 C-100.515 88.505 -100.515 88.505 -99 88 C-98.86722656 87.24074219 -98.73445313 86.48148437 -98.59765625 85.69921875 C-98.42105469 84.70535156 -98.24445313 83.71148437 -98.0625 82.6875 C-97.88847656 81.70136719 -97.71445313 80.71523437 -97.53515625 79.69921875 C-97 77 -97 77 -96 74 C-96.66 73.67 -97.32 73.34 -98 73 C-96.515 72.505 -96.515 72.505 -95 72 C-95 69.36 -95 66.72 -95 64 C-94.34 64 -93.68 64 -93 64 C-93 61.36 -93 58.72 -93 56 C-92.34 56 -91.68 56 -91 56 C-91 55.01 -91 54.02 -91 53 C-91.66 52.67 -92.32 52.34 -93 52 C-92.01 52 -91.02 52 -90 52 C-90 51.01 -90 50.02 -90 49 C-90.66 48.67 -91.32 48.34 -92 48 C-91.01 48 -90.02 48 -89 48 C-88.98324219 47.09121094 -88.96648437 46.18242187 -88.94921875 45.24609375 C-88 42 -88 42 -84.89453125 39.91015625 C-83.54424849 39.27180411 -82.18260114 38.65712579 -80.8125 38.0625 C-79.35780118 37.3873039 -77.90337962 36.71151014 -76.44921875 36.03515625 C-75.70978027 35.70016113 -74.9703418 35.36516602 -74.20849609 35.02001953 C-70.79730917 33.44452329 -67.46633317 31.7173753 -64.125 30 C-58.24553571 27 -58.24553571 27 -56 27 C-55.67 26.34 -55.34 25.68 -55 25 C-53.35184865 24.28879022 -51.6793724 23.63397994 -50 23 C-48.76202706 22.43509643 -47.52925038 21.85872088 -46.30078125 21.2734375 C-45.64916016 20.9640625 -44.99753906 20.6546875 -44.32617188 20.3359375 C-42.97114102 19.68930784 -41.61698791 19.04083594 -40.26367188 18.390625 C-35.21623884 16 -35.21623884 16 -33 16 C-32.67 15.34 -32.34 14.68 -32 14 C-29.92578125 13.03515625 -29.92578125 13.03515625 -27.3125 12.0625 C-24.27036206 10.90048165 -21.41951538 9.70975769 -18.5 8.25 C-16 7 -16 7 -14 7 C-13.67 6.34 -13.34 5.68 -13 5 C-11.66923011 4.65657551 -10.33568021 4.32380126 -9 4 C-8.34 3.34 -7.68 2.68 -7 2 C-1.55555556 0 -1.55555556 0 0 0 Z " fill="#000000" transform="translate(1280,83)"/>
<path d="M0 0 C11.88 0 23.76 0 36 0 C36 0.33 36 0.66 36 1 C24.12 1 12.24 1 0 1 C0 0.67 0 0.34 0 0 Z " fill="#000000" transform="translate(1123,85)"/>
<path d="M0 0 C6.27 0 12.54 0 19 0 C19 0.33 19 0.66 19 1 C12.73 1 6.46 1 0 1 C0 0.67 0 0.34 0 0 Z " fill="#000000" transform="translate(1164,86)"/>
<path d="M0 0 C7.26 0 14.52 0 22 0 C22 0.33 22 0.66 22 1 C14.74 1 7.48 1 0 1 C0 0.67 0 0.34 0 0 Z " fill="#000000" transform="translate(1205,87)"/>
<path d="M0 0 C1.20366211 0.00483398 1.20366211 0.00483398 2.43164062 0.00976562 C3.68170898 0.02233398 3.68170898 0.02233398 4.95703125 0.03515625 C5.80201172 0.03966797 6.64699219 0.04417969 7.51757812 0.04882812 C9.6015928 0.06060222 11.68557102 0.07853735 13.76953125 0.09765625 C10.41538945 3.69021319 6.41370732 5.87601587 2.20703125 8.34765625 C1.42650391 8.81945312 0.64597656 9.29125 -0.15820312 9.77734375 C-0.90521484 10.21820313 -1.65222656 10.6590625 -2.421875 11.11328125 C-3.10451416 11.51836914 -3.78715332 11.92345703 -4.49047852 12.34082031 C-5.35177368 12.7154541 -5.35177368 12.7154541 -6.23046875 13.09765625 C-6.89046875 12.76765625 -7.55046875 12.43765625 -8.23046875 12.09765625 C-7.90046875 9.78765625 -7.57046875 7.47765625 -7.23046875 5.09765625 C-6.57046875 5.09765625 -5.91046875 5.09765625 -5.23046875 5.09765625 C-5.23046875 4.10765625 -5.23046875 3.11765625 -5.23046875 2.09765625 C-5.89046875 1.76765625 -6.55046875 1.43765625 -7.23046875 1.09765625 C-4.46481493 0.17577164 -2.84763173 -0.02019597 0 0 Z " fill="#000000" transform="translate(1206.23046875,88.90234375)"/>
<path d="M0 0 C5.94 0 11.88 0 18 0 C18 0.33 18 0.66 18 1 C12.06 1 6.12 1 0 1 C0 0.67 0 0.34 0 0 Z " fill="#000000" transform="translate(16,94)"/>
<path d="M0 0 C5.61 0 11.22 0 17 0 C17 0.33 17 0.66 17 1 C11.39 1 5.78 1 0 1 C0 0.67 0 0.34 0 0 Z " fill="#000000" transform="translate(320,94)"/>
<path d="M0 0 C12.87 0 25.74 0 39 0 C39 0.33 39 0.66 39 1 C26.13 1 13.26 1 0 1 C0 0.67 0 0.34 0 0 Z " fill="#000000" transform="translate(536,94)"/>
<path d="M0 0 C0.33 0.99 0.66 1.98 1 3 C1.66 3.33 2.32 3.66 3 4 C2.01 4 1.02 4 0 4 C0.33 5.65 0.66 7.3 1 9 C0.34 9 -0.32 9 -1 9 C-1 9.99 -1 10.98 -1 12 C-0.34 12.33 0.32 12.66 1 13 C0.01 13.495 0.01 13.495 -1 14 C-2.66067137 18.86925247 -3.26299506 23.87159632 -3 29 C-3.66 29 -4.32 29 -5 29 C-5 29.99 -5 30.98 -5 32 C-4.34 32.33 -3.68 32.66 -3 33 C-3.99 33 -4.98 33 -6 33 C-6.33 35.64 -6.66 38.28 -7 41 C-6.34 41.33 -5.68 41.66 -5 42 C-5.99 42 -6.98 42 -8 42 C-7.67 43.65 -7.34 45.3 -7 47 C-7.66 47 -8.32 47 -9 47 C-9 47.99 -9 48.98 -9 50 C-8.34 50 -7.68 50 -7 50 C-7 50.66 -7 51.32 -7 52 C-7.99 52 -8.98 52 -10 52 C-10.07347656 52.88751953 -10.07347656 52.88751953 -10.1484375 53.79296875 C-10.56456867 58.19104472 -11.04965595 61.96928897 -13 66 C-15.58047436 64.70976282 -15.67022964 63.72910609 -16.625 61.0625 C-16.88539063 60.35222656 -17.14578125 59.64195312 -17.4140625 58.91015625 C-18 57 -18 57 -18 55 C-18.99 54.67 -19.98 54.34 -21 54 C-21.10183594 53.14921875 -21.20367187 52.2984375 -21.30859375 51.421875 C-22.06905908 47.65821608 -23.38281717 44.69672505 -25.0625 41.25 C-28 35.19529412 -28 35.19529412 -28 33 C-28.66 32.67 -29.32 32.34 -30 32 C-27.58292317 27.43688567 -24.44345788 24.18276327 -20.80078125 20.60546875 C-20.20573288 20.01325027 -19.61068451 19.4210318 -18.99760437 18.81086731 C-17.10723599 16.93164001 -15.21001271 15.05951045 -13.3125 13.1875 C-12.02493082 11.90996846 -10.73781635 10.63197846 -9.45117188 9.35351562 C-6.30602105 6.23034457 -3.1547061 3.11351781 0 0 Z " fill="#000000" transform="translate(311,98)"/>
<path d="M0 0 C6.93 0 13.86 0 21 0 C21 0.33 21 0.66 21 1 C14.07 1 7.14 1 0 1 C0 0.67 0 0.34 0 0 Z " fill="#000000" transform="translate(903,111)"/>
<path d="M0 0 C7.26 0 14.52 0 22 0 C22 0.33 22 0.66 22 1 C14.74 1 7.48 1 0 1 C0 0.67 0 0.34 0 0 Z " fill="#000000" transform="translate(951,111)"/>
<path d="M0 0 C2.40145644 1.28449996 3.97571166 2.34531425 5.6875 4.4375 C5.3575 5.4275 5.0275 6.4175 4.6875 7.4375 C5.3475 7.4375 6.0075 7.4375 6.6875 7.4375 C6.6875 10.4075 6.6875 13.3775 6.6875 16.4375 C6.0275 16.4375 5.3675 16.4375 4.6875 16.4375 C4.6875 17.4275 4.6875 18.4175 4.6875 19.4375 C5.3475 19.7675 6.0075 20.0975 6.6875 20.4375 C6.0275 20.7675 5.3675 21.0975 4.6875 21.4375 C3.96056096 23.41638961 3.28933749 25.41704558 2.6875 27.4375 C3.3475 27.7675 4.0075 28.0975 4.6875 28.4375 C3.6975 28.4375 2.7075 28.4375 1.6875 28.4375 C1.460625 29.324375 1.23375 30.21125 1 31.125 C-0.75505232 35.55441775 -3.31815787 38.04146051 -7.1875 40.75 C-10.34881618 41.77277877 -13.01936717 41.73687571 -16.3125 41.4375 C-18.25 40.0625 -18.25 40.0625 -19.3125 38.4375 C-19.3125 37.7775 -19.3125 37.1175 -19.3125 36.4375 C-19.9725 36.1075 -20.6325 35.7775 -21.3125 35.4375 C-21.000788 32.91656702 -20.68815098 30.3957543 -20.375 27.875 C-20.28798828 27.17052734 -20.20097656 26.46605469 -20.11132812 25.74023438 C-19.55865509 21.29838073 -18.95855404 16.86675336 -18.3125 12.4375 C-17.6525 12.4375 -16.9925 12.4375 -16.3125 12.4375 C-15.30138907 9.38836772 -15.30138907 9.38836772 -16.3125 6.4375 C-14.66428756 5.40736723 -12.99138441 4.41684924 -11.3125 3.4375 C-10.68472656 3.05464844 -10.05695313 2.67179687 -9.41015625 2.27734375 C-5.84978283 0.26139335 -4.14295137 -0.70352004 0 0 Z " fill="#000000" transform="translate(109.3125,111.5625)"/>
<path d="M0 0 C6.625 -0.125 6.625 -0.125 10 1 C10.36567164 7.33830846 10.36567164 7.33830846 8.6875 10.375 C7 12 7 12 4 13 C3.67 13.66 3.34 14.32 3 15 C0.36 15 -2.28 15 -5 15 C-4.67 14.01 -4.34 13.02 -4 12 C-3.34 12 -2.68 12 -2 12 C-1.90912109 11.07767578 -1.90912109 11.07767578 -1.81640625 10.13671875 C-1.69072266 8.92435547 -1.69072266 8.92435547 -1.5625 7.6875 C-1.48128906 6.88699219 -1.40007813 6.08648437 -1.31640625 5.26171875 C-1 3 -1 3 0 0 Z " fill="#000000" transform="translate(862,112)"/>
<path d="M0 0 C1.89510699 -0.08160748 3.79124504 -0.13946459 5.6875 -0.1875 C6.74324219 -0.22230469 7.79898438 -0.25710937 8.88671875 -0.29296875 C13.34076628 0.12616998 15.88501354 1.88501354 19 5 C19.6328125 7.6015625 19.6328125 7.6015625 20.125 10.625 C20.29257812 11.62789062 20.46015625 12.63078125 20.6328125 13.6640625 C20.75398437 14.43492188 20.87515625 15.20578125 21 16 C20.34 16 19.68 16 19 16 C19 17.32 19 18.64 19 20 C19.66 20.33 20.32 20.66 21 21 C20.01 21.33 19.02 21.66 18 22 C18.33 22.99 18.66 23.98 19 25 C18.34 25 17.68 25 17 25 C16.773125 25.886875 16.54625 26.77375 16.3125 27.6875 C14.81610154 31.4641247 13.07508263 33.38617976 10 36 C9.34 36 8.68 36 8 36 C7.67 36.66 7.34 37.32 7 38 C4.66255706 38.46806645 2.30260921 38.82669794 -0.0625 39.125 C-1.99802734 39.37636719 -1.99802734 39.37636719 -3.97265625 39.6328125 C-4.97167969 39.75398438 -5.97070312 39.87515625 -7 40 C-7.33 39.34 -7.66 38.68 -8 38 C-7.34 38 -6.68 38 -6 38 C-6 34.7 -6 31.4 -6 28 C-5.34 28 -4.68 28 -4 28 C-3.16511613 21.67873638 -2.54881057 15.35219042 -2 9 C-1.34 9 -0.68 9 0 9 C0 6.03 0 3.06 0 0 Z " fill="#000000" transform="translate(555,113)"/>
<path d="M0 0 C5.94 0 11.88 0 18 0 C18 0.33 18 0.66 18 1 C12.06 1 6.12 1 0 1 C0 0.67 0 0.34 0 0 Z " fill="#000000" transform="translate(336,123)"/>
<path d="M0 0 C9.24 0 18.48 0 28 0 C28 0.33 28 0.66 28 1 C18.76 1 9.52 1 0 1 C0 0.67 0 0.34 0 0 Z " fill="#000000" transform="translate(484,124)"/>
<path d="M0 0 C2.56616632 3.84924948 2.55097676 6.4349304 3 11 C0.36 11 -2.28 11 -5 11 C-4.814375 10.38125 -4.62875 9.7625 -4.4375 9.125 C-3.76313824 6.95839822 -3.76313824 6.95839822 -5 5 C-3.35 3.35 -1.7 1.7 0 0 Z " fill="#000000" transform="translate(782,127)"/>
<path d="M0 0 C9.24 0 18.48 0 28 0 C28 0.33 28 0.66 28 1 C18.76 1 9.52 1 0 1 C0 0.67 0 0.34 0 0 Z " fill="#000000" transform="translate(412,140)"/>
<path d="M0 0 C5.94 0 11.88 0 18 0 C18 0.33 18 0.66 18 1 C12.06 1 6.12 1 0 1 C0 0.67 0 0.34 0 0 Z " fill="#000000" transform="translate(332,141)"/>
<path d="M0 0 C10.89 0 21.78 0 33 0 C33 0.33 33 0.66 33 1 C22.11 1 11.22 1 0 1 C0 0.67 0 0.34 0 0 Z " fill="#000000" transform="translate(26,153)"/>
<path d="M0 0 C7.59 0 15.18 0 23 0 C23 0.33 23 0.66 23 1 C15.41 1 7.82 1 0 1 C0 0.67 0 0.34 0 0 Z " fill="#000000" transform="translate(765,155)"/>
<path d="M0 0 C17.16 0 34.32 0 52 0 C52 0.33 52 0.66 52 1 C34.84 1 17.68 1 0 1 C0 0.67 0 0.34 0 0 Z " fill="#000000" transform="translate(0,170)"/>
<path d="M0 0 C7.26 0 14.52 0 22 0 C22 0.33 22 0.66 22 1 C14.74 1 7.48 1 0 1 C0 0.67 0 0.34 0 0 Z " fill="#000000" transform="translate(271,170)"/>
<path d="M0 0 C13.86 0 27.72 0 42 0 C42 0.33 42 0.66 42 1 C28.14 1 14.28 1 0 1 C0 0.67 0 0.34 0 0 Z " fill="#000000" transform="translate(520,170)"/>
<path d="M0 0 C5.61 0 11.22 0 17 0 C17 0.33 17 0.66 17 1 C11.39 1 5.78 1 0 1 C0 0.67 0 0.34 0 0 Z " fill="#000000" transform="translate(707,170)"/>
<path d="M0 0 C5.94 0 11.88 0 18 0 C18 0.33 18 0.66 18 1 C12.06 1 6.12 1 0 1 C0 0.67 0 0.34 0 0 Z " fill="#000000" transform="translate(735,170)"/>
<path d="M0 0 C5.94 0 11.88 0 18 0 C18 0.33 18 0.66 18 1 C12.06 1 6.12 1 0 1 C0 0.67 0 0.34 0 0 Z " fill="#000000" transform="translate(826,170)"/>
<path d="M0 0 C7.92 0 15.84 0 24 0 C24 0.33 24 0.66 24 1 C16.08 1 8.16 1 0 1 C0 0.67 0 0.34 0 0 Z " fill="#000000" transform="translate(1045,170)"/>
</svg>
