<?xml version="1.0" encoding="UTF-8"?>
<svg version="1.1" xmlns="http://www.w3.org/2000/svg" width="1280" height="436">
<path d="M0 0 C422.4 0 844.8 0 1280 0 C1280 143.88 1280 287.76 1280 436 C857.6 436 435.2 436 0 436 C0 292.12 0 148.24 0 0 Z M226.484375 116.89453125 C216.46500623 129.41874222 212.74009424 145.02297067 214.2734375 160.81640625 C215.89466662 172.54737543 220.10875989 182.17135556 228 191 C228.54527344 191.62648438 229.09054688 192.25296875 229.65234375 192.8984375 C239.06175851 203.03846564 252.33743145 208.11854396 266 209 C267.18916016 209.07734375 267.18916016 209.07734375 268.40234375 209.15625 C283.56302451 209.69054712 297.76889575 205.64907415 309.3125 195.6875 C321.30939558 184.17124928 327.7843799 171.56456459 328.28344727 154.84863281 C328.49012578 139.02991076 324.20900503 125.75197503 313.1875 114.0625 C300.39956457 102.00530373 284.52456902 97.19382561 267.2265625 97.69140625 C251.09551237 98.59006161 237.63995172 105.20696894 226.484375 116.89453125 Z M730 116 C719.01651633 129.26717829 715.88871534 144.05290892 717 161 C719.14585691 176.02099836 725.74965205 188.32128197 737.6875 197.75 C751.91166647 207.89999675 767.81039378 210.65105156 784.9375 208.3125 C799.83807362 205.55241965 812.96222271 197.62308323 821.9140625 185.3828125 C830.75095058 171.50701802 833.36632197 154.88930594 829.875 138.8125 C825.52126694 123.69650156 817.31828109 113.20532621 804 105 C779.70832004 92.60308323 749.12245805 95.68464759 730 116 Z M101 102 C101 135.99 101 169.98 101 205 C109.91 205 118.82 205 128 205 C128.33 185.86 128.66 166.72 129 147 C142.5953063 163.99413288 142.5953063 163.99413288 146.875 169.8125 C153.44274624 178.65169779 160.21971156 187.32346168 167 196 C169.31 198.97 171.62 201.94 174 205 C183.57 205 193.14 205 203 205 C203 171.01 203 137.02 203 102 C193.76 102 184.52 102 175 102 C174.67 120.81 174.34 139.62 174 159 C159.32830581 140.94253023 159.32830581 140.94253023 154.5 134.5 C149.62913891 128.06331733 144.62188291 121.75645345 139.48828125 115.52734375 C135.84928114 111.10051888 132.44780288 106.59707051 129 102 C119.76 102 110.52 102 101 102 Z M342 102 C342 135.99 342 169.98 342 205 C350.91 205 359.82 205 369 205 C369 193.12 369 181.24 369 169 C374 170 374 170 376.06469727 172.68041992 C376.74877024 173.85411698 377.41501578 175.03832318 378.06640625 176.23046875 C378.42717758 176.85850906 378.78794891 177.48654938 379.15965271 178.13362122 C380.30974149 180.14305849 381.43651189 182.1644771 382.5625 184.1875 C383.69692304 186.18957923 384.83596384 188.1889668 385.97605896 190.18782043 C386.68282302 191.43084173 387.38545275 192.67622649 388.08314514 193.92436218 C389.03846216 195.62588 390.0189156 197.31320811 391 199 C391.58418701 200.12011475 392.16837402 201.24022949 392.77026367 202.39428711 C394.82365298 205.33977379 394.82365298 205.33977379 398.48339844 205.68115234 C399.8590898 205.68020828 401.23502301 205.64663512 402.609375 205.5859375 C403.33618469 205.57744781 404.06299438 205.56895813 404.81182861 205.56021118 C407.12608121 205.52670601 409.43680705 205.45144932 411.75 205.375 C413.32156413 205.34489589 414.89318308 205.31752083 416.46484375 205.29296875 C420.31124813 205.2269265 424.15502691 205.12343921 428 205 C426.74517201 201.64057171 425.32117809 198.72565997 423.34765625 195.734375 C422.82324951 194.93418945 422.29884277 194.13400391 421.75854492 193.30957031 C421.1988501 192.46491211 420.63915527 191.62025391 420.0625 190.75 C418.89301153 188.96889289 417.72374489 187.18764009 416.5546875 185.40625 C415.66861816 184.06046875 415.66861816 184.06046875 414.76464844 182.6875 C412.05131841 178.55518997 409.36896074 174.40303212 406.6875 170.25 C405.77480583 168.83849883 404.86205215 167.42703613 403.94921875 166.015625 C403.30597656 165.02046875 402.66273438 164.0253125 402 163 C402.66386719 162.59910156 403.32773437 162.19820312 404.01171875 161.78515625 C410.92332038 157.33549739 414.93173581 153.0570594 417.6015625 145.23828125 C419.69318584 133.48827954 418.41428747 122.75126319 411.875 112.75 C392.91508021 94.61442455 367.56576046 102 342 102 Z M430 102 C430 110.91 430 119.82 430 129 C437.26 129 444.52 129 452 129 C452 154.08 452 179.16 452 205 C461.24 205 470.48 205 480 205 C480 179.92 480 154.84 480 129 C486.93 129 493.86 129 501 129 C501 120.09 501 111.18 501 102 C477.57 102 454.14 102 430 102 Z M517 102 C517 135.99 517 169.98 517 205 C526.24 205 535.48 205 545 205 C545 192.13 545 179.26 545 166 C556.88 166 568.76 166 581 166 C581 178.87 581 191.74 581 205 C590.24 205 599.48 205 609 205 C609 171.01 609 137.02 609 102 C599.76 102 590.52 102 581 102 C581 113.88 581 125.76 581 138 C569.12 138 557.24 138 545 138 C545 126.12 545 114.24 545 102 C535.76 102 526.52 102 517 102 Z M628 102 C628 135.99 628 169.98 628 205 C637.24 205 646.48 205 656 205 C656 193.12 656 181.24 656 169 C660 170 660 170 662.16650391 173.00341797 C662.94943829 174.32544406 663.71862711 175.65567219 664.4765625 176.9921875 C665.09354507 178.0448027 665.09354507 178.0448027 665.72299194 179.11868286 C667.03566313 181.36404557 668.33055465 183.61909024 669.625 185.875 C670.50402723 187.38740584 671.38422236 188.89913352 672.265625 190.41015625 C673.50768117 192.54001591 674.74788086 194.67074243 675.97915649 196.80685425 C677.58588217 199.59403324 679.21466754 202.3220013 681 205 C683.55395487 205.26711404 685.86274374 205.34849029 688.4140625 205.29296875 C689.14370209 205.28872391 689.87334167 205.28447906 690.62509155 205.28010559 C692.95876759 205.26329353 695.2915844 205.22563868 697.625 205.1875 C699.20571671 205.17245634 700.78644693 205.15876738 702.3671875 205.14648438 C706.24512344 205.11338201 710.12241598 205.06158404 714 205 C712.78286633 201.77959435 711.44564365 198.89372719 709.6015625 195.98828125 C709.12750977 195.23844971 708.65345703 194.48861816 708.16503906 193.71606445 C707.65682617 192.92288818 707.14861328 192.12971191 706.625 191.3125 C706.10131836 190.48903076 705.57763672 189.66556152 705.03808594 188.81713867 C699.48710861 180.12617283 693.76243842 171.55170383 688 163 C688.67546875 162.56429687 689.3509375 162.12859375 690.046875 161.6796875 C697.2380996 156.87860981 701.84128459 152.63486163 704 144 C705.99789821 133.38259807 704.8050773 123.28612828 698.75390625 114.1875 C693.05990603 107.08585162 686.76916873 105.18878863 678 102 C661.5 102 645 102 628 102 Z M847 102 C847 135.99 847 169.98 847 205 C855.91 205 864.82 205 874 205 C874 193.12 874 181.24 874 169 C887.375 169.25 887.375 169.25 891.52880859 169.36035156 C900.48761559 169.44083932 907.11559007 167.99725155 914.75 163.3125 C923.24484569 154.58168638 925.41136694 145.61802103 925.36572266 133.78173828 C925.22583808 127.50746599 924.24625461 122.45776556 921 117 C920.5875 116.28585938 920.175 115.57171875 919.75 114.8359375 C915.8454536 108.91256313 910.00672846 104.5588299 903.19024658 102.4365387 C900.60898195 101.92206608 898.22175966 101.88032299 895.58886719 101.88647461 C894.49300293 101.88659546 893.39713867 101.88671631 892.26806641 101.88684082 C890.54982666 101.89451477 890.54982666 101.89451477 888.796875 101.90234375 C887.21060303 101.90385437 887.21060303 101.90385437 885.59228516 101.90539551 C881.64484573 101.91062447 877.69742177 101.92458574 873.75 101.9375 C864.9225 101.958125 856.095 101.97875 847 102 Z M938 102 C938 110.91 938 119.82 938 129 C1008.62 129 1079.24 129 1152 129 C1152 196.65 1152 264.3 1152 334 C1161.24 334 1170.48 334 1180 334 C1180 257.44 1180 180.88 1180 102 C1100.14 102 1020.28 102 938 102 Z M226 246 C223.59519145 249.18396652 221.7157446 252.40265549 220 256 C219.61328125 256.80050781 219.2265625 257.60101563 218.828125 258.42578125 C212.11797248 273.6694973 212.5761654 290.8486338 218.21875 306.34765625 C224.48933389 319.84682989 235.01807771 329.61042439 248.80859375 334.9609375 C264.61295272 340.10654275 281.74640668 338.71718152 296.74609375 331.71875 C308.85338153 325.08461971 315.07078727 314.57244614 319.03515625 301.6171875 C321.30987418 292.32787427 321 284.95798313 321 275 C303.84 275 286.68 275 269 275 C269 282.26 269 289.52 269 297 C276.59 297 284.18 297 292 297 C287.47692308 306.04615385 287.47692308 306.04615385 284.5625 308.375 C283.72912109 309.06722656 283.72912109 309.06722656 282.87890625 309.7734375 C276.66892523 313.82735442 270.19378422 313.72277974 263 313 C259.78159749 311.98679921 256.96041321 310.59554738 254 309 C253.01 308.67 252.02 308.34 251 308 C249.94140625 306.18359375 249.94140625 306.18359375 249 304 C248.48759766 303.02740234 248.48759766 303.02740234 247.96484375 302.03515625 C247.62582031 301.38417969 247.28679687 300.73320312 246.9375 300.0625 C246.42509766 299.08990234 246.42509766 299.08990234 245.90234375 298.09765625 C242.06791219 289.18384782 242.84596376 276.05039366 246.08984375 267.04296875 C249.09928869 260.28786274 253.39963574 255.40014166 260.375 252.6875 C268.76390788 251.09650023 275.91451682 251.83707753 283.2421875 256.39453125 C286.78434936 258.95708424 289.4713547 261.40870315 292 265 C295.15844818 264.34251427 297.7053221 263.23161861 300.546875 261.71484375 C301.39121094 261.26689453 302.23554688 260.81894531 303.10546875 260.35742188 C303.97816406 259.88884766 304.85085938 259.42027344 305.75 258.9375 C306.63816406 258.46505859 307.52632813 257.99261719 308.44140625 257.50585938 C310.62971037 256.34111686 312.81578248 255.17238288 315 254 C313.56226514 249.5479233 311.13237375 246.44505475 308 243.0625 C307.51160645 242.53470947 307.02321289 242.00691895 306.52001953 241.46313477 C297.47329909 232.00891756 286.09215299 227.47564583 273.1171875 226.796875 C253.73609324 226.43969319 239.34358314 231.69228513 226 246 Z M336 231 C336 264.99 336 298.98 336 334 C345.24 334 354.48 334 364 334 C364 322.12 364 310.24 364 298 C369.44150991 300.17660397 369.9126766 300.77032881 372.59375 305.6015625 C373.23183594 306.73207031 373.86992187 307.86257813 374.52734375 309.02734375 C375.18543014 310.22626938 375.84297885 311.42549028 376.5 312.625 C377.15616302 313.801557 377.81370321 314.97734708 378.47265625 316.15234375 C379.11074219 317.29058594 379.74882812 318.42882812 380.40625 319.6015625 C381.04022705 320.70209961 381.6742041 321.80263672 382.32739258 322.93652344 C384 326 384 326 384.9909668 328.60253906 C386.06776328 331.16053334 386.72153435 332.3880601 389 334 C394.63536984 334.98525986 400.11867599 334.75229192 405.8125 334.5 C407.37946706 334.45985042 408.94653222 334.42335215 410.51367188 334.390625 C414.34487392 334.30266498 418.17136332 334.16476794 422 334 C420.34385777 329.68632722 418.21951193 325.8923043 415.75 322 C415.32541504 321.32517578 414.90083008 320.65035156 414.46337891 319.95507812 C408.48592045 310.52166975 402.23480497 301.26437426 396 292 C396.69287109 291.53021729 397.38574219 291.06043457 398.09960938 290.57641602 C399.00517578 289.95436279 399.91074219 289.33230957 400.84375 288.69140625 C401.74287109 288.07724854 402.64199219 287.46309082 403.56835938 286.83032227 C409.14872162 282.62992309 411.38504793 277.04111363 412.41015625 270.3046875 C413.4840953 260.65158015 412.72144627 251.16621857 407 243 C401.17079954 236.53632874 394.35868846 233.08967211 386 231 C369.5 231 353 231 336 231 Z M430 231 C429.93196389 240.45841553 429.87703462 249.91666598 429.84456348 259.3752718 C429.82897146 263.76825943 429.80785275 268.16106956 429.77368164 272.55395508 C429.74085575 276.80094817 429.7230985 281.04777156 429.71536827 285.29488182 C429.70986613 286.90743871 429.69912292 288.51998732 429.68280983 290.13247108 C429.55779569 303.01312978 430.18911779 314.81676819 439 325 C441.49978782 327.31864378 444.11137351 329.19599189 447 331 C447.56976563 331.37898438 448.13953125 331.75796875 448.7265625 332.1484375 C462.8251517 340.40884439 480.8709739 338.79368328 496 335 C506.16281901 331.35420553 513.94267972 324.93963324 518.71658325 315.20059204 C522.87486659 304.83064123 522.27856361 292.98429497 522.1953125 281.9765625 C522.19156982 280.49441725 522.18872881 279.01226948 522.18673706 277.53012085 C522.17919917 273.68002157 522.15963884 269.83007973 522.1373291 265.9800415 C522.11665503 262.03098682 522.10768985 258.08190602 522.09765625 254.1328125 C522.07638072 246.42179583 522.04128252 238.71094027 522 231 C512.76 231 503.52 231 494 231 C493.9906543 233.04832031 493.98130859 235.09664062 493.97167969 237.20703125 C493.93781855 243.99651871 493.88221924 250.78570514 493.81609726 257.57495117 C493.77669214 261.68881763 493.74446981 265.80247228 493.72900391 269.91650391 C493.71379099 273.89142474 493.67926457 277.865763 493.63169098 281.84042358 C493.61692466 283.35211099 493.60896172 284.86388159 493.60811615 286.37564087 C493.59144691 301.24253748 493.59144691 301.24253748 489 308 C484.28337855 311.48131583 478.7550567 312.12981331 473 312 C467.88752649 311.1784949 464.85335999 310.02403198 461.5 306 C459.25933447 301.51866893 458.85806637 298.2969198 458.79467773 293.32543945 C458.78477814 292.652005 458.77487854 291.97857056 458.76467896 291.284729 C458.73311611 289.06094873 458.70832725 286.8371471 458.68359375 284.61328125 C458.66301971 283.07056628 458.64202312 281.5278569 458.62062073 279.9851532 C458.5654465 275.92622398 458.51601675 271.86724427 458.46777344 267.80822754 C458.41752446 263.66572582 458.36185613 259.52329734 458.30664062 255.38085938 C458.19911589 247.25396651 458.09815917 239.12701138 458 231 C448.76 231 439.52 231 430 231 Z M539 231 C539 264.99 539 298.98 539 334 C548.24 334 557.48 334 567 334 C567.33 315.19 567.66 296.38 568 277 C579 295 579 295 582.609375 301.3515625 C588.02761706 311.33311669 588.02761706 311.33311669 596.76953125 318.02734375 C601.20794775 318.65356729 604.27484747 318.47472356 608 316 C611.99070933 311.96877586 614.76719597 307.15688479 617.51171875 302.23046875 C622.33261801 293.61979203 627.73035696 285.34360147 633 277 C633.33 295.81 633.66 314.62 634 334 C642.91 334 651.82 334 661 334 C661 300.01 661 266.02 661 231 C635.41160674 228.06438849 635.41160674 228.06438849 627.328125 235.58984375 C625.59704593 238.61827147 625.59704593 238.61827147 624.25 241.9375 C623.0487664 244.21913208 621.84423205 246.49902886 620.63671875 248.77734375 C620.0545459 249.96183105 619.47237305 251.14631836 618.87255859 252.36669922 C616.07079246 257.95538147 612.58645455 263.12160595 609.1529541 268.33596802 C607.42135173 270.97839169 605.73165961 273.64745762 604.03515625 276.3125 C601.12471655 280.87528345 601.12471655 280.87528345 600 282 C599.33355469 280.89785156 598.66710937 279.79570312 597.98046875 278.66015625 C590.2252754 265.83409694 590.2252754 265.83409694 582.01782227 253.29541016 C579.18570654 249.10015721 577.05323382 245.0895845 575.37963867 240.30297852 C573.69764153 236.90943641 573.69764153 236.90943641 568 231 C558.43 231 548.86 231 539 231 Z M682 231 C682 264.99 682 298.98 682 334 C691.24 334 700.48 334 710 334 C710.33 315.52 710.66 297.04 711 278 C714.63 283.61 718.26 289.22 722 295 C724.37348061 298.66767225 726.74783798 302.33472064 729.125 306 C729.68703125 306.86882812 730.2490625 307.73765625 730.828125 308.6328125 C731.36179687 309.45523438 731.89546875 310.27765625 732.4453125 311.125 C732.91469238 311.84945312 733.38407227 312.57390625 733.86767578 313.3203125 C735.54187005 315.80380895 735.79742254 315.92975816 738.81640625 316.9765625 C743.42934498 317.77504824 746.76462202 318.22210216 751 316 C756.83838045 309.88682538 760.84447783 302.15122781 764.86108398 294.77075195 C768.08412182 289.08877281 771.5763615 283.56341256 775 278 C775.33 296.48 775.66 314.96 776 334 C785.24 334 794.48 334 804 334 C804 300.01 804 266.02 804 231 C794.76 231 785.52 231 776 231 C769.92804596 237.72164117 769.92804596 237.72164117 765.9609375 244.90625 C762.71229172 251.83669432 758.57355452 258.06452735 754.375 264.4375 C753.02462505 266.53778486 751.67801432 268.64049673 750.3359375 270.74609375 C749.76407715 271.63997803 749.1922168 272.5338623 748.60302734 273.45483398 C747.50275832 275.20175823 746.44226826 276.97418175 745.41650391 278.76586914 C744 281 744 281 742 282 C741.73678955 281.28336182 741.4735791 280.56672363 741.20239258 279.82836914 C739.95878198 276.9030435 738.48497414 274.41529918 736.76171875 271.74609375 C736.11211182 270.73546875 735.46250488 269.72484375 734.79321289 268.68359375 C734.09832764 267.61238281 733.40344238 266.54117188 732.6875 265.4375 C731.97779053 264.33664062 731.26808105 263.23578125 730.53686523 262.1015625 C729.07712749 259.83789254 727.6145895 257.57607209 726.14941406 255.31591797 C724.12515276 252.19307415 722.10515202 249.06751463 720.0859375 245.94140625 C718.91190749 244.12731341 717.73745251 242.31349549 716.5625 240.5 C716.01360107 239.65236084 715.46470215 238.80472168 714.89916992 237.93139648 C714.39748291 237.15997314 713.8957959 236.3885498 713.37890625 235.59375 C712.9413501 234.92021484 712.50379395 234.24667969 712.05297852 233.55273438 C711.08881026 232.02602381 711.08881026 232.02602381 710 231 C700.76 231 691.52 231 682 231 Z M854 231 C852.50726562 235.04121094 852.50726562 235.04121094 850.984375 239.1640625 C850.31243911 240.98267359 849.64048487 242.80127789 848.96850586 244.61987305 C847.47377605 248.66533149 845.97992747 252.71111402 844.48657227 256.75708008 C840.38169747 267.87437584 836.26336137 278.98647629 832.12031937 290.08960724 C830.50795536 294.41246306 828.89901302 298.73659445 827.28942871 303.06048584 C826.38777803 305.47947419 825.48437444 307.89780989 824.57922363 310.31549072 C823.30755678 313.71262116 822.04184246 317.1119149 820.77734375 320.51171875 C820.3937822 321.53153336 820.01022064 322.55134796 819.61503601 323.60206604 C819.26890762 324.53606735 818.92277924 325.47006866 818.56616211 326.43237305 C818.11012856 327.65321846 818.11012856 327.65321846 817.6448822 328.89872742 C816.85330274 331.1116618 816.85330274 331.1116618 817 334 C826.57 334 836.14 334 846 334 C849.72013072 325.08242354 849.72013072 325.08242354 853 316 C864.22 316 875.44 316 887 316 C889.31 321.94 891.62 327.88 894 334 C903.9 334 913.8 334 924 334 C922.06270349 327.54234497 920.08294526 321.22439779 917.76953125 314.91015625 C917.46179779 314.06352921 917.15406433 313.21690216 916.83700562 312.34461975 C915.83194678 309.58276821 914.8224982 306.82254871 913.8125 304.0625 C913.10648623 302.12810721 912.4005136 300.19369942 911.69458008 298.25927734 C909.47009997 292.17025899 907.23680225 286.08450149 905 280 C904.62548706 278.98125793 904.25097412 277.96251587 903.8651123 276.91290283 C901.66278382 270.92604233 899.45412354 264.94156528 897.23764038 258.95993042 C896.54133353 257.08019937 895.84603007 255.20009632 895.15176392 253.3196106 C894.18150666 250.69352738 893.20668051 248.06918709 892.23046875 245.4453125 C891.94674408 244.67534439 891.66301941 243.90537628 891.37069702 243.11207581 C891.10165558 242.3920488 890.83261414 241.67202179 890.55541992 240.93017578 C890.32610275 240.31232208 890.09678558 239.69446838 889.86051941 239.05789185 C888.71152816 236.3101331 887.33194287 233.66388574 886 231 C875.44 231 864.88 231 854 231 Z M938 231 C938 264.99 938 298.98 938 334 C946.91 334 955.82 334 965 334 C965.33 314.86 965.66 295.72 966 276 C971.24590645 282.41166344 976.44425815 288.77883211 981.4375 295.375 C982.56103649 296.85168533 983.68473587 298.32824675 984.80859375 299.8046875 C985.35112793 300.51850586 985.89366211 301.23232422 986.45263672 301.96777344 C989.42210117 305.86771381 992.4012793 309.75679308 995.4765625 313.57421875 C997.95100749 316.75605938 999.80222211 320.16743741 1001.63037109 323.75317383 C1004.23726869 327.57742621 1007.74070863 330.71399313 1011 334 C1020.24 334 1029.48 334 1039 334 C1039 300.01 1039 266.02 1039 231 C1029.76 231 1020.52 231 1011 231 C1010.67 249.81 1010.34 268.62 1010 288 C1006.04 282.72 1002.08 277.44 998 272 C993.97390645 266.85029779 993.97390645 266.85029779 989.9296875 261.71484375 C986.51264344 257.39092329 983.13136957 253.03933971 979.75 248.6875 C978.90042725 247.59429443 978.90042725 247.59429443 978.03369141 246.47900391 C976.35566125 244.31943929 974.67783084 242.15971947 973 240 C970.69 237.03 968.38 234.06 966 231 C956.76 231 947.52 231 938 231 Z " fill="#000000" transform="translate(0,0)"/>
<path d="M0 0 C13.96551724 0 13.96551724 0 18 3 C21.23785576 6.66956986 21.47309273 10.13792717 21.27734375 14.8515625 C20.87325479 17.98182907 20.13374252 19.65976627 18 22 C11.59144529 25.87183514 8.24639827 25 0 25 C0 16.75 0 8.5 0 0 Z " fill="#000000" transform="translate(369,123)"/>
<path d="M0 0 C12.71428571 0 12.71428571 0 17 3 C20.44535168 6.79977781 20.45962767 9.63562747 20.27734375 14.59375 C19.90125961 17.85667719 19.26210057 19.59195745 17 22 C10.83850723 25.64659776 7.82382634 25 0 25 C0 16.75 0 8.5 0 0 Z " fill="#000000" transform="translate(656,123)"/>
<path d="M0 0 C15.83352338 -0.44811859 15.83352338 -0.44811859 21.8125 4.5 C24.57352978 7.98761657 24.28744224 11.76022695 24 16 C22.67311912 19.63146346 21.6724436 21.49997784 18.5625 23.8125 C12.02867838 26.84036855 7.92923639 26 0 26 C0 17.42 0 8.84 0 0 Z " fill="#000000" transform="translate(874,123)"/>
<path d="M0 0 C5.56750256 4.33564733 9.6258005 10.74221975 10.92578125 17.71484375 C11.78610585 27.20662166 10.54247604 36.29410017 4.67578125 44.08984375 C-2.07567708 50.53441761 -8.72976344 53.28383929 -17.94921875 54.02734375 C-25.79408125 53.78074689 -33.34966961 51.14732405 -39.07421875 45.71484375 C-45.55096761 38.20457114 -47.16567202 30.5460703 -47.07421875 20.71484375 C-45.58640586 11.63918512 -41.27580157 5.11212275 -34.2734375 -0.73828125 C-23.78219271 -8.11755822 -10.51474331 -6.51478446 0 0 Z " fill="#000000" transform="translate(289.07421875,129.28515625)"/>
<path d="M0 0 C6.38388493 6.74867835 10.13450946 13.73920298 10.5 23.125 C10.20547782 32.85895792 7.38704569 39.14351934 0.59765625 46.17578125 C-5.61447814 51.68313541 -12.30639127 53.67914047 -20.57421875 53.5234375 C-28.45783102 52.78047928 -35.17214219 49.89004759 -40.8125 44.3125 C-47.03362661 36.52421936 -48.69649048 28.11926936 -47.8125 18.3125 C-46.12675621 10.01547981 -42.35633856 3.87142715 -35.4375 -1 C-23.73532059 -8.22951776 -11.54437885 -6.92662731 0 0 Z " fill="#000000" transform="translate(792.8125,129.6875)"/>
<path d="M0 0 C12.71428571 0 12.71428571 0 17 3 C20.626116 6.93916198 20.5059885 10.20417923 20.34765625 15.3671875 C19.86598635 19.01488986 18.84493075 20.67913544 16 23 C10.44692757 25.77653621 6.72739043 25 0 25 C0 16.75 0 8.5 0 0 Z " fill="#000000" transform="translate(364,252)"/>
<path d="M0 0 C0.66 0 1.32 0 2 0 C4.97 8.91 7.94 17.82 11 27 C4.4 27 -2.2 27 -9 27 C-6.03 18.09 -3.06 9.18 0 0 Z " fill="#000000" transform="translate(869,266)"/>
</svg>
