<?xml version="1.0" encoding="UTF-8"?>
<svg version="1.1" xmlns="http://www.w3.org/2000/svg" width="1538" height="329">
<path d="M0 0 C507.54 0 1015.08 0 1538 0 C1538 108.57 1538 217.14 1538 329 C1030.46 329 522.92 329 0 329 C0 220.43 0 111.86 0 0 Z " fill="#FFFFFF" transform="translate(0,0)"/>
<path d="M0 0 C27.9675 -0.04125 55.935 -0.0825 84.75 -0.125 C93.5475293 -0.14320801 102.34505859 -0.16141602 111.40917969 -0.18017578 C122.23681641 -0.18920898 122.23681641 -0.18920898 127.32208252 -0.19088745 C130.8378965 -0.19273424 134.35364873 -0.20016243 137.8694458 -0.21115112 C184.86745271 -0.35156649 184.86745271 -0.35156649 202.5625 4.1875 C203.42343262 4.40253174 204.28436523 4.61756348 205.17138672 4.83911133 C227.10944902 10.52935896 247.07677924 20.12684536 265 34 C265.93972656 34.71671875 266.87945312 35.4334375 267.84765625 36.171875 C286.11681276 50.57690776 300.45042915 68.30236433 311 89 C311.52352051 90.00450195 311.52352051 90.00450195 312.05761719 91.02929688 C331.73601444 129.08024381 334.51120075 175.0361932 321.78515625 215.73828125 C308.03077578 257.37337212 279.17947307 292.05716082 240 312 C239.38979004 312.31662598 238.77958008 312.63325195 238.15087891 312.95947266 C219.72259082 322.43334425 197.94158012 329.20692501 177.13490295 329.12025452 C176.37528763 329.12111053 175.6156723 329.12196655 174.83303833 329.12284851 C172.29630133 329.12449511 169.7596313 329.1189941 167.22290039 329.11352539 C165.36977103 329.11321887 163.51664154 329.11335286 161.66351223 329.11389065 C156.71008001 329.114116 151.75667205 329.10832865 146.80324554 329.10128021 C142.15166652 329.09557673 137.50009333 329.09531662 132.84851074 329.09460449 C119.25317063 329.0893614 105.65783501 329.07540021 92.0625 329.0625 C61.681875 329.041875 31.30125 329.02125 0 329 C0 220.43 0 111.86 0 0 Z " fill="#00BEF0" transform="translate(0,0)"/>
<path d="M0 0 C15.39063999 13.17852965 23.87720936 31.02792049 26.3046875 50.9375 C27.49347774 73.61595992 22.19930042 93.56913144 7.3046875 110.9375 C6.38429688 112.02611328 6.38429688 112.02611328 5.4453125 113.13671875 C-7.90274543 127.65415782 -27.94681637 135.26838142 -47.34375 136.22265625 C-70.15786829 136.87138801 -90.1779917 130.52053542 -107.48046875 115.5234375 C-121.60311937 102.10372425 -130.17851943 83.3544409 -130.8984375 63.84375 C-131.31605223 40.46789765 -124.74468417 21.43087583 -108.5078125 4.25 C-79.32102087 -24.00958692 -31.63503206 -24.2076767 0 0 Z " fill="#000000" transform="translate(539.6953125,106.0625)"/>
<path d="M0 0 C3.61748705 2.75901619 6.82892917 5.74322455 10 9 C10.62261719 9.59039062 11.24523438 10.18078125 11.88671875 10.7890625 C28.42309548 27.65988281 30 52.94397197 30 75 C-7.29 75 -44.58 75 -83 75 C-80.11317816 86.54728734 -77.26416162 96.43798828 -67 103 C-52.45395576 110.81741 -34.91704642 112.96816281 -18.875 108.4375 C-10.40844975 105.30420975 -1.90958438 100.96486731 4 94 C8.25375083 95.5713856 10.65152863 98.78475413 13.4375 102.1875 C13.92323486 102.77104248 14.40896973 103.35458496 14.90942383 103.95581055 C18.12637492 107.84984345 21.17444461 111.81038339 24 116 C12.17301381 131.34311722 -5.74154439 138.27334107 -24.30078125 141.58984375 C-47.15188268 144.1234928 -71.82160587 141.88126623 -90.75390625 127.80859375 C-91.86572266 126.91333984 -91.86572266 126.91333984 -93 126 C-93.98742188 125.23042969 -94.97484375 124.46085938 -95.9921875 123.66796875 C-108.63046223 113.05037749 -115.19515341 94.92132531 -117 79 C-118.32620978 52.97955844 -113.84519029 31.08187748 -97.13671875 10.73046875 C-73.01792236 -15.45417744 -29.38246284 -18.26963418 0 0 Z " fill="#000000" transform="translate(1425,100)"/>
<path d="M0 0 C12.41625 -0.061875 24.8325 -0.12375 37.625 -0.1875 C43.46372803 -0.22846802 43.46372803 -0.22846802 49.42041016 -0.27026367 C54.24487305 -0.28381348 54.24487305 -0.28381348 56.5171814 -0.28633118 C58.07409248 -0.29087988 59.63099432 -0.30130741 61.18783569 -0.31672668 C81.25556998 -0.50521012 99.07191139 2.84478625 114.15625 17.02734375 C123.9842518 27.16705456 126.30303098 38.97384783 126.31469727 52.55859375 C126.10573006 65.55660094 121.70946262 76.56797987 112.96875 86.25 C105.86790952 93.04210828 97.29316222 97.05372338 88 100 C91.37386109 103.9794259 94.79990889 107.89231222 98.3125 111.75 C101.38799555 115.14734973 104.32630168 118.60834299 107.1875 122.1875 C111.64072291 127.71645704 116.46501517 132.85218754 121.39135742 137.96166992 C121.97377197 138.57244385 122.55618652 139.18321777 123.15625 139.8125 C123.68025391 140.35519531 124.20425781 140.89789063 124.74414062 141.45703125 C126 143 126 143 127 146 C121.39973928 146.37473435 115.80694567 146.64461392 110.19702148 146.82397461 C108.29598836 146.89879309 106.39580045 147.00071243 104.49780273 147.1315918 C89.20571938 148.15858186 89.20571938 148.15858186 83.87472534 144.56893921 C80.07118945 141.09373525 77.085976 137.11859735 74.24362183 132.8400116 C72.4787189 130.22873396 70.46773074 127.84501968 68.4375 125.4375 C67.74398437 124.58027344 67.05046875 123.72304687 66.3359375 122.83984375 C62.95381979 118.72813878 59.47369802 114.70209034 55.98413086 110.68139648 C53.82927079 108.18818465 51.83061292 105.74591938 50 103 C44.06 102.67 38.12 102.34 32 102 C32 116.19 32 130.38 32 145 C21.44 145 10.88 145 0 145 C0 97.15 0 49.3 0 0 Z " fill="#000000" transform="translate(880,92)"/>
<path d="M0 0 C10.56 0 21.12 0 32 0 C32 18.81 32 37.62 32 57 C35.96 57 39.92 57 44 57 C44.66 55.68 45.32 54.36 46 53 C47.31262246 51.44316871 48.67245325 49.92561001 50.0625 48.4375 C53.23785117 44.97439841 56.29828184 41.46804744 59.25 37.8125 C62.85470163 33.36147712 66.55371446 29.00802593 70.3125 24.6875 C70.85849854 24.05980713 71.40449707 23.43211426 71.96704102 22.78540039 C73.08110808 21.50511315 74.19528521 20.22492169 75.30957031 18.94482422 C78.11152113 15.72120489 80.90210651 12.48792955 83.6875 9.25 C84.1925708 8.66565186 84.6976416 8.08130371 85.21801758 7.47924805 C87.30340374 5.05221886 89.22228602 2.66657097 91 0 C92.87295532 -0.36076355 92.87295532 -0.36076355 95.17431641 -0.34057617 C96.46542831 -0.34023628 96.46542831 -0.34023628 97.78262329 -0.33988953 C98.71287323 -0.32440567 99.64312317 -0.30892181 100.6015625 -0.29296875 C101.55316254 -0.28872391 102.50476257 -0.28447906 103.48519897 -0.28010559 C106.53208414 -0.26327896 109.57831391 -0.22561954 112.625 -0.1875 C114.68749046 -0.17245831 116.74999127 -0.15876901 118.8125 -0.14648438 C123.8752535 -0.11336239 128.93751554 -0.06155284 134 0 C127.78472059 8.43971457 127.78472059 8.43971457 124.37890625 12 C123.44014648 12.99 123.44014648 12.99 122.48242188 14 C121.84884766 14.66 121.21527344 15.32 120.5625 16 C116.15956525 20.61474431 111.84706883 25.27500434 107.66772461 30.09375 C105.16920715 32.94961654 102.58701789 35.72449265 100 38.5 C96.21637759 42.57794958 92.48834301 46.6883714 88.8515625 50.8984375 C85.92681863 54.21808349 82.91724121 57.46019567 79.90600586 60.70141602 C77.1326202 63.70262799 74.51441805 66.77895392 72 70 C73.26936947 72.73362753 74.62408666 74.92280422 76.6171875 77.1796875 C77.13547119 77.77144775 77.65375488 78.36320801 78.18774414 78.97290039 C78.74453857 79.60059326 79.30133301 80.22828613 79.875 80.875 C81.05896864 82.22493171 82.24255399 83.57519967 83.42578125 84.92578125 C84.02471191 85.60721191 84.62364258 86.28864258 85.24072266 86.99072266 C87.87112698 89.99491744 90.4682362 93.02709935 93.0625 96.0625 C94.05335836 97.22007524 95.04424379 98.37762731 96.03515625 99.53515625 C96.52387207 100.10637207 97.01258789 100.67758789 97.51611328 101.26611328 C99.50880547 103.59452722 101.50335862 105.92134289 103.49804688 108.24804688 C104.9976101 109.9972123 106.49685209 111.74665271 107.99609375 113.49609375 C110.00799002 115.84341526 112.02112758 118.18966417 114.03515625 120.53515625 C116.52527332 123.43522186 119.01047273 126.33945719 121.49462891 129.24462891 C123.05770864 131.06729243 124.62822725 132.88337256 126.19921875 134.69921875 C127.21631913 135.88266358 128.23325244 137.06625203 129.25 138.25 C129.72832275 138.79922119 130.20664551 139.34844238 130.69946289 139.91430664 C134 143.77319839 134 143.77319839 134 146 C128.25730562 146.37459872 122.52188359 146.6445651 116.76977539 146.82397461 C114.82027261 146.89881311 112.87159486 147.00074677 110.92504883 147.1315918 C95.23813966 148.15859099 95.23813966 148.15859099 89.85324097 144.56893921 C86.03953954 141.10183519 83.06411143 137.12926714 80.23545837 132.83988953 C78.47883751 130.22386587 76.46832884 127.84339074 74.4375 125.4375 C73.73496094 124.56996094 73.03242187 123.70242187 72.30859375 122.80859375 C69.58655746 119.49701322 66.79854286 116.24692334 64 113 C57.50485558 105.46057052 51.21690703 97.77113379 45 90 C40.71 89.67 36.42 89.34 32 89 C32 107.81 32 126.62 32 146 C21.44 146 10.88 146 0 146 C0 97.82 0 49.64 0 0 Z " fill="#000000" transform="translate(725,92)"/>
<path d="M0 0 C5.02614424 0.55932363 9.10556845 2.22163915 13.5625 4.5 C14.26068848 4.85457275 14.95887695 5.20914551 15.67822266 5.57446289 C41.08379922 18.79750189 60.53160565 40.93209332 70 68 C79.95500736 99.79261585 77.50209257 131.20904689 62.1875 160.8125 C58.55787915 167.54686149 54.07950657 173.27991623 49 179 C48.38769531 179.75539062 47.77539062 180.51078125 47.14453125 181.2890625 C34.63488713 196.38598909 17.40961508 206.04197912 -1 212 C-2.24910036 208.30260151 -3.4940417 204.60383005 -4.73535156 200.90380859 C-5.36310122 199.03541475 -5.99402032 197.16808675 -6.625 195.30078125 C-8.65646829 189.23914199 -10.58146521 183.23531777 -12 177 C-10.97261719 176.5153125 -9.94523438 176.030625 -8.88671875 175.53125 C-0.3055065 171.41039925 7.61359983 167.09097754 15 161 C15.63035156 160.48308594 16.26070312 159.96617187 16.91015625 159.43359375 C29.11887326 148.33728831 36.8434196 130.65836014 38.22143555 114.38500977 C39.18944633 91.28278238 34.82071773 71.59975427 19 54 C18.22269531 53.08347656 18.22269531 53.08347656 17.4296875 52.1484375 C9.9602855 43.92834184 -0.77124706 38.05622961 -11 34 C-8.97359864 26.12667751 -6.52967236 18.47266584 -3.8125 10.8125 C-3.26045898 9.24145508 -3.26045898 9.24145508 -2.69726562 7.63867188 C-1.80158738 5.09122337 -0.90246184 2.54505148 0 0 Z " fill="#FFFFFF" transform="translate(199,59)"/>
<path d="M0 0 C3.63 11.22 7.26 22.44 11 34 C8.586875 35.155 6.17375 36.31 3.6875 37.5 C-15.38843982 46.92655635 -27.91189074 60.68842673 -35.26171875 80.73046875 C-41.86165318 101.01915607 -39.42098574 122.67915649 -29.8125 141.5625 C-20.2986795 158.4692256 -7.23376887 168.06424947 10 176 C7.97359864 183.87332249 5.52967236 191.52733416 2.8125 199.1875 C2.26045898 200.75854492 2.26045898 200.75854492 1.69726562 202.36132812 C0.80158738 204.90877663 -0.09753816 207.45494852 -1 210 C-6.17201521 209.4306774 -10.12081305 207.77137694 -14.6875 205.4375 C-15.74251709 204.90177368 -15.74251709 204.90177368 -16.81884766 204.35522461 C-27.08109385 199.01318528 -35.60679179 191.9020394 -44 184 C-44.61488281 183.44957031 -45.22976562 182.89914063 -45.86328125 182.33203125 C-59.29063549 169.83070144 -68.14737279 151.42534317 -73 134 C-73.3196875 132.90171875 -73.639375 131.8034375 -73.96875 130.671875 C-81.00365295 102.14143526 -75.07785604 70.98792606 -60.03125 46.07421875 C-56.97239718 41.44476265 -53.6382674 37.18469919 -50 33 C-49.30132812 32.16855469 -48.60265625 31.33710937 -47.8828125 30.48046875 C-37.3062667 18.22898955 -17.28118287 0 0 0 Z " fill="#FFFFFF" transform="translate(130,59)"/>
<path d="M0 0 C43.23 0 86.46 0 131 0 C131 9.9 131 19.8 131 30 C114.83 30 98.66 30 82 30 C82 68.28 82 106.56 82 146 C71.11 146 60.22 146 49 146 C49 107.72 49 69.44 49 30 C32.83 30 16.66 30 0 30 C0 20.1 0 10.2 0 0 Z " fill="#000000" transform="translate(570,92)"/>
<path d="M0 0 C42.9 0 85.8 0 130 0 C130 9.9 130 19.8 130 30 C113.83 30 97.66 30 81 30 C81 68.28 81 106.56 81 146 C70.44 146 59.88 146 49 146 C49 107.72 49 69.44 49 30 C32.83 30 16.66 30 0 30 C0 20.1 0 10.2 0 0 Z " fill="#000000" transform="translate(1095,92)"/>
<path d="M0 0 C10.03974214 7.57807459 16.43136406 17.27140946 18.6875 29.75 C18.9677702 32.71505156 19.02231903 35.6479603 19 38.625 C18.99436035 39.41656494 18.9887207 40.20812988 18.98291016 41.02368164 C18.73950974 52.76353419 14.55670193 63.86882623 6.4375 72.5625 C-2.67034094 80.92807196 -13.37294839 85.34625113 -25.6875 85.1875 C-26.51749512 85.17992676 -27.34749023 85.17235352 -28.20263672 85.16455078 C-41.02388211 84.82154929 -51.84971488 79.10785652 -60.6796875 69.8671875 C-70.08659833 57.66970982 -71.74338355 43.60421321 -70.3125 28.75 C-68.70047479 19.80651669 -64.53971506 12.27685093 -58.3125 5.75 C-57.71695312 5.11449219 -57.12140625 4.47898438 -56.5078125 3.82421875 C-41.50264519 -10.71398277 -16.90891893 -11.09489125 0 0 Z " fill="#FFFFFF" transform="translate(513.3125,126.25)"/>
<path d="M0 0 C51.81 0 103.62 0 157 0 C157 0.33 157 0.66 157 1 C155.79988281 1.08636719 154.59976563 1.17273438 153.36328125 1.26171875 C114.08559947 4.42959508 78.52829157 19.65840941 50 47 C49.13246094 47.804375 48.26492187 48.60875 47.37109375 49.4375 C19.9907209 75.61048799 6.03321291 111.08977199 1 148 C0.67 148 0.34 148 0 148 C0 99.16 0 50.32 0 0 Z " fill="#FFFFFF" transform="translate(0,0)"/>
<path d="M0 0 C0.33 0 0.66 0 1 0 C1.14695313 1.12792969 1.29390625 2.25585938 1.4453125 3.41796875 C6.42983057 39.31344864 21.07799493 70.69343909 46 97 C46.89203125 97.95648438 47.7840625 98.91296875 48.703125 99.8984375 C73.53739794 126.00334041 108.45939958 141.7249188 144 146 C144 146.33 144 146.66 144 147 C96.48 147 48.96 147 0 147 C0 98.49 0 49.98 0 0 Z " fill="#FFFFFF" transform="translate(0,182)"/>
<path d="M0 0 C10.89 0 21.78 0 33 0 C33 47.85 33 95.7 33 145 C22.11 145 11.22 145 0 145 C0 97.15 0 49.3 0 0 Z " fill="#000000" transform="translate(1249,92)"/>
<path d="M0 0 C10.56 0 21.12 0 32 0 C32 47.85 32 95.7 32 145 C21.44 145 10.88 145 0 145 C0 97.15 0 49.3 0 0 Z " fill="#000000" transform="translate(1039,92)"/>
<path d="M0 0 C6.373125 -0.061875 12.74625 -0.12375 19.3125 -0.1875 C22.29470581 -0.22846802 22.29470581 -0.22846802 25.3371582 -0.27026367 C46.95451466 -0.44654398 46.95451466 -0.44654398 55.5 6.25 C60.54299048 11.2206525 62.14409342 15.85991537 62.4375 22.875 C62.22919789 29.54066738 61.0328129 35.05582881 56.12890625 39.81640625 C47.95694354 46.22730327 39.98844891 47.16137464 29.8828125 47.09765625 C29.12218506 47.09664917 28.36155762 47.09564209 27.57788086 47.09460449 C24.76023838 47.08940693 21.94261753 47.07544587 19.125 47.0625 C12.81375 47.041875 6.5025 47.02125 0 47 C0 31.49 0 15.98 0 0 Z " fill="#FFFFFF" transform="translate(912,120)"/>
<path d="M0 0 C6.22538558 5.89701359 9.42816894 12.47530058 11.77734375 20.68359375 C11.77734375 21.34359375 11.77734375 22.00359375 11.77734375 22.68359375 C-14.29265625 22.68359375 -40.36265625 22.68359375 -67.22265625 22.68359375 C-63.21506434 9.32495407 -58.32859742 1.77665224 -46.22265625 -5.31640625 C-43.2650559 -6.66845212 -40.39139687 -7.60343961 -37.22265625 -8.31640625 C-36.15015625 -8.56390625 -35.07765625 -8.81140625 -33.97265625 -9.06640625 C-21.64737545 -9.88809164 -9.76061025 -8.00409961 0 0 Z " fill="#FFFFFF" transform="translate(1408.22265625,125.31640625)"/>
</svg>
