<?xml version="1.0" standalone="no"?>
<!DOCTYPE svg PUBLIC "-//W3C//DTD SVG 20010904//EN"
 "http://www.w3.org/TR/2001/REC-SVG-20010904/DTD/svg10.dtd">
<svg version="1.0" xmlns="http://www.w3.org/2000/svg"
 width="1875.000000pt" height="329.000000pt" viewBox="0 0 1875.000000 329.000000"
 preserveAspectRatio="xMidYMid meet">

<g transform="translate(0.000000,329.000000) scale(0.100000,-0.100000)"
fill="#000000" stroke="none">
<path d="M15440 1650 l0 -1640 45 0 45 0 0 1640 0 1640 -45 0 -45 0 0 -1640z"/>
<path d="M4721 2389 c-78 -13 -180 -51 -258 -94 -82 -46 -223 -184 -271 -267
-100 -170 -128 -408 -72 -608 120 -426 583 -653 1030 -504 237 79 417 273 486
525 24 87 25 296 1 394 -63 255 -266 460 -527 535 -86 25 -300 35 -389 19z
m290 -309 c116 -36 206 -114 261 -225 39 -77 51 -146 46 -252 -5 -85 -9 -102
-47 -178 -49 -99 -113 -162 -211 -209 -61 -29 -71 -31 -185 -31 -114 0 -123 2
-187 32 -168 79 -258 227 -258 424 0 266 184 457 441 458 50 1 99 -6 140 -19z"/>
<path d="M13660 2385 c-203 -46 -367 -161 -469 -329 -42 -71 -87 -199 -102
-296 -16 -104 -6 -295 21 -388 97 -343 384 -521 805 -499 204 11 392 82 514
194 l64 58 -93 113 c-51 61 -95 112 -97 112 -3 0 -25 -17 -49 -38 -100 -89
-222 -132 -374 -132 -211 0 -357 78 -427 228 -14 29 -27 71 -30 93 l-6 39 568
0 568 0 -6 123 c-11 230 -74 398 -197 530 -78 84 -163 137 -275 174 -101 32
-310 42 -415 18z m220 -265 c85 -14 179 -60 225 -111 37 -41 77 -118 89 -171
l6 -28 -395 0 -396 0 6 23 c42 146 170 261 317 286 74 12 75 12 148 1z"/>
<path d="M5700 2220 l0 -150 245 0 245 0 0 -580 0 -580 165 0 165 0 0 580 0
580 245 0 245 0 0 150 0 150 -655 0 -655 0 0 -150z"/>
<path d="M7250 1640 l0 -730 160 0 160 0 0 285 0 285 63 0 62 0 240 -285 239
-285 209 0 c129 0 207 4 205 10 -1 5 -144 174 -317 375 -312 365 -313 366
-295 388 11 11 145 161 298 332 154 170 288 320 299 333 l20 22 -214 0 -214
-1 -240 -284 -240 -284 -57 0 -58 -1 0 285 0 285 -160 0 -160 0 0 -730z"/>
<path d="M8800 1646 l0 -726 160 0 160 0 0 215 0 215 88 0 87 0 185 -220 185
-220 203 0 c160 0 202 3 196 13 -5 6 -95 110 -201 230 -158 177 -191 218 -176
224 169 60 252 124 316 241 74 135 76 346 6 483 -50 100 -168 191 -303 236
l-81 27 -412 4 -413 3 0 -725z m765 429 c109 -29 175 -108 175 -211 0 -102
-40 -168 -127 -211 -57 -28 -60 -28 -275 -31 l-218 -4 0 236 0 236 193 0 c141
0 209 -4 252 -15z"/>
<path d="M10390 1645 l0 -725 160 0 160 0 0 725 0 725 -160 0 -160 0 0 -725z"/>
<path d="M10950 2220 l0 -150 245 0 245 0 0 -580 0 -580 160 0 160 0 0 580 0
580 245 0 245 0 0 150 0 150 -650 0 -650 0 0 -150z"/>
<path d="M12490 1645 l0 -725 165 0 165 0 0 725 0 725 -165 0 -165 0 0 -725z"/>
<path d="M18308 1685 l2 -415 50 0 49 0 3 135 3 135 113 -135 114 -135 54 0
c30 0 54 4 54 10 0 5 -54 71 -120 147 -66 76 -120 141 -120 145 0 4 50 61 110
127 61 66 110 122 110 125 0 3 -26 6 -58 6 l-58 0 -105 -120 -104 -119 -3 254
-2 255 -48 0 -47 0 3 -415z"/>
<path d="M16520 1650 l0 -392 178 4 c150 4 184 7 222 25 87 38 127 116 117
227 -6 69 -27 101 -85 134 l-42 23 30 26 c44 37 60 74 60 140 0 85 -30 141
-95 173 -46 23 -63 25 -217 29 l-168 3 0 -392z m310 294 c64 -26 87 -93 59
-173 -17 -48 -52 -61 -169 -61 l-100 0 0 125 0 125 85 0 c55 0 99 -6 125 -16z
m42 -338 c92 -44 88 -202 -5 -241 -23 -9 -64 -11 -139 -7 l-108 5 0 134 0 135
108 -4 c76 -3 118 -9 144 -22z"/>
<path d="M17280 1841 c-79 -24 -122 -68 -139 -139 l-9 -42 54 0 c47 0 54 3 54
19 0 11 10 32 23 47 40 47 171 44 196 -5 5 -9 11 -37 15 -62 l7 -46 -98 -6
c-155 -9 -229 -44 -258 -122 -37 -95 9 -189 105 -215 58 -16 144 -5 198 25
l42 24 0 -25 c0 -22 4 -24 50 -24 l50 0 0 208 c0 119 -5 224 -11 247 -14 50
-64 100 -114 114 -45 12 -127 13 -165 2z m188 -366 c-6 -67 -40 -109 -102
-126 -99 -27 -175 29 -146 105 18 49 79 73 189 75 l63 1 -4 -55z"/>
<path d="M17884 1829 c-17 -5 -43 -20 -57 -33 l-27 -25 0 29 c0 29 -1 30 -52
30 l-53 0 3 -280 3 -280 49 0 48 0 4 198 c3 170 6 202 21 225 54 83 199 91
235 12 8 -17 12 -93 12 -230 l0 -205 50 0 50 0 0 213 c0 185 -3 217 -19 252
-21 46 -54 79 -94 94 -33 13 -129 13 -173 0z"/>
</g>
</svg>
