<?xml version="1.0" encoding="UTF-8"?>
<svg version="1.1" xmlns="http://www.w3.org/2000/svg" width="1884" height="722">
<path d="M0 0 C101.97 0 203.94 0 309 0 C309 0.33 309 0.66 309 1 C301.41 2.32 293.82 3.64 286 5 C288.92525912 21.88808072 291.85215452 38.7758772 294.78055191 55.663414 C295.25853036 58.41985887 295.73645143 61.17631368 296.21432114 63.9327774 C301.43116458 94.02439707 306.65426991 124.1147813 311.95703125 154.19140625 C312.14637615 155.26572466 312.33572105 156.34004307 312.53080368 157.44691658 C314.30707223 167.52421856 316.08597293 177.60104543 317.87268543 187.67650127 C318.51398802 191.2952747 319.1533834 194.91438338 319.79236412 198.53356743 C320.08598844 200.19365654 320.38055173 201.85357988 320.67612648 203.51332283 C321.07453188 205.75051017 321.46988151 207.98821667 321.86450195 210.22607422 C322.19584892 212.09354813 322.19584892 212.09354813 322.53388977 213.99874878 C323 217 323 217 323 220 C323.61520508 219.87882813 324.23041016 219.75765625 324.86425781 219.6328125 C327.65876078 219.08466405 330.45435165 218.54227517 333.25 218 C334.21808594 217.80921875 335.18617188 217.6184375 336.18359375 217.421875 C337.11816406 217.24140625 338.05273438 217.0609375 339.015625 216.875 C339.87446289 216.70742187 340.73330078 216.53984375 341.61816406 216.3671875 C344 216 344 216 348 216 C347.85796835 215.25644225 347.7159367 214.5128845 347.56960106 213.7467947 C343.13783368 190.48054136 338.99912848 167.16736352 334.92990541 143.83530164 C334.05042481 138.7948284 333.16878476 133.75473279 332.28744507 128.71458435 C330.81546157 120.29489969 329.34495956 111.87495744 327.87548828 103.45483398 C326.17636698 93.71886523 324.47524013 83.98324856 322.77300227 74.24782425 C320.951533 63.83042793 319.1313534 53.4128066 317.31163359 42.99510455 C316.78888188 40.00287237 316.26590218 37.01068012 315.74287796 34.01849556 C314.92613442 29.34553324 314.11026283 24.67241951 313.29508591 19.99918365 C312.99544023 18.28215152 312.69550389 16.56517008 312.39526367 14.84824181 C311.98754634 12.51640088 311.58086565 10.18438158 311.17446899 7.85231018 C310.99384255 6.82135588 310.99384255 6.82135588 310.80956709 5.76957422 C310 1.11419234 310 1.11419234 310 0 C829.42 0 1348.84 0 1884 0 C1884 179.85 1884 359.7 1884 545 C1880.71685815 541.71685815 1878.29027653 538.65133844 1875.8125 534.8125 C1874.92576348 533.46139581 1874.03763655 532.11120356 1873.1484375 530.76171875 C1872.4054541 529.6332251 1872.4054541 529.6332251 1871.64746094 528.48193359 C1868.4522563 523.66829246 1865.19076297 518.89950394 1861.9375 514.125 C1861.20877686 513.05459473 1860.48005371 511.98418945 1859.72924805 510.88134766 C1858.22939956 508.67838903 1856.72935513 506.47556532 1855.22900391 504.27294922 C1851.69199287 499.07939281 1848.15835818 493.883542 1844.625 488.6875 C1843.92947021 487.66479004 1843.23394043 486.64208008 1842.51733398 485.58837891 C1836.77075955 477.13710886 1831.03201869 468.68053975 1825.29455566 460.2230835 C1816.87264241 447.80885369 1808.43770325 435.40350285 1800 423 C1794.33180736 414.66770369 1788.66455148 406.33477223 1783 398 C1782.59896057 397.40993164 1782.19792114 396.81986328 1781.784729 396.21191406 C1779.24714476 392.47802419 1776.71030166 388.74363213 1774.17425537 385.00869751 C1773.36652724 383.8192687 1772.55863257 382.62995295 1771.75054932 381.44076538 C1766.45958574 373.65401421 1761.20917455 365.84166337 1756 358 C1759.29229165 351.84948995 1762.87306651 346.0162526 1766.8125 340.26171875 C1767.36981812 339.44032913 1767.92713623 338.61893951 1768.50134277 337.7726593 C1769.70295361 336.00181706 1770.90608438 334.23200539 1772.1105957 332.46313477 C1775.38530192 327.65241826 1778.64652062 322.83259191 1781.90625 318.01171875 C1782.57974487 317.01574677 1783.25323975 316.01977478 1783.94714355 314.99362183 C1790.88389012 304.7186619 1797.69811628 294.36451541 1804.5 284 C1814.06594442 269.42978119 1823.73463774 254.937583 1833.5 240.5 C1848.15489347 218.77033038 1862.57649313 196.88394146 1877 175 C1839.71 175 1802.42 175 1764 175 C1755.07608135 190.61685764 1746.1900652 206.22742565 1737.42578125 221.9296875 C1733.48841269 228.94217795 1729.41524431 235.87296759 1725.33959961 242.80566406 C1720.09541354 251.7603383 1715.05553861 260.82206265 1710.06079102 269.91748047 C1703.42167492 281.97422436 1703.42167492 281.97422436 1700 287 C1699.34 287 1698.68 287 1698 287 C1697.6189209 286.30777344 1697.2378418 285.61554688 1696.84521484 284.90234375 C1689.48835501 271.55580866 1682.05385465 258.26986739 1674.33886719 245.12597656 C1669.88269398 237.52983095 1665.4884726 229.89965577 1661.125 222.25 C1660.79586609 221.67314453 1660.46673218 221.09628906 1660.12762451 220.50195312 C1658.44747826 217.55688986 1656.76815615 214.61135782 1655.08935547 211.66552734 C1651.8123116 205.91554969 1648.53107295 200.16796779 1645.24871826 194.42102051 C1644.2116897 192.60486363 1643.17538993 190.78829241 1642.13916016 188.97167969 C1641.50929199 187.86856445 1640.87942383 186.76544922 1640.23046875 185.62890625 C1639.40131958 184.1759314 1639.40131958 184.1759314 1638.55541992 182.69360352 C1638.04213135 181.80471436 1637.52884277 180.9158252 1637 180 C1636.70146118 179.13304504 1636.40292236 178.26609009 1636.09533691 177.37286377 C1633.56972661 174.51273701 1632.88696584 174.59988884 1629.19746399 174.36076355 C1627.10494518 174.32840468 1625.01189211 174.32391253 1622.91918945 174.34057617 C1621.77758362 174.33009247 1620.63597778 174.31960876 1619.45977783 174.30880737 C1615.67733941 174.27995099 1611.89581049 174.28636178 1608.11328125 174.29296875 C1605.49438829 174.27986024 1602.87550546 174.26455865 1600.25663757 174.24714661 C1594.06244567 174.20967016 1587.86847333 174.19755653 1581.67417926 174.1945222 C1574.62214278 174.18983523 1567.57032678 174.15692368 1560.51838744 174.12162435 C1546.01230183 174.0496456 1531.50625665 174.01316604 1517 174 C1520.47207869 179.21362827 1523.94489357 184.42676518 1527.4183197 189.63949585 C1528.59370123 191.40365131 1529.76889985 193.16792866 1530.94389343 194.93234253 C1542.18322117 211.80923834 1553.52186651 228.61768096 1564.89111328 245.40722656 C1569.57861415 252.33065043 1574.25803315 259.25953525 1578.93814087 266.18795776 C1581.01471488 269.26193975 1583.09170345 272.33564152 1585.16868591 275.40934753 C1589.39356264 281.66172811 1593.61793942 287.91444567 1597.84107971 294.16799927 C1598.91946965 295.76469373 1599.9980316 297.36127204 1601.07676697 298.95773315 C1603.71705124 302.86540694 1606.35499638 306.77461247 1608.98754883 310.6875 C1613.4210923 317.27115185 1617.86695079 323.84195824 1622.43212891 330.33531189 C1624.26472118 332.94213297 1626.08545895 335.55713349 1627.90606689 338.17233276 C1629.15529401 339.95406563 1630.42353095 341.72109414 1631.69287109 343.48852539 C1632.42715332 344.54418701 1633.16143555 345.59984863 1633.91796875 346.6875 C1634.88899536 348.05455078 1634.88899536 348.05455078 1635.87963867 349.44921875 C1637 352 1637 352 1636.53759766 354.31030273 C1634.36103808 358.11772681 1631.96150479 361.73268196 1629.48046875 365.34765625 C1628.63812431 366.58823036 1628.63812431 366.58823036 1627.77876282 367.85386658 C1626.55966172 369.64891374 1625.33856883 371.44260943 1624.11572266 373.23510742 C1620.79906259 378.09839436 1617.49886725 382.97281729 1614.19921875 387.84765625 C1613.51644867 388.85599518 1612.83367859 389.86433411 1612.13021851 390.90322876 C1605.16267841 401.209354 1598.32448898 411.59883999 1591.5 422 C1581.93479956 436.56991435 1572.27092524 451.06725729 1562.5 465.5 C1549.39094195 484.86388454 1536.49685799 504.36460915 1523.66543579 523.91333008 C1519.79605562 529.80373832 1515.89732052 535.67393907 1511.96516418 541.52264404 C1509.84328285 544.67844819 1509.84328285 544.67844819 1508 548 C1545.62 548 1583.24 548 1622 548 C1622.66 546.35 1623.32 544.7 1624 543 C1625.05159709 540.97747251 1626.13414028 538.97089111 1627.23828125 536.9765625 C1627.55513382 536.40265778 1627.87198639 535.82875305 1628.19844055 535.23745728 C1629.23345525 533.36495661 1630.27283043 531.49491955 1631.3125 529.625 C1632.03903233 528.31355001 1632.76543053 527.0020257 1633.49169922 525.69042969 C1638.87204019 515.98471656 1644.31789877 506.31663279 1649.79296875 496.6640625 C1653.19550603 490.66278635 1656.568765 484.64530064 1659.9375 478.625 C1660.51685303 477.59004395 1661.09620605 476.55508789 1661.69311523 475.48876953 C1664.66872357 470.17155681 1667.64072667 464.85235154 1670.609375 459.53125 C1677.63044163 446.95584968 1684.73642743 434.43701508 1692 422 C1694.78317617 425.34245845 1697.10423703 428.69185575 1699.25 432.47265625 C1699.85166992 433.52598145 1700.45333984 434.57930664 1701.07324219 435.66455078 C1701.70907227 436.78587402 1702.34490234 437.90719727 1703 439.0625 C1704.356656 441.43775866 1705.71709108 443.81084148 1707.078125 446.18359375 C1707.58524017 447.06857544 1707.58524017 447.06857544 1708.1026001 447.97143555 C1710.92665824 452.89188041 1713.81685842 457.76899807 1716.75 462.625 C1721.95488004 471.24838499 1727.1103147 479.90015916 1732.25 488.5625 C1732.85814545 489.58719894 1732.85814545 489.58719894 1733.47857666 490.63259888 C1737.80944917 497.93012444 1742.13686329 505.22969425 1746.4609375 512.53125 C1746.81591309 513.13057846 1747.17088867 513.72990692 1747.53662109 514.34739685 C1749.18684023 517.13364367 1750.83658552 519.92016839 1752.48535156 522.70727539 C1753.6534018 524.68021786 1754.84528455 526.63932221 1756.06492615 528.58079529 C1757.49844895 531.11377764 1758.45827044 533.14718042 1759.40046692 535.83203125 C1761.15533508 540.28740403 1763.1061088 544.07604881 1767 547 C1775.33916349 549.86214577 1784.79434258 548.88349423 1793.47265625 548.68359375 C1795.7867467 548.68141175 1798.10085364 548.68597812 1800.41491699 548.6973877 C1808.96454879 548.6924422 1817.51370421 548.55716188 1826.0625 548.4375 C1845.181875 548.293125 1864.30125 548.14875 1884 548 C1884 605.42 1884 662.84 1884 722 C1391.64 722 899.28 722 392 722 C392 721.67 392 721.34 392 721 C392.79245117 720.91024902 393.58490234 720.82049805 394.40136719 720.72802734 C414.92323277 718.35830372 434.93550124 715.03810938 455 710 C454.43630328 701.0612201 453.15928501 692.3686486 451.57568359 683.55834961 C451.32712519 682.15268393 451.07906753 680.74692963 450.83146667 679.34109497 C450.30195094 676.34015489 449.76917382 673.33981977 449.23380661 670.33991814 C448.38757247 665.59674261 447.55012581 660.85204076 446.71401978 656.10707092 C444.63836223 644.33520608 442.55199987 632.56524204 440.46209717 620.79589844 C438.83283977 611.62022195 437.20681665 602.44399975 435.59106505 593.26593405 C434.75998752 588.54727311 433.92201813 583.82990425 433.07885337 579.1133889 C432.55745598 576.18814258 432.04218478 573.2618421 431.52863503 570.33520889 C431.28894042 568.97660999 431.04668729 567.61845969 430.80172157 566.26080132 C430.46838539 564.4113626 430.14497435 562.56014312 429.82211304 560.70884705 C429.63813147 559.67266707 429.45414989 558.6364871 429.26459312 557.56890774 C429 555 429 555 430 552 C430.40613525 552.7120459 430.81227051 553.4240918 431.23071289 554.15771484 C438.6265745 567.12094474 446.03269565 580.0777428 453.5 593 C458.66832103 601.94553749 463.81431364 610.90354883 468.9375 619.875 C469.26894012 620.45538025 469.60038025 621.0357605 469.94186401 621.63372803 C472.63234108 626.3455141 475.32138652 631.05811682 478.01037598 635.77075195 C482.66296594 643.92445101 487.31979013 652.07570515 491.9833374 660.22314453 C493.03201264 662.05594957 494.07978337 663.8892696 495.12744141 665.72265625 C496.87379331 668.77799639 498.62364045 671.83131057 500.37594604 674.88323975 C501.35439491 676.58907689 502.32969771 678.29671736 503.30493164 680.00439453 C503.89266357 681.02645996 504.48039551 682.04852539 505.0859375 683.1015625 C505.6020459 684.00213379 506.1181543 684.90270508 506.64990234 685.83056641 C507.94793733 688.09909339 507.94793733 688.09909339 510 690 C515.34647926 687.35914147 520.67825386 684.69035015 526 682 C526.69963867 681.64728027 527.39927734 681.29456055 528.12011719 680.93115234 C543.45505284 673.1546167 558.10927073 664.14130363 572 654 C571.41921503 650.30398418 570.40940419 647.56292492 568.55078125 644.32421875 C568.03974854 643.42654785 567.52871582 642.52887695 567.00219727 641.60400391 C566.44459717 640.64155762 565.88699707 639.67911133 565.3125 638.6875 C564.73234131 637.67349121 564.15218262 636.65948242 563.55444336 635.61474609 C558.85845806 627.42716501 554.08721763 619.28309947 549.31274414 611.14111328 C545.03625737 603.83014005 540.87145269 596.46183319 536.75 589.0625 C532.94347885 582.22866762 529.11828255 575.41413888 525.125 568.6875 C520.8884956 561.54770135 516.72844375 554.3648367 512.5980835 547.16323853 C511.87194015 545.89804747 511.14462345 544.63352905 510.41607666 543.36972046 C509.38871064 541.58686865 508.36569738 539.80158704 507.34375 538.015625 C506.74755859 536.97696289 506.15136719 535.93830078 505.53710938 534.86816406 C504.153911 532.28718972 503.02083822 529.74113966 502 527 C504.78823237 528.28923981 506.98996602 529.68619531 509.28515625 531.72265625 C509.89230469 532.25632812 510.49945313 532.79 511.125 533.33984375 C512.0840625 534.19255859 512.0840625 534.19255859 513.0625 535.0625 C514.41691314 536.25250461 515.77238739 537.44130257 517.12890625 538.62890625 C517.79164551 539.20914551 518.45438477 539.78938477 519.13720703 540.38720703 C521.5505066 542.47662472 524.01660672 544.49461325 526.5 546.5 C530.91668944 550.07541526 535.21780385 553.76599348 539.5 557.5 C544.65851311 561.99747977 549.88157094 566.38995452 555.19921875 570.69921875 C559.6799762 574.38006413 564.06159186 578.17513193 568.45703125 581.95703125 C571.81142628 584.84230575 575.18291989 587.70679062 578.5625 590.5625 C579.36083252 591.23708252 579.36083252 591.23708252 580.17529297 591.92529297 C581.2471334 592.83068442 582.31907326 593.73595817 583.39111328 594.64111328 C585.55376601 596.467718 587.71486175 598.2961549 589.875 600.12573242 C590.95036599 601.0351728 592.02717 601.94291579 593.10546875 602.84887695 C595.96142825 605.25209409 598.78175821 607.68620385 601.56640625 610.171875 C602.15164063 610.68685547 602.736875 611.20183594 603.33984375 611.73242188 C604.46483338 612.72348417 605.58120477 613.7244403 606.6875 614.73632812 C609.49182542 617.25503511 609.49182542 617.25503511 613.046875 618.1015625 C620.82093088 613.71699498 627.23345722 604.73134545 632.703125 597.85546875 C634.71193489 595.35812176 636.78165653 592.9303427 638.88500977 590.51269531 C646.94205539 581.21488484 654.17738573 571.2339214 661 561 C660.6879049 557.67112072 659.51403458 556.19512761 657.0078125 554.08203125 C656.08246704 553.29107056 656.08246704 553.29107056 655.13842773 552.48413086 C654.47399658 551.93249268 653.80956543 551.38085449 653.125 550.8125 C652.4431665 550.23443604 651.76133301 549.65637207 651.05883789 549.06079102 C646.35266911 545.08434651 641.58747232 541.17977387 636.80078125 537.30078125 C632.3200238 533.61993587 627.93840814 529.82486807 623.54296875 526.04296875 C620.18857372 523.15769425 616.81708011 520.29320938 613.4375 517.4375 C612.63916748 516.76291748 612.63916748 516.76291748 611.82470703 516.07470703 C610.7528666 515.16931558 609.68092674 514.26404183 608.60888672 513.35888672 C606.44696837 511.53290227 604.2867642 509.70489675 602.12670898 507.87670898 C601.04433746 506.96068121 599.96181847 506.04482764 598.87915039 505.12915039 C596.14363268 502.81543212 593.40998789 500.49956105 590.6796875 498.1796875 C584.63040975 493.04345786 578.5444371 487.96043708 572.390625 482.94921875 C569.57561635 480.65397477 566.78407384 478.33260241 564 476 C566 475 566 475 569.02954102 475.88598633 C570.35718653 476.36007509 571.68174438 476.84285771 573.00390625 477.33203125 C573.73315308 477.59511078 574.4623999 477.85819031 575.21374512 478.12924194 C577.66608694 479.01625307 580.11423064 479.91431504 582.5625 480.8125 C584.29788931 481.44303253 586.03348976 482.07298421 587.76928711 482.70239258 C593.51706877 484.79013439 599.25862395 486.89472038 605 489 C607.05465613 489.75236432 609.109344 490.50464197 611.1640625 491.25683594 C622.60261944 495.44572354 634.03626548 499.64785872 645.46691895 503.85826111 C654.32901048 507.12231721 663.1949923 510.37569192 672.0625 513.625 C673.31714386 514.08486541 674.57178275 514.54474436 675.82641602 515.00463867 C678.55088783 516.00324588 681.27541077 517.0017132 684 518 C693.49777401 505.87874426 697.5629398 488.88307375 702.375 474.4375 C702.63352753 473.6645459 702.89205505 472.8915918 703.15841675 472.09521484 C708.73272709 456.85214667 708.73272709 456.85214667 711 441 C710.35775482 440.76799896 709.71550964 440.53599792 709.05380249 440.29696655 C679.47282887 429.61013187 649.89710345 418.91277699 620.4006958 407.99414062 C614.94155834 405.97463315 609.47348182 403.98026407 604 402 C604 401.67 604 401.34 604 401 C641.95 401 679.9 401 719 401 C719.60607788 391.90883177 720.15777349 383.01277483 720.16796875 373.93359375 C720.17129715 372.85280045 720.17462555 371.77200714 720.17805481 370.65846252 C720.1830675 368.39234841 720.18546491 366.12622707 720.18530273 363.86010742 C720.18748013 360.46845771 720.20567292 357.07713902 720.22460938 353.68554688 C720.22754663 351.45573025 720.2295292 349.22591212 720.23046875 346.99609375 C720.23765427 346.01926132 720.24483978 345.04242889 720.25224304 344.03599548 C720.21863229 333.20975721 718.99346748 322.92814223 718 312 C645.4 312 572.8 312 498 312 C499.65 317.28 501.3 322.56 503 328 C511.21488779 364.82535905 505.38003612 404.34570843 485.54345703 436.61083984 C475.96597125 451.66576404 464.25361986 465.22426339 450 476 C449.47567383 476.40460449 448.95134766 476.80920898 448.41113281 477.22607422 C439.49893453 484.0720954 430.24706436 489.40205525 420 494 C419.3694873 494.28359375 418.73897461 494.5671875 418.08935547 494.859375 C399.98966805 502.85548593 381.07989951 506.40032117 361.3125 506.3125 C359.99612549 506.30758545 358.67975098 506.3026709 357.32348633 506.29760742 C347.27165006 506.17712626 337.75850646 505.40939066 328 503 C327.30729004 502.83371094 326.61458008 502.66742188 325.90087891 502.49609375 C304.14156652 497.11234636 283.90358469 486.74626128 267 472 C266.04738281 471.18015625 265.09476562 470.3603125 264.11328125 469.515625 C241.21798424 449.42737181 223.28591793 420.27810882 218 390 C217.98255856 388.3334246 217.9801829 386.66654885 218 385 C192.42970713 394.3329303 166.8620619 403.67294112 141.3125 413.0625 C140.3106366 413.43067841 139.30877319 413.79885681 138.27655029 414.17819214 C131.18412292 416.784798 124.09202166 419.39229051 117 422 C103.8609687 426.83117202 90.7214682 431.66105234 77.5793457 436.48381042 C71.9934078 438.53372032 66.40796954 440.58497776 60.82324219 442.63818359 C54.74600539 444.87226786 48.6675475 447.10300124 42.58828735 449.33157349 C40.24817024 450.19003976 37.90846464 451.04962864 35.56918335 451.91036987 C32.32976407 453.10209687 29.08890361 454.2898182 25.84765625 455.4765625 C24.87621674 455.83497726 23.90477722 456.19339203 22.90390015 456.56266785 C22.01917023 456.88568375 21.13444031 457.20869965 20.22290039 457.54150391 C19.45136124 457.82474518 18.67982208 458.10798645 17.88490295 458.39981079 C16 459 16 459 14 459 C15.63033178 463.82159504 17.26628424 468.64123422 18.90722656 473.45922852 C19.46342185 475.09478425 20.01814081 476.73084288 20.57128906 478.36743164 C24.11411605 489.04558042 24.11411605 489.04558042 28.390625 499.44140625 C30 503 30 503 30 506 C45.11153404 500.75806438 60.15868962 495.34916018 75.1875 489.875 C76.36518951 489.44647736 77.54287903 489.01795471 78.7562561 488.57644653 C99.44591808 481.047421 120.10934385 473.44802576 140.76489258 465.82592773 C157.45758477 459.66710835 174.16177206 453.54036976 190.875 447.4375 C191.97572845 447.03554413 193.07645691 446.63358826 194.21054077 446.2194519 C208.10859215 441.14499799 208.10859215 441.14499799 211.3973999 439.95480347 C213.27822343 439.26479472 215.15271492 438.55744209 217.02301025 437.83938599 C218.01460144 437.46321136 219.00619263 437.08703674 220.02783203 436.69946289 C220.93131378 436.35097794 221.83479553 436.00249298 222.76565552 435.64344788 C225 435 225 435 227 436 C218.24845358 443.61372434 209.46414264 451.18343922 200.59277344 458.65722656 C197.89185188 460.93421439 195.19622756 463.21745794 192.5 465.5 C191.41669135 466.41669584 190.33335804 467.33336253 189.25 468.25 C188.71375 468.70375 188.1775 469.1575 187.625 469.625 C148.08333333 503.08333333 108.54166667 536.54166667 69 570 C70.58977193 574.90179678 73.41644866 578.57708734 76.5 582.625 C77.30087036 583.68460938 77.30087036 583.68460938 78.11791992 584.765625 C82.08804184 589.95455607 86.27078737 594.82370502 90.7421875 599.58984375 C93.43284395 602.46204969 95.98560694 605.43753547 98.52734375 608.44140625 C100.11534787 610.23855081 100.11534787 610.23855081 103 612 C103.95519531 611.16597656 104.91039063 610.33195313 105.89453125 609.47265625 C117.61069513 599.26668397 117.61069513 599.26668397 123.5 594.5 C127.91668944 590.92458474 132.21780385 587.23400652 136.5 583.5 C141.65851311 579.00252023 146.88157094 574.61004548 152.19921875 570.30078125 C156.07166793 567.11964796 159.86728783 563.85246445 163.66601562 560.58398438 C169.2141872 555.81025769 174.79874354 551.08068993 180.39111328 546.35888672 C183.09572289 544.07453814 185.79772127 541.78710492 188.5 539.5 C189.58332099 538.58331874 190.66665432 537.66665207 191.75 536.75 C192.28625 536.29625 192.8225 535.8425 193.375 535.375 C203.66666667 526.66666667 213.95833333 517.95833333 224.25 509.25 C225.0553418 508.5684082 225.0553418 508.5684082 225.87695312 507.87304688 C226.95338057 506.96242294 228.03019955 506.05226162 229.10742188 505.14257812 C231.92490869 502.76222866 234.73384094 500.37267734 237.53125 497.96875 C238.40233398 497.22334961 238.40233398 497.22334961 239.29101562 496.46289062 C240.39643665 495.51665023 241.49947178 494.56761234 242.59960938 493.61523438 C245.5805503 491.06941159 248.57760693 488.91251377 252 487 C250.65544302 490.54434427 249.08771656 493.80799193 247.234375 497.11328125 C246.68136719 498.10134766 246.12835938 499.08941406 245.55859375 500.10742188 C244.66333984 501.69393555 244.66333984 501.69393555 243.75 503.3125 C243.12738281 504.42044922 242.50476563 505.52839844 241.86328125 506.66992188 C237.07886134 515.15576926 232.18494065 523.57500817 227.25292969 531.97583008 C223.07918633 539.10200276 219.01593691 546.28386337 215 553.5 C209.86368611 562.72931402 204.59787465 571.87236973 199.25 580.98046875 C194.4742304 589.13552176 189.853866 597.37128429 185.25878906 605.62915039 C180.61306099 613.95697583 175.82637018 622.19608604 170.99951172 630.41992188 C165.85540851 639.2014626 160.8905862 648.07524362 156 657 C160.16201025 661.6347741 164.83101138 664.56100109 170.1875 667.6875 C171.06374023 668.20570313 171.93998047 668.72390625 172.84277344 669.2578125 C184.04396466 675.84722237 195.34323623 682.25002684 207 688 C207.26844727 687.28948486 207.53689453 686.57896973 207.81347656 685.84692383 C209.03361495 682.91934487 210.44467689 680.22156671 211.984375 677.44921875 C212.88168335 675.83152588 212.88168335 675.83152588 213.79711914 674.18115234 C214.44784652 673.0164714 215.09881303 671.85192404 215.75 670.6875 C216.08224579 670.09108704 216.41449158 669.49467407 216.75680542 668.88018799 C221.98748127 659.49192357 227.35193058 650.18787507 232.79785156 640.92260742 C236.95737231 633.83166502 241.00277194 626.68353735 245 619.5 C250.13625165 610.27065229 255.40212624 601.12762875 260.75 592.01953125 C264.92244055 584.89471647 268.98489582 577.71450885 273 570.5 C279.82809532 558.23280372 286.85498328 546.08525702 294 534 C294.53343018 533.07477539 295.06686035 532.14955078 295.61645508 531.19628906 C296.0730249 530.47151367 296.52959473 529.74673828 297 529 C297.33 529 297.66 529 298 529 C297.38546471 538.4335497 295.78324056 547.65359931 294.13256836 556.94604492 C293.83647017 558.63230701 293.54077098 560.31863919 293.24543762 562.0050354 C292.44790611 566.55247701 291.64484129 571.09892546 290.84073329 575.64520812 C289.99934163 580.40786426 289.16310624 585.1714256 288.3263092 589.93489075 C286.74332937 598.94144529 285.15575494 607.94718351 283.56650311 616.9526332 C281.75640328 627.21083003 279.95146555 637.469933 278.14694774 647.72911298 C274.43701667 668.82041756 270.72064712 689.91058335 267 711 C268.9980669 711.24384658 270.9961338 711.48769315 272.99420071 711.73153973 C275.34591494 712.04629796 277.6311477 712.5117776 279.94140625 713.05078125 C296.53720674 716.7818622 313.12419093 718.97981355 330 721 C330.12022522 720.23362717 330.24045044 719.46725433 330.36431885 718.67765808 C335.04546606 689.00560819 340.20259795 659.41512321 345.38509369 629.82740974 C346.84709162 621.4806 348.30337015 613.13283974 349.75173259 604.7836526 C350.78491037 598.83034706 351.82416298 592.8781222 352.86808705 586.92669171 C353.48675072 583.39885926 354.1028207 579.87062148 354.71242523 576.34121132 C355.38510431 572.44767481 356.07034717 568.55640993 356.75683594 564.6652832 C356.9552861 563.50565567 357.15373627 562.34602814 357.35820007 561.15126038 C357.54580399 560.09972778 357.7334079 559.04819519 357.92669678 557.96479797 C358.08667019 557.0486588 358.2466436 556.13251963 358.41146469 555.18861866 C359 553 359 553 361 551 C364.78735772 572.40860683 368.56886001 593.81824052 372.34339142 615.22911263 C374.0961013 625.17048776 375.85072676 635.11151769 377.60986328 645.05175781 C379.14309284 653.71550822 380.67272695 662.37988438 382.1980443 671.04503143 C383.00583444 675.6332559 383.81542325 680.22114656 384.62931824 684.80829239 C385.3954302 689.12646114 386.15672934 693.4454508 386.91435814 697.76511574 C387.19314537 699.34966923 387.47368411 700.93391572 387.75611305 702.51782417 C388.14183807 704.68255734 388.52121036 706.84831312 388.89904785 709.01443481 C389.11290382 710.2256708 389.3267598 711.43690678 389.54709625 712.68484688 C390 716 390 716 390 722 C261.3 722 132.6 722 0 722 C0 606.17 0 490.34 0 371 C0.33 371 0.66 371 1 371 C1 374.63 1 378.26 1 382 C72.28 382 143.56 382 217 382 C216.67 380.68 216.34 379.36 216 378 C215.64015192 375.02967835 215.48734221 372.04880503 215.3125 369.0625 C215.25255859 368.30259766 215.19261719 367.54269531 215.13085938 366.75976562 C214.54536451 356.59782043 216.00659505 347.43075196 217 337 C145.72 337 74.44 337 1 337 C1 340.96 1 344.92 1 349 C0.67 349 0.34 349 0 349 C0 233.83 0 118.66 0 0 Z M412 1 C411.82146296 2.02060674 411.64292591 3.04121347 411.45897865 4.09274769 C407.11085506 28.94869057 402.76230968 53.80455963 398.41332436 78.66035175 C396.31018208 90.68051559 394.20717589 102.7007032 392.10449219 114.72094727 C390.27137884 125.20015795 388.43800798 135.67932355 386.60433042 146.15843552 C385.63380506 151.70485247 384.66340695 157.25129161 383.69331741 162.79778481 C382.77928373 168.02375428 381.86490441 173.24966316 380.95026588 178.47552681 C380.61556607 180.38821461 380.28098994 182.30092406 379.94655037 184.21365738 C379.48778821 186.83730681 379.02854118 189.460871 378.56924438 192.08442688 C378.42977961 192.88306644 378.29031483 193.681706 378.14662385 194.50454676 C377.24691125 199.64235448 376.30904771 204.77164508 375.31656456 209.89247417 C374.90097308 212.30407618 374.90097308 212.30407618 375 216 C378.26988299 216.67138621 381.54105049 217.33629263 384.8125 218 C385.74126953 218.19078125 386.67003906 218.3815625 387.62695312 218.578125 C388.51962891 218.75859375 389.41230469 218.9390625 390.33203125 219.125 C391.15421143 219.29257813 391.9763916 219.46015625 392.82348633 219.6328125 C395.12515483 220.08317686 395.12515483 220.08317686 398 220 C401.79072667 198.3952164 405.5813501 176.79041469 409.37185764 155.18559265 C411.13270502 145.14927356 412.89358352 135.11295993 414.65454102 125.07666016 C416.19322429 116.30717678 417.73184334 107.53768214 419.27039188 98.76817513 C420.08155429 94.14467734 420.89274434 89.52118441 421.70401192 84.89770508 C421.85797406 84.0202318 422.01193621 83.14275852 422.17056388 82.23869514 C422.47803036 80.48641573 422.78552284 78.73414087 423.09304172 76.98187065 C423.84035249 72.72318433 424.58704281 68.46439111 425.33234501 64.20535278 C426.71268423 56.32001895 428.09823173 48.43571005 429.50142509 40.55440617 C430.16243969 36.83926349 430.82028167 33.12356236 431.47778499 29.40779686 C431.79149314 27.63994387 432.10672353 25.87236024 432.42356598 24.1050663 C432.86073637 21.66600789 433.29267223 19.22607497 433.72349548 16.78588867 C433.85358265 16.06804136 433.98366982 15.35019405 434.11769903 14.6105938 C434.74409091 11.03163674 435.14402589 7.63466476 435 4 C432.48056604 3.49187886 429.95983127 2.99335466 427.4375 2.5 C426.38079102 2.28537109 426.38079102 2.28537109 425.30273438 2.06640625 C424.25375977 1.86337891 424.25375977 1.86337891 423.18359375 1.65625 C422.54993896 1.53056641 421.91628418 1.40488281 421.26342773 1.27539062 C418.17190375 0.89924576 415.11141323 0.98405455 412 1 Z M183.25 43.25 C182.3425 43.74113281 181.435 44.23226562 180.5 44.73828125 C176.02146546 47.19361817 171.85168317 49.60145602 168 53 C169.62827744 59.21041714 172.98526295 64.35481863 176.25 69.8125 C181.27736853 78.31635112 186.2025605 86.86433717 191 95.5 C196.09753393 104.65765505 201.31309086 113.73694929 206.61376953 122.77832031 C211.08278735 130.4079881 215.49361631 138.06977486 219.875 145.75 C220.20836365 146.33431793 220.54172729 146.91863586 220.88519287 147.5206604 C222.5800349 150.4919198 224.27407984 153.46363272 225.96777344 156.43554688 C228.97480863 161.71111047 231.98877937 166.9827106 235.00228882 172.25457764 C236.66707936 175.16700631 238.33162965 178.07957225 239.99609375 180.9921875 C240.32589737 181.56929474 240.65570099 182.14640198 240.99549866 182.74099731 C243.00653315 186.26036138 245.01641143 189.78038305 247.02542114 193.30090332 C256.30428311 209.56071584 265.62938338 225.79290743 275 242 C279.49339402 241.23116832 282.39568078 239.72644665 286.25 237.25 C291.40592142 233.97892048 296.62124886 230.89090501 302 228 C300.37740421 221.85878301 297.10237226 216.77778178 293.875 211.375 C292.59779136 209.21162603 291.32179746 207.04753455 290.046875 204.8828125 C289.38107422 203.75391602 288.71527344 202.62501953 288.02929688 201.46191406 C284.6751974 195.75495685 281.40225575 190.001299 278.125 184.25 C277.45244124 183.07093578 276.77983353 181.89189949 276.10717773 180.71289062 C274.74982831 178.33329092 273.39301564 175.9533863 272.03662109 173.57324219 C268.67347949 167.67198311 265.30621933 161.7730765 261.9375 155.875 C261.60606995 155.29463989 261.27463989 154.71427979 260.9331665 154.11633301 C256.14392337 145.73158738 251.33051209 137.3610388 246.5 129 C241.33176808 120.05440856 236.18598739 111.09628077 231.0625 102.125 C230.73172455 101.5459491 230.4009491 100.96689819 230.06015015 100.37030029 C226.67558992 94.44497659 223.2941279 88.51790364 219.91870117 82.58737183 C213.19379664 70.77307519 206.44737248 58.97208478 199.5625 47.25 C199.01247314 46.30850098 198.46244629 45.36700195 197.89575195 44.39697266 C197.39519287 43.54925293 196.89463379 42.7015332 196.37890625 41.828125 C195.9413501 41.0846582 195.50379395 40.34119141 195.05297852 39.57519531 C194.70549561 39.05538086 194.3580127 38.53556641 194 38 C190.5930685 38 186.17510916 41.64445824 183.25 43.25 Z M532 41 C530.42359754 43.26371393 529.08332086 45.47017302 527.75 47.875 C527.32090332 48.62676514 526.89180664 49.37853027 526.44970703 50.15307617 C525.4866553 51.84069203 524.52810889 53.53088406 523.57324219 55.22314453 C521.92255558 58.13669349 520.24949208 61.03637823 518.5703125 63.93359375 C511.66332533 75.85120527 504.81833257 87.80392232 497.99139404 99.76748657 C492.5712181 109.2653298 487.11594625 118.74250985 481.64453125 128.2109375 C477.07295377 136.12733791 472.53053067 144.0600753 468 152 C462.25162988 162.07423396 456.47187995 172.12986412 450.66650391 182.17138672 C447.32137212 187.96188858 443.9905837 193.76018926 440.6796875 199.5703125 C440.13873444 200.51919342 440.13873444 200.51919342 439.58685303 201.48724365 C437.84403567 204.54489537 436.10311895 207.60360451 434.36523438 210.6640625 C433.73681641 211.7675 433.10839844 212.8709375 432.4609375 214.0078125 C431.87151367 215.04325195 431.28208984 216.07869141 430.67480469 217.14550781 C429.18011915 219.69300975 427.60531736 222.15443841 425.9765625 224.6171875 C424.99816406 226.29167969 424.99816406 226.29167969 424 228 C425.50132344 232.50397033 428.80864353 233.56711767 432.8125 235.8125 C433.53759766 236.24498047 434.26269531 236.67746094 435.00976562 237.12304688 C435.71423828 237.52201172 436.41871094 237.92097656 437.14453125 238.33203125 C437.78753174 238.70046143 438.43053223 239.0688916 439.09301758 239.44848633 C441.02481224 240.19100048 441.02481224 240.19100048 443.0559082 239.40551758 C445.52893854 237.61759397 446.51368383 235.8652069 447.9609375 233.1796875 C448.50758057 232.18179199 449.05422363 231.18389648 449.61743164 230.15576172 C450.1974292 229.07311035 450.77742676 227.99045898 451.375 226.875 C452.62955679 224.58226325 453.88611862 222.29062266 455.14453125 220 C455.62456856 219.12237503 455.62456856 219.12237503 456.11430359 218.22702026 C459.32041978 212.37774035 462.67908457 206.62291288 466.0625 200.875 C470.61293173 193.12217821 475.09490953 185.33632552 479.5 177.5 C483.90510575 169.66364729 488.38842997 161.87863713 492.9375 154.125 C497.72109579 145.96849187 502.40113227 137.7620351 507 129.5 C512.0918193 120.35456811 517.29818896 111.28550309 522.59399414 102.25683594 C527.93553337 93.14088785 533.17987276 83.97123307 538.40771484 74.78979492 C539.03500488 73.68869385 539.66229492 72.58759277 540.30859375 71.453125 C540.91429199 70.38513672 541.51999023 69.31714844 542.14404297 68.21679688 C543.42347694 65.99924597 544.73168446 63.79813251 546.06298828 61.61132812 C546.71380371 60.53818359 547.36461914 59.46503906 548.03515625 58.359375 C548.92473022 56.92029785 548.92473022 56.92029785 549.83227539 55.45214844 C551.36974576 52.9535894 551.36974576 52.9535894 550 50 C547.56630714 48.31848668 545.17320264 46.79737273 542.625 45.3125 C541.93921875 44.89677734 541.2534375 44.48105469 540.546875 44.05273438 C536.54899512 41.63238318 536.54899512 41.63238318 532 41 Z M96 113 C94.14563067 114.86658922 92.34515493 116.75391654 90.5625 118.6875 C90.02915039 119.26459717 89.49580078 119.84169434 88.94628906 120.4362793 C83.57374383 126.33252812 78.74075201 132.59159408 74 139 C75.50224846 142.73892951 77.60165298 144.54093605 80.75 147 C85.20115328 150.54465209 89.56690651 154.15782646 93.875 157.875 C95.06883426 158.90254845 96.26284528 159.92989157 97.45703125 160.95703125 C98.04693848 161.46443848 98.6368457 161.9718457 99.24462891 162.49462891 C102.00657924 164.8632222 104.78334181 167.21414078 107.5625 169.5625 C108.09472168 170.01222168 108.62694336 170.46194336 109.17529297 170.92529297 C110.2471334 171.83068442 111.31907326 172.73595817 112.39111328 173.64111328 C114.55303163 175.46709773 116.7132358 177.29510325 118.87329102 179.12329102 C119.95566254 180.03931879 121.03818153 180.95517236 122.12084961 181.87084961 C124.85636732 184.18456788 127.59001211 186.50043895 130.3203125 188.8203125 C135.30314347 193.05079624 140.29702715 197.2585368 145.375 201.375 C150.49813067 205.54221124 155.47594928 209.86312457 160.45263672 214.20263672 C164.08719203 217.36452443 167.75511868 220.46842941 171.5 223.5 C176.58809206 227.61893166 181.52003823 231.90147334 186.453125 236.203125 C190.08756499 239.36479231 193.75529818 242.46857472 197.5 245.5 C201.9166979 249.07542211 206.21766336 252.76614525 210.5 256.5 C216.57096188 261.78948294 222.73047942 266.94638644 229 272 C230.39992187 273.15242188 230.39992187 273.15242188 231.828125 274.328125 C232.73046875 275.06546875 233.6328125 275.8028125 234.5625 276.5625 C235.77099609 277.55443359 235.77099609 277.55443359 237.00390625 278.56640625 C238.86114973 280.19444708 238.86114973 280.19444708 241 280 C242.20723464 278.46296943 243.33917977 276.86665431 244.4375 275.25 C249.6303029 267.90385132 255.64221649 261.35778351 262 255 C262 254.01 262 253.02 262 252 C260.02402623 250.03504643 260.02402623 250.03504643 257.375 248.0625 C256.36953125 247.26714844 255.3640625 246.47179687 254.328125 245.65234375 C253.51504883 245.01014893 253.51504883 245.01014893 252.68554688 244.35498047 C249.77322883 242.01382097 246.95254945 239.56727862 244.125 237.125 C242.93122391 236.09738397 241.73721256 235.07004118 240.54296875 234.04296875 C239.95306152 233.53556152 239.3631543 233.0281543 238.75537109 232.50537109 C235.99342076 230.1367778 233.21665819 227.78585922 230.4375 225.4375 C229.63916748 224.76291748 229.63916748 224.76291748 228.82470703 224.07470703 C227.7528666 223.16931558 226.68092674 222.26404183 225.60888672 221.35888672 C222.90427711 219.07453814 220.20227873 216.78710492 217.5 214.5 C216.41667901 213.58331874 215.33334568 212.66665207 214.25 211.75 C207.75 206.25 207.75 206.25 206.12451172 204.87451172 C205.04290479 203.95935587 203.96119931 203.0443165 202.87939453 202.12939453 C200.14382061 199.81556522 197.41007526 197.49963529 194.6796875 195.1796875 C189.69685653 190.94920376 184.70297285 186.7414632 179.625 182.625 C174.50186933 178.45778876 169.52405072 174.13687543 164.54736328 169.79736328 C160.91280797 166.63547557 157.24488132 163.53157059 153.5 160.5 C149.08331056 156.92458474 144.78219615 153.23400652 140.5 149.5 C135.34424284 145.00492302 130.12489122 140.61376778 124.80859375 136.30859375 C121.49700866 133.58655371 118.2470459 130.79840625 115 128 C105.97944792 118.71947581 105.97944792 118.71947581 96 113 Z M626.5625 124.9375 C623.03712435 128.17539867 619.47160238 131.30213719 615.75 134.3125 C611.48268967 137.76842033 607.28688225 141.29377899 603.125 144.875 C596.98295547 150.15995661 590.80907722 155.40532727 584.61767578 160.63232422 C582.97091021 162.02459417 581.32689933 163.42005473 579.68359375 164.81640625 C574.69973752 169.04853633 569.70440728 173.25737398 564.625 177.375 C559.50266476 181.54156423 554.52582622 185.86201281 549.54956055 190.20043945 C545.03784637 194.12489097 540.44674445 197.93426783 535.80078125 201.69921875 C531.92833207 204.88035204 528.13271217 208.14753555 524.33398438 211.41601562 C518.7858128 216.18974231 513.20125646 220.91931007 507.60888672 225.64111328 C505.44696837 227.46709773 503.2867642 229.29510325 501.12670898 231.12329102 C500.04433746 232.03931879 498.96181847 232.95517236 497.87915039 233.87084961 C495.14363268 236.18456788 492.40998789 238.50043895 489.6796875 240.8203125 C488.57813181 241.75521635 487.47656936 242.69011225 486.375 243.625 C485.84156982 244.07883057 485.30813965 244.53266113 484.75854492 245.00024414 C482.13769523 247.22238201 479.49933074 249.41360518 476.80859375 251.55078125 C475.81988281 252.33839844 474.83117187 253.12601563 473.8125 253.9375 C472.93207031 254.62714844 472.05164063 255.31679687 471.14453125 256.02734375 C468.66861341 258.07023719 468.66861341 258.07023719 467 262 C470.63 266.29 474.26 270.58 478 275 C482.09968132 272.95015934 485.16054304 270.43187056 488.5625 267.4375 C489.82464212 266.34013436 491.08767134 265.24378823 492.3515625 264.1484375 C493.28403809 263.33971191 493.28403809 263.33971191 494.23535156 262.51464844 C496.59986658 260.48511729 499.01360529 258.52054107 501.4375 256.5625 C505.87239317 252.96363971 510.19567786 249.25267936 514.5 245.5 C519.65855495 241.00256649 524.88156886 236.61004716 530.19921875 232.30078125 C534.07166793 229.11964796 537.86728783 225.85246445 541.66601562 222.58398438 C547.21107167 217.81293833 552.79283679 213.08651595 558.38232422 208.36767578 C560.02908979 206.97540583 561.67310067 205.57994527 563.31640625 204.18359375 C568.30026248 199.95146367 573.29559272 195.74262602 578.375 191.625 C583.49733524 187.45843577 588.47417378 183.13798719 593.45043945 178.79956055 C597.96215363 174.87510903 602.55325555 171.06573217 607.19921875 167.30078125 C611.06724608 164.12328042 614.85881643 160.86015826 618.65283203 157.5949707 C622.73123865 154.08521497 626.82660767 150.59664588 630.9375 147.125 C635.30704113 143.43433683 639.66446206 139.73057916 644 136 C642.37278635 132.28570797 640.05329514 129.38358949 637.5 126.25 C636.30890625 124.77273437 636.30890625 124.77273437 635.09375 123.265625 C634.4028125 122.51796875 633.711875 121.7703125 633 121 C629.91732427 121 628.77805353 122.8637419 626.5625 124.9375 Z M888 174 C888 297.42 888 420.84 888 548 C919.35 548 950.7 548 983 548 C983 508.4 983 468.8 983 428 C1007.255 428.495 1007.255 428.495 1032 429 C1035.8053125 436.2084375 1035.8053125 436.2084375 1039.6875 443.5625 C1044.83496517 453.28145241 1050.02995561 462.95754759 1055.5 472.5 C1060.69627019 481.56696963 1065.62534 490.7578599 1070.5 500 C1076.9611166 512.24891418 1083.59973512 524.37074953 1090.50878906 536.37475586 C1092.70087342 540.23387228 1094.84459798 544.12027636 1097 548 C1132.97 548 1168.94 548 1206 548 C1205.04420449 544.17681794 1203.94389221 541.99825515 1201.89453125 538.6953125 C1200.92471313 537.12499268 1200.92471313 537.12499268 1199.93530273 535.52294922 C1199.22790121 534.39017494 1198.52029511 533.2575284 1197.8125 532.125 C1197.08309791 530.94957804 1196.35401659 529.77395698 1195.62524414 528.59814453 C1190.54964393 520.42349896 1185.40182256 512.29502029 1180.21972656 504.1875 C1174.03767721 494.51428767 1167.96442171 484.77394479 1161.89111328 475.03222656 C1158.76456579 470.01909464 1155.63203534 465.00970442 1152.5 460 C1148.71330011 453.94236888 1144.92739001 447.8842495 1141.14453125 441.82421875 C1140.50918457 440.80682617 1139.87383789 439.78943359 1139.21923828 438.74121094 C1137.96050626 436.72530567 1136.70235628 434.70903684 1135.44482422 432.69238281 C1132.46277719 427.91572453 1129.46460882 423.15092868 1126.42578125 418.41015625 C1125.86785889 417.53721924 1125.30993652 416.66428223 1124.73510742 415.76489258 C1123.69184376 414.13537644 1122.64410233 412.50871496 1121.59106445 410.88549805 C1120.90016724 409.80522339 1120.90016724 409.80522339 1120.1953125 408.703125 C1119.79328613 408.08083008 1119.39125977 407.45853516 1118.97705078 406.81738281 C1117.94318249 404.89431546 1117.43732194 403.13187089 1117 401 C1117.60585937 400.52691406 1118.21171875 400.05382812 1118.8359375 399.56640625 C1142.97448908 380.51551862 1161.53940081 356.53483195 1168 326 C1168.22429687 325.02804687 1168.44859375 324.05609375 1168.6796875 323.0546875 C1174.85212319 291.34696992 1167.61861917 256.37589963 1151 229 C1148.50540942 225.50356582 1145.80955195 222.24598721 1143 219 C1142.40832031 218.26394531 1141.81664062 217.52789062 1141.20703125 216.76953125 C1119.08926903 190.12446589 1084.14522229 179.11189681 1051 175 C996.85332818 170.48777735 942.33435582 174 888 174 Z M1178 174 C1178 200.73 1178 227.46 1178 255 C1215.62 255 1253.24 255 1292 255 C1292 351.69 1292 448.38 1292 548 C1325.33 548 1358.66 548 1393 548 C1393 451.31 1393 354.62 1393 255 C1430.62 255 1468.24 255 1507 255 C1507 228.27 1507 201.54 1507 174 C1398.43 174 1289.86 174 1178 174 Z M29 217 C25.21646478 225.2461665 22.00280843 233.58367418 19.125 242.1875 C18.8148999 243.10813232 18.5047998 244.02876465 18.18530273 244.97729492 C17.75713257 246.27824097 17.75713257 246.27824097 17.3203125 247.60546875 C17.06523926 248.38043701 16.81016602 249.15540527 16.54736328 249.95385742 C15.87078849 252.1300009 15.87078849 252.1300009 16 255 C16.58023422 255.21059052 17.16046844 255.42118103 17.75828552 255.63815308 C45.75717029 265.80105001 73.74584673 275.98979736 101.70019531 286.2746582 C115.42685109 291.32424027 129.16204835 296.34998886 142.90188599 301.36358643 C167.96002337 310.50724753 192.98796403 319.73102404 218 329 C220.34102956 326.65897044 220.78176697 325.04753063 221.76953125 321.90625 C222.10146484 320.875 222.43339844 319.84375 222.77539062 318.78125 C223.45675259 316.62552853 224.13649062 314.46929299 224.81445312 312.3125 C226.78157726 306.21101709 229.01062782 300.63901337 232.15112305 295.04101562 C233.31889983 292.86287665 233.31889983 292.86287665 232 290 C229.92047747 288.86321086 229.92047747 288.86321086 227.29223633 288.00146484 C225.77052071 287.45244507 225.77052071 287.45244507 224.21806335 286.89233398 C223.10067276 286.50247314 221.98328217 286.1126123 220.83203125 285.7109375 C219.67157791 285.29545654 218.51112457 284.87997559 217.31550598 284.4519043 C214.80219197 283.55350219 212.28780678 282.65938094 209.77056885 281.77215576 C205.78145205 280.3658968 201.79813407 278.94373221 197.81591797 277.51806641 C196.47058751 277.03657255 195.12525058 276.55509675 193.77990723 276.07363892 C193.11267136 275.83483631 192.44543549 275.59603371 191.75798035 275.34999466 C189.72232716 274.62208874 187.68613292 273.89571592 185.64978027 273.16976929 C173.94148842 268.99405906 162.27650262 264.70639286 150.625 260.375 C146.91317975 258.99756542 143.2008603 257.62148177 139.48828125 256.24609375 C138.56403351 255.9036412 137.63978577 255.56118866 136.68753052 255.20835876 C123.98615309 250.50756734 111.25874191 245.87758745 98.53302002 241.24319458 C86.76782585 236.95809767 75.01405315 232.64669775 63.29296875 228.2421875 C62.28667923 227.8646785 61.28038971 227.48716949 60.24360657 227.09822083 C55.49094598 225.31470594 50.74097117 223.52460407 45.99536133 221.72241211 C44.31991875 221.09203385 42.64438699 220.46189256 40.96875 219.83203125 C40.2140593 219.54242523 39.45936859 219.25281921 38.68180847 218.95443726 C35.20411053 217.65428553 32.76454238 217 29 217 Z " fill="#000000" transform="translate(0,0)"/>
<path d="M0 0 C55.51428571 0 55.51428571 0 76.1875 14.1875 C87.25393106 25.25393106 90.34894227 38.49497203 90.4375 53.625 C90.26882014 68.29896841 87.62156097 81.27045428 77.25 92.3125 C56.31036111 111.66880135 26.56459024 108 0 108 C0 72.36 0 36.72 0 0 Z " fill="#000000" transform="translate(983,247)"/>
</svg>
