<?xml version="1.0" standalone="no"?>
<!DOCTYPE svg PUBLIC "-//W3C//DTD SVG 20010904//EN"
 "http://www.w3.org/TR/2001/REC-SVG-20010904/DTD/svg10.dtd">
<svg version="1.0" xmlns="http://www.w3.org/2000/svg"
 width="860.000000pt" height="165.000000pt" viewBox="0 0 860.000000 165.000000"
 preserveAspectRatio="xMidYMid meet">

<g transform="translate(0.000000,165.000000) scale(0.100000,-0.100000)"
fill="#000000" stroke="none">
<path d="M6815 1026 c-157 -57 -269 -102 -314 -127 -45 -25 -27 -19 69 22 41
18 147 58 235 90 88 32 153 58 145 58 -8 0 -69 -19 -135 -43z"/>
<path d="M6378 844 c-27 -13 -48 -27 -48 -29 0 -5 99 42 109 51 13 11 -20 0
-61 -22z"/>
<path d="M6254 774 c-18 -14 -18 -15 4 -4 12 6 22 13 22 15 0 8 -5 6 -26 -11z"/>
</g>
</svg>
