<svg xmlns="http://www.w3.org/2000/svg" viewBox="0 0 400 50" width="100%" height="100%">
    <path fill="#ffffff" d="M12.4 17.2h15.2v2.6H12.4v9h17.3v2.6H9.7V14.6h20v2.6H12.4v-.2zm24.7-2.6h10.4c4.8 0 7.4 2.2 7.4 5.7 0 2.8-1.6 4.7-4.6 5.3l5.5 10.8h-3.2l-5.1-10.2H40v10.2h-2.9V14.6zm10.2 8.7c2.9 0 4.4-1.2 4.4-3.2 0-1.9-1.5-3-4.4-3H40v6.2h7.3zM69 14.6h3l9.4 21.8h-3.1l-2.6-6.2H65.2l-2.6 6.2H59.5L69 14.6zm5.8 13L70.5 17l-4.3 10.6h8.6zm25.2-9.4c3.4 0 6 1.4 7.3 4l-2.4 1.5c-.9-1.7-2.6-2.7-4.9-2.7-3.9 0-6.7 3.2-6.7 7.5 0 4.3 2.8 7.5 6.7 7.5 2.3 0 4-1 4.9-2.7l2.4 1.5c-1.3 2.6-3.9 4-7.3 4-5.7 0-9.7-4.3-9.7-10.3s4-10.3 9.7-10.3zm20.3 9.4h15.2v2.6h-15.2v9h17.3v2.6h-20.2V14.6h20v2.6h-17.1v-.2z"/>
    <path fill="#ffffff" d="M141.6 14.6l5.9 8.7 5.9-8.7h3.6l-7.7 11.1 8.1 13.3h-3.6l-6.3-10.5-6.3 10.5h-3.6l8.1-13.3-7.7-11.1h3.6zm24.7 0h3l16.1 27.2h-3.5l-3.9-6.7H162l-3.9 6.7h-3.5l16.2-27.2zm10 17.8l-6.2-10.6-6.2 10.6h12.4z"/>
    <path fill="#cc0000" d="M190.5 14.6c20.5 0 38.5 7.2 50.3 18.5L255 31c-13.2-12.3-32.5-20-55.3-20-37.1 0-68.5 20.3-81.5 50.3h4.2c12.5-27.4 41-46.7 78.1-46.7z"/>
</svg>
