<?xml version="1.0" encoding="UTF-8"?>
<svg version="1.1" xmlns="http://www.w3.org/2000/svg" width="2400" height="296">
<path d="M0 0 C785.07 0 1570.14 0 2379 0 C2379 0.33 2379 0.66 2379 1 C2378.42722321 1.03678864 2377.85444641 1.07357727 2377.26431274 1.11148071 C2265.51268933 8.33025152 2154.86706483 23.88030451 1895 107 C1893.98212402 107.433125 1892.96424805 107.86625 1891.91552734 108.3125 C1854.26821754 124.40413397 1817.39348075 142.40636747 1782 163 C1780.94103516 163.61456055 1779.88207031 164.22912109 1778.79101562 164.86230469 C1756.66203668 177.73958354 1734.92144148 191.23021677 1714 206 C1713.12674072 206.61319092 1713.12674072 206.61319092 1712.23583984 207.23876953 C1686.20745094 225.53466348 1660.92310403 245.19485013 1637.48828125 266.73046875 C1635.31382334 268.71376552 1633.10836783 270.64629684 1630.875 272.5625 C1626.35477319 276.48253072 1622.19649957 280.73793012 1618 285 C1619.98 288.63 1621.96 292.26 1624 296 C1599.91 296 1575.82 296 1551 296 C1551 285.11 1551 274.22 1551 263 C1548.64329666 263.00888245 1546.28659332 263.01776489 1543.85847473 263.0269165 C1521.68282905 263.10859054 1499.50720317 263.16815304 1477.33144093 263.20724869 C1465.92980325 263.22788346 1454.52827587 263.25602163 1443.12670898 263.30175781 C1433.19036225 263.34159746 1423.25409538 263.36742615 1413.317671 263.37635398 C1408.05524002 263.38157357 1402.79303753 263.39386067 1397.5306797 263.42292023 C1392.57883831 263.45004386 1387.62731984 263.45845114 1382.67541122 263.45243073 C1380.85691639 263.45353233 1379.0384109 263.46150435 1377.21998024 263.4768219 C1374.73840337 263.49670236 1372.25804818 263.49194678 1369.77644348 263.48101807 C1369.05561846 263.49266943 1368.33479344 263.5043208 1367.59212524 263.51632524 C1364.02038543 263.47376156 1362.09386142 263.05991239 1359.05365467 261.11932755 C1356.56371489 258.54976313 1356.36889449 257.45803305 1356.35302734 253.92773438 C1356.33726654 252.91988892 1356.32150574 251.91204346 1356.30526733 250.87365723 C1356.31538849 249.79128784 1356.32550964 248.70891846 1356.3359375 247.59375 C1356.33115387 246.47689819 1356.32637024 245.36004639 1356.32144165 244.20935059 C1356.31804055 241.84902538 1356.32725749 239.48865321 1356.34814453 237.12841797 C1356.3749043 233.5129302 1356.34840086 229.90054731 1356.31640625 226.28515625 C1356.31971031 223.99218064 1356.32611645 221.69920696 1356.3359375 219.40625 C1356.32075577 217.78269592 1356.32075577 217.78269592 1356.30526733 216.12634277 C1356.32102814 215.11849731 1356.33678894 214.11065186 1356.35302734 213.07226562 C1356.35700531 212.18720337 1356.36098328 211.30214111 1356.36508179 210.39025879 C1357 208 1357 208 1358.8853302 205.71136475 C1363.41619425 203.22186778 1367.39078058 203.47208793 1372.48168945 203.54589844 C1373.53580521 203.54531433 1374.58992096 203.54473022 1375.67597961 203.54412842 C1379.15541672 203.54691207 1382.63399405 203.57801871 1386.11328125 203.609375 C1388.52751701 203.61683635 1390.94175883 203.62252978 1393.35600281 203.62652588 C1399.70684563 203.64179034 1406.05732191 203.68107981 1412.40802002 203.7253418 C1418.88980145 203.76627659 1425.37164216 203.78453311 1431.85351562 203.8046875 C1444.56919729 203.84757282 1457.2845108 203.91792997 1470 204 C1470 193.11 1470 182.22 1470 171 C1413.57 171 1357.14 171 1299 171 C1299 212.25 1299 253.5 1299 296 C1260.39 296 1221.78 296 1182 296 C1182 295.67 1182 295.34 1182 295 C1183.55847656 294.76216797 1183.55847656 294.76216797 1185.1484375 294.51953125 C1193.56158959 293.14527537 1200.56685449 291.36481219 1208 287 C1208.70640625 286.70222656 1209.4128125 286.40445312 1210.140625 286.09765625 C1212.49379448 284.70849528 1212.97221465 283.50063847 1214 281 C1214.33 280.34902344 1214.66 279.69804687 1215 279.02734375 C1217.03073197 274.78343123 1218.34115664 270.84197691 1219.125 266.19140625 C1219.29257813 265.21502197 1219.46015625 264.2386377 1219.6328125 263.23266602 C1219.75398438 262.49588623 1219.87515625 261.75910645 1220 261 C1218.9593231 261.00553076 1217.9186462 261.01106152 1216.84643364 261.01675987 C1191.53341038 261.14991199 1166.2204325 261.24853288 1140.9071331 261.31087303 C1128.66582677 261.34182102 1116.42475167 261.38401994 1104.18359375 261.45263672 C1093.51513457 261.5124094 1082.84684284 261.55114227 1072.17822087 261.56453097 C1066.52832063 261.57235826 1060.87889948 261.59077434 1055.22915268 261.63438034 C1049.9119696 261.67508728 1044.59546322 261.68767273 1039.27813911 261.67864609 C1037.3262025 261.68029757 1035.37424341 261.69224376 1033.42244148 261.71523285 C1030.75686001 261.74509066 1028.09383275 261.73791091 1025.42819214 261.7215271 C1024.65580668 261.73900415 1023.88342123 261.7564812 1023.08763015 261.77448785 C1018.96771234 261.70604201 1016.49501672 261.00774644 1013.52043629 258.25457382 C1011.23275231 255.61935927 1010.24920287 253.77406542 1010.24482727 250.20529175 C1010.22935349 249.29409576 1010.2138797 248.38289978 1010.19793701 247.4440918 C1010.21851166 245.97105591 1010.21851166 245.97105591 1010.23950195 244.46826172 C1010.23059433 243.42042511 1010.22168671 242.3725885 1010.21250916 241.29299927 C1010.19124083 237.83792408 1010.21352426 234.38471656 1010.23828125 230.9296875 C1010.23677887 228.5264568 1010.23334895 226.1232266 1010.22807312 223.72000122 C1010.22374271 218.68792297 1010.24057575 213.65648581 1010.27270508 208.62451172 C1010.31252789 202.16995645 1010.30316912 195.71660041 1010.27847004 189.26200676 C1010.26430017 184.30174906 1010.27436267 179.34177236 1010.29198265 174.38153458 C1010.29783783 172.00125932 1010.29652224 169.62095538 1010.28795815 167.24068832 C1010.2799818 163.91745622 1010.30416778 160.59599322 1010.3371582 157.27294922 C1010.32860809 156.28687683 1010.32005798 155.30080444 1010.31124878 154.28485107 C1010.32679306 153.37929474 1010.34233734 152.4737384 1010.35835266 151.54074097 C1010.36312858 150.36331738 1010.36312858 150.36331738 1010.36800098 149.16210747 C1011.36195593 145.76172652 1012.9772837 144.76899052 1016 143 C1018.92460302 142.62286099 1021.46489428 142.47555088 1024.38386536 142.51898193 C1025.22526571 142.51556423 1026.06666607 142.51214653 1026.93356341 142.50862527 C1029.75138491 142.50203954 1032.56825267 142.52403373 1035.38598633 142.54589844 C1037.40640236 142.54702677 1039.42682003 142.54639334 1041.44723511 142.54412842 C1046.93244475 142.54297978 1052.41730521 142.56651363 1057.90243363 142.59442425 C1063.6346194 142.61941274 1069.36681297 142.62177789 1075.0990448 142.62652588 C1085.95394955 142.63896313 1096.80869335 142.671795 1107.66352719 142.71192384 C1120.02130551 142.75661813 1132.37909148 142.77862271 1144.73693049 142.79870558 C1170.15804293 142.84052688 1195.57901245 142.91089362 1221 143 C1220.55257238 140.92426015 1220.09645747 138.85039168 1219.63671875 136.77734375 C1219.38365967 135.62226318 1219.13060059 134.46718262 1218.86987305 133.27709961 C1216.98872461 126.19019097 1213.29474451 121.44116788 1207.28125 117.3125 C1193.43972208 109.3488812 1177.18907932 109.70024449 1161.71386719 109.7253418 C1159.91836843 109.72098411 1158.12287153 109.71579748 1156.32737732 109.70985413 C1151.49035389 109.69656522 1146.65340907 109.69587419 1141.81637096 109.69841743 C1137.75881785 109.69949423 1133.70128018 109.69458566 1129.6437304 109.689812 C1120.05983824 109.67875134 1110.47598528 109.6782597 1100.89208984 109.68432617 C1091.05028695 109.69036075 1081.2086272 109.67806007 1071.36684871 109.6567561 C1062.87632494 109.63906223 1054.38584641 109.63315103 1045.89530492 109.63639385 C1040.8423213 109.63819478 1035.78943977 109.63569092 1030.73647308 109.62167931 C1025.97894015 109.60897836 1021.22162806 109.61115924 1016.46409798 109.62409019 C1014.73330926 109.62642925 1013.00250439 109.62381919 1011.27173424 109.61546707 C1002.47351909 109.57612207 993.94301844 109.93519385 985.24664307 111.35139465 C984.1521864 111.52893722 984.1521864 111.52893722 983.0356195 111.7100665 C974.32887243 113.27817899 965.64661372 116.6831455 960.17578125 123.9453125 C954.65180241 133.5985114 953.85032674 143.42642635 953.83886719 154.29101562 C953.83390228 155.42032501 953.82893738 156.5496344 953.82382202 157.71316528 C953.80923518 161.44419977 953.80240288 165.17519169 953.796875 168.90625 C953.79111911 171.50972494 953.78536144 174.11319987 953.77960205 176.7166748 C953.77004089 181.48011564 953.76413842 186.24354738 953.7611053 191.00699663 C953.75663709 197.98322456 953.73914193 204.95925533 953.7101047 211.93542337 C953.68572734 218.00625113 953.67815334 224.07699867 953.67642975 230.14787292 C953.67341848 232.7152768 953.66544206 235.28268016 953.65224457 237.85005188 C952.77078564 262.92296347 952.77078564 262.92296347 963.4921875 284.671875 C971.43673234 292.35033461 982.46316505 293.72686891 993 295 C993 295.33 993 295.66 993 296 C979.68323829 296.44176906 966.36823913 296.77856991 953.04562187 296.98443127 C946.85768365 297.08328341 940.67478364 297.21712038 934.48974609 297.43334961 C928.51107213 297.64103703 922.53721448 297.75363298 916.55521011 297.80266762 C914.28290062 297.83756573 912.01083257 297.9057317 909.74059677 298.00887108 C892.44097664 298.76297597 892.44097664 298.76297597 886.68058014 294.13759232 C882.47209438 289.61841132 879.28530739 284.59099399 876.27775669 279.21908379 C874.61590679 276.33294419 872.70173407 273.81874357 870.625 271.21875 C870.02018799 270.43016602 869.41537598 269.64158203 868.79223633 268.82910156 C868.20079834 268.06049805 867.60936035 267.29189453 867 266.5 C861.8682792 259.79933351 856.80127335 253.05775687 851.8125 246.25 C846.86918612 239.50474148 841.84440883 232.83024192 836.75097656 226.19775391 C828.79034215 215.82957201 820.984497 205.35016885 813.25 194.8125 C808.23823146 187.98580153 803.14663196 181.22554335 798 174.5 C792.25635866 166.99429352 786.59794226 159.43312533 781.0078125 151.8125 C777.36845818 146.85201021 773.69966626 141.9156491 770 137 C765.42297936 130.90663239 760.85609748 124.80584074 756.3125 118.6875 C755.69955078 117.86830078 755.08660156 117.04910156 754.45507812 116.20507812 C753.88853516 115.44001953 753.32199219 114.67496094 752.73828125 113.88671875 C752.23337158 113.20826904 751.72846191 112.52981934 751.20825195 111.83081055 C750 110 750 110 749 107 C745.4172793 108.19424023 744.66066536 109.3637095 742.375 112.3125 C741.67890625 113.20324219 740.9828125 114.09398438 740.265625 115.01171875 C738.67606984 117.1082872 737.10302174 119.21107453 735.546875 121.33203125 C734.94093506 122.15417114 734.94093506 122.15417114 734.32275391 122.99291992 C733.16872958 124.56541333 732.02554719 126.14584587 730.8828125 127.7265625 C729.95082031 128.85191406 729.95082031 128.85191406 729 130 C728.34 130 727.68 130 727 130 C726.61714844 130.84304687 726.61714844 130.84304687 726.2265625 131.703125 C724.84307219 134.29386482 723.20061417 136.45107845 721.375 138.75 C720.74335937 139.54921875 720.11171875 140.3484375 719.4609375 141.171875 C718.97882812 141.77515625 718.49671875 142.3784375 718 143 C722.43359588 150.14217493 727.0899692 157.09831449 731.87133789 164.01025391 C734.70380277 168.10694276 737.49838879 172.22353998 740.25 176.375 C743.16940179 180.77783766 746.1687815 185.11385443 749.21484375 189.4296875 C751.90163976 193.29820342 754.48029904 197.23691612 757.0625 201.17578125 C758.78401535 203.68516753 760.61367333 205.98022364 762.5625 208.3125 C764.91054409 211.34591912 765.00295863 211.81360643 764.9375 215.9375 C764 219 764 219 763 220 C761.62183866 220.09019397 760.23907842 220.11135508 758.85798645 220.10438538 C757.96496826 220.10261292 757.07195007 220.10084045 756.15187073 220.09901428 C755.16436325 220.09220139 754.17685577 220.08538849 753.15942383 220.07836914 C751.01520335 220.07225097 748.87098233 220.06632444 746.72676086 220.06056213 C745.58329004 220.05588991 744.43981922 220.05121769 743.26169777 220.04640388 C737.23109005 220.02732191 731.20053851 220.04242853 725.16992188 220.05273438 C717.48407944 220.06499131 709.7987932 220.06666235 702.11303711 220.02416992 C695.91292225 219.99078926 689.71391113 219.99619087 683.51379967 220.02773857 C681.1491125 220.03267015 678.7843512 220.02334496 676.41977882 219.99952888 C673.10778792 219.96813733 669.79947812 219.98628606 666.48754883 220.01586914 C665.51016251 219.99488663 664.53277618 219.97390411 663.52577209 219.95228577 C658.29278663 220.01949046 658.29278663 220.01949046 654.09055138 222.84667778 C652.44941229 225.01742749 652.44941229 225.01742749 651.13910961 227.28459835 C650.76320344 227.85068089 650.38729727 228.41676344 650 229 C649.34 229 648.68 229 648 229 C647.77828125 229.51949219 647.5565625 230.03898438 647.328125 230.57421875 C645.48436616 233.94179004 643.13998107 236.81701434 640.75 239.8125 C640.05197266 240.69905273 640.05197266 240.69905273 639.33984375 241.60351562 C636.91671866 244.66412955 634.43904754 247.66391021 631.89630127 250.62602234 C631.35439777 251.25751536 630.81249428 251.88900839 630.25416946 252.53963757 C629.63335558 253.26251697 629.63335558 253.26251697 629 254 C629.80838192 253.99870118 630.61676384 253.99740236 631.44964218 253.99606419 C651.15700111 253.96681003 670.8640131 253.97630839 690.57133102 254.02846622 C700.10185252 254.05276411 709.63205676 254.06414472 719.16259766 254.04467773 C727.47346524 254.02773529 735.78388885 254.03547614 744.09469819 254.07234758 C748.49174603 254.09100689 752.88804375 254.09765144 757.28508759 254.07469368 C761.43217959 254.05343208 765.57790452 254.06541752 769.72487831 254.10184479 C771.23885442 254.10947676 772.75294664 254.10542824 774.2668438 254.08818626 C784.37341463 253.98199122 791.86689951 255.62617585 800 262 C802.38749835 264.50395954 804.24612854 267.06120938 806.0625 270 C807.04635327 271.4920896 808.03207518 272.98294851 809.01953125 274.47265625 C809.50631348 275.2217627 809.9930957 275.97086914 810.49462891 276.74267578 C813.38381689 281.07505205 816.5587096 285.20181749 819.69946289 289.35351562 C823 293.78606778 823 293.78606778 823 296 C685.72 296 548.44 296 407 296 C407 227 407 227 411 223 C413.89383888 222.49777794 413.89383888 222.49777794 417.32022095 222.49447632 C418.62072891 222.48345383 419.92123688 222.47243134 421.26115417 222.46107483 C422.70096023 222.46897808 424.14076432 222.47724536 425.58056641 222.48583984 C427.09873669 222.48037858 428.61690146 222.4731369 430.13505554 222.46424866 C433.4063007 222.44889881 436.67723215 222.44611531 439.9485054 222.45301437 C445.13745566 222.46381588 450.32608001 222.44639507 455.51498413 222.42520142 C463.74180123 222.3949104 471.96852188 222.38324571 480.19539011 222.37962496 C494.87394865 222.37299955 509.55243756 222.34360721 524.23091447 222.2945286 C529.37138242 222.27818119 534.5117115 222.27286632 539.65220249 222.27585232 C575.39835034 223.82380807 575.39835034 223.82380807 607 210 C615.20393674 201.09229417 615.15456984 189.78998708 615.16796875 178.32421875 C615.17129715 177.31841263 615.17462555 176.31260651 615.17805481 175.27632141 C615.18309504 173.15760756 615.18546404 171.03888585 615.18530273 168.92016602 C615.18748626 165.70770966 615.20566517 162.49559876 615.22460938 159.28320312 C615.22754464 157.21354283 615.22952854 155.14388092 615.23046875 153.07421875 C615.23765427 152.1280217 615.24483978 151.18182465 615.25224304 150.20695496 C615.21639573 139.55373167 614.11529362 129.36230384 607 121 C592.14703051 109.04701606 572.63714305 109.69942108 554.61352539 109.70947266 C552.46225757 109.70348022 550.3109919 109.69667303 548.159729 109.68911743 C542.34829413 109.67153554 536.53691824 109.66676571 530.72545934 109.66548586 C527.09306878 109.6640607 523.46069306 109.65978448 519.8283062 109.65449142 C507.15302457 109.63602592 494.47778487 109.62781755 481.80249023 109.62939453 C469.98822504 109.63059905 458.17414161 109.60942703 446.35992247 109.5779072 C436.20681145 109.55178423 426.05376002 109.54102537 415.90061563 109.54230535 C409.84026995 109.54281561 403.78008642 109.53709522 397.71977425 109.51594925 C392.02905844 109.49663087 386.33866078 109.49639848 380.64793396 109.51098251 C378.55853245 109.51307879 376.46911133 109.50832127 374.37974358 109.4962616 C371.53098837 109.48088089 368.68334045 109.49006925 365.83460999 109.50552368 C365.00524195 109.49523656 364.17587392 109.48494943 363.32137352 109.47435057 C358.20692091 109.53580799 355.84018132 110.35201264 352 114 C351.34 114 350.68 114 350 114 C350 174.06 350 234.12 350 296 C308.75 296 267.5 296 225 296 C225 295.67 225 295.34 225 295 C226.83111328 294.85304688 226.83111328 294.85304688 228.69921875 294.703125 C248.07728834 293.0088999 248.07728834 293.0088999 265 284 C265.33 283.34 265.66 282.68 266 282 C266.66 282 267.32 282 268 282 C268.4021875 280.7625 268.4021875 280.7625 268.8125 279.5 C269.87947859 276.35522099 271.05794561 273.29382185 272.31640625 270.22265625 C274.24918892 263.93835145 274.17262104 257.44271697 274.203125 250.9296875 C274.20882507 249.97160187 274.21452515 249.01351624 274.22039795 248.02639771 C274.22980982 246.00426321 274.23636669 243.98211364 274.24023438 241.95996094 C274.24990403 238.90531814 274.28094948 235.85135927 274.3125 232.796875 C274.49551926 211.53634531 274.49551926 211.53634531 265 193 C246.6058475 177.76835091 215.86529097 181.71276735 193.48204231 181.72560501 C188.1991913 181.72847438 182.91647003 181.71395928 177.63365173 181.69662476 C162.62826387 181.64991922 147.6228892 181.62562269 132.61743164 181.61914062 C124.29451255 181.61539396 115.97174467 181.59741585 107.64889044 181.56404626 C102.39713831 181.54384484 97.14577626 181.54145284 91.89400113 181.55232644 C88.63893375 181.55492851 85.38409553 181.54095826 82.12908745 181.52224541 C80.61979379 181.51691425 79.11045819 181.518436 77.60118103 181.52728081 C75.54269813 181.53837404 73.48577085 181.525008 71.42738342 181.50552368 C70.27585313 181.50443415 69.12432283 181.50334461 67.93789768 181.50222206 C64.34570921 180.88815156 63.16239053 179.88921676 61 177 C60.49829102 173.65600586 60.49829102 173.65600586 60.50390625 169.71484375 C60.50245102 169.01734512 60.50099579 168.3198465 60.49949646 167.60121155 C60.50115211 166.13115244 60.51267623 164.6610754 60.53344727 163.19116211 C60.56245299 160.94114685 60.554042 158.69348197 60.54101562 156.44335938 C60.54725208 155.01300939 60.5556423 153.58266683 60.56640625 152.15234375 C60.57615479 150.85288818 60.58590332 149.55343262 60.59594727 148.21459961 C61 145 61 145 62.02341175 143.32163525 C65.1359049 141.24048321 68.41139888 141.5985581 72.02946472 141.63923645 C73.270626 141.63539154 73.270626 141.63539154 74.53686124 141.63146895 C77.31928516 141.6265136 80.1011707 141.6430527 82.88354492 141.65942383 C84.87410977 141.66026972 86.86467556 141.6597957 88.85523987 141.65809631 C94.26819424 141.65723347 99.68095031 141.67490606 105.09385848 141.69581819 C110.74732067 141.7145368 116.40078711 141.71633162 122.05427551 141.71989441 C132.7640081 141.72922905 143.47364911 141.75386204 154.18334132 141.78394288 C166.37421807 141.81744275 178.56509912 141.83396179 190.75601041 141.84902918 C215.8373911 141.88041035 240.91869042 141.93319841 266 142 C266.34272949 140.73164307 266.68545898 139.46328613 267.03857422 138.15649414 C267.23135956 137.44304337 267.4241449 136.72959259 267.62277222 135.99452209 C268.32393861 132.28723453 266.60706142 130.19521172 264.68359375 127.171875 C255.67903897 115.55579042 242.34283812 111.49818196 228.25872803 109.45806885 C221.18982298 108.71209589 214.08081367 108.84364573 206.98144531 108.83886719 C205.36889026 108.83423098 203.7563363 108.82920526 202.14378357 108.82382202 C197.78147576 108.81076683 193.41918329 108.8042657 189.05685902 108.79981136 C186.32104351 108.79686738 183.58523208 108.79276 180.84941864 108.78830719 C172.25997828 108.77464573 163.67054736 108.76497443 155.08109689 108.7611053 C145.2224283 108.75663819 135.3638993 108.73914742 125.5052731 108.7101047 C117.84962226 108.68834864 110.19401026 108.67839354 102.53832889 108.67706418 C97.98315209 108.67602536 93.42810672 108.6703186 88.87296295 108.65224457 C66.21722599 108.39737144 66.21722599 108.39737144 43.67089844 110.27050781 C42.89067448 110.37856121 42.11045052 110.48661461 41.3065834 110.59794235 C32.84541832 112.021795 23.98986761 115.72240949 18 122 C10.50602255 133.56431038 10.64547634 147.7978108 10.68432617 161.11035156 C10.687487 163.36572678 10.66392047 165.61978543 10.63867188 167.875 C10.58120044 181.02717216 10.91534767 196.82326735 20.71484375 206.734375 C33.99750299 217.70818754 52.51046646 217.30288859 68.84008789 217.23950195 C70.47934048 217.24061778 72.11859266 217.24268016 73.75784302 217.24560547 C77.2569561 217.25028856 80.75600182 217.24924933 84.2551136 217.24382973 C89.78987007 217.23616255 95.32449929 217.24693645 100.85923767 217.2610321 C116.58674717 217.29861905 132.31419552 217.31692166 148.04174805 217.30541992 C156.75139818 217.29920782 165.4608399 217.3107508 174.17043871 217.34186524 C179.67203802 217.36051431 185.17304648 217.35720937 190.67463601 217.33769763 C194.09039419 217.33082295 197.50583049 217.34475642 200.92152786 217.36464691 C202.50457965 217.36969828 204.08768533 217.36619863 205.67069435 217.35351372 C207.83224757 217.33742241 209.99151904 217.35202864 212.15296936 217.3742218 C213.96605386 217.37447341 213.96605386 217.37447341 215.81576633 217.37473011 C219.93727875 218.18404811 221.42886081 219.74270283 224 223 C224.63110352 226.42578125 224.63110352 226.42578125 224.62890625 230.3125 C224.63131821 231.00384033 224.63373016 231.69518066 224.63621521 232.4074707 C224.63523956 233.86317708 224.62191289 235.31892186 224.59692383 236.77441406 C224.56259081 238.9941291 224.57627843 241.2098626 224.59570312 243.4296875 C224.58880414 244.84897516 224.57913126 246.26825262 224.56640625 247.6875 C224.55552979 248.97011719 224.54465332 250.25273437 224.53344727 251.57421875 C223.88738371 255.72321823 223.0722057 257.1492357 220 260 C216.94087895 260.49791835 214.43641321 260.67053502 211.37693787 260.6257782 C210.49767311 260.63272274 209.61840835 260.63966729 208.7124992 260.64682227 C205.76028831 260.66411365 202.80936832 260.64576092 199.85717773 260.62768555 C197.7432492 260.63286231 195.62932509 260.6402607 193.51541138 260.64971924 C188.96070537 260.66530343 184.40636729 260.66509581 179.85165215 260.65271568 C172.65473494 260.6332187 165.45814661 260.6483441 158.26124573 260.66816711 C146.88222518 260.69533793 135.50333806 260.69880368 124.12429148 260.69239408 C103.73672376 260.68145866 83.34919605 260.70597645 62.9616695 260.74614173 C55.80215686 260.75924639 48.64276628 260.76045193 41.48324764 260.7520088 C37.03630661 260.74839368 32.58939699 260.75267267 28.14245987 260.7588501 C26.07480441 260.75993906 24.00714389 260.75755404 21.93949699 260.7515049 C19.12493235 260.74366361 16.31063854 260.74791086 13.49607849 260.75517273 C12.67099161 260.7498274 11.84590473 260.74448206 10.99581522 260.73897475 C7.13473505 260.7614607 5.28937394 260.80708404 2 263 C2.41183526 271.89564152 5.03820416 278.32871869 11 285 C22.30398708 292.59431949 35.69777747 294.2934717 49 295 C49 295.33 49 295.66 49 296 C32.83 296 16.66 296 0 296 C0 198.32 0 100.64 0 0 Z M1628 108 C1627.27232997 109.23884319 1626.56845185 110.49168341 1625.875 111.75 C1625.48054688 112.44609375 1625.08609375 113.1421875 1624.6796875 113.859375 C1623.76802252 116.00157894 1623.76802252 116.00157894 1624.7121582 118.12866211 C1626.66481969 120.96603657 1629.37528868 122.66096404 1632.1875 124.5625 C1633.46943342 125.45344455 1634.75066107 126.3454053 1636.03125 127.23828125 C1636.69125 127.69541504 1637.35125 128.15254883 1638.03125 128.62353516 C1641.11982604 130.78293393 1644.15413784 133.01400685 1647.1875 135.25 C1647.79875732 135.69931885 1648.41001465 136.1486377 1649.03979492 136.61157227 C1651.027443 138.07314548 1653.01385855 139.53638016 1655 141 C1655.74975098 141.55236328 1656.49950195 142.10472656 1657.27197266 142.67382812 C1660.49890911 145.05136106 1663.72566558 147.42913751 1666.9519043 149.80761719 C1671.7962994 153.37855871 1676.64518704 156.94323713 1681.5 160.5 C1687.31806415 164.76328477 1693.1296067 169.03536928 1698.9375 173.3125 C1700.10925781 174.17488281 1700.10925781 174.17488281 1701.3046875 175.0546875 C1702.43583984 175.88806641 1702.43583984 175.88806641 1703.58984375 176.73828125 C1704.3257373 177.27404785 1705.06163086 177.80981445 1705.81982422 178.36181641 C1707.30073578 179.47457302 1708.7501657 180.63023379 1710.16845703 181.82177734 C1711.20075439 182.67376709 1711.20075439 182.67376709 1712.25390625 183.54296875 C1712.85662354 184.06270264 1713.45934082 184.58243652 1714.08032227 185.11791992 C1716.03707545 186.26654014 1716.03707545 186.26654014 1718.39697266 185.33959961 C1721.09659858 183.95028734 1723.75791565 182.52948083 1726.39453125 181.0234375 C1727.42489502 180.43884766 1728.45525879 179.85425781 1729.5168457 179.25195312 C1730.60441162 178.63255859 1731.69197754 178.01316406 1732.8125 177.375 C1742.41471015 171.95003814 1752.07900936 166.81017728 1762 162 C1764.33675649 160.84005883 1766.66822077 159.66995195 1769 158.5 C1770.66666667 157.66666667 1772.33333333 156.83333333 1774 156 C1772.4631571 151.52538257 1768.86957336 149.39017901 1765.1875 146.75 C1763.72835348 145.68079637 1762.2700635 144.61042313 1760.8125 143.5390625 C1760.03261719 142.96833008 1759.25273438 142.39759766 1758.44921875 141.80957031 C1754.15379872 138.63596054 1749.92570679 135.37437023 1745.6875 132.125 C1737.8137258 126.10336705 1729.87442697 120.17901198 1721.86401367 114.34033203 C1721.12127197 113.79747559 1720.37853027 113.25461914 1719.61328125 112.6953125 C1718.96141846 112.22109863 1718.30955566 111.74688477 1717.63793945 111.25830078 C1716 110 1716 110 1714 108 C1711.25895231 107.81193404 1708.61975713 107.74821596 1705.87841797 107.77294922 C1704.61976929 107.77251114 1704.61976929 107.77251114 1703.33569336 107.77206421 C1700.55442056 107.77346067 1697.77341366 107.78903665 1694.9921875 107.8046875 C1693.06690619 107.80841651 1691.14162299 107.81126401 1689.21633911 107.81326294 C1684.1429523 107.82090824 1679.06967956 107.8405644 1673.99633789 107.8626709 C1668.82179304 107.88311005 1663.64722981 107.89226052 1658.47265625 107.90234375 C1648.31505398 107.92380946 1638.15753647 107.95795619 1628 108 Z M1299 109 C1299 120.55 1299 132.1 1299 144 C1382.82 144 1466.64 144 1553 144 C1553 132.45 1553 120.9 1553 109 C1469.18 109 1385.36 109 1299 109 Z " fill="#000000" transform="translate(0,0)"/>
<path d="M0 0 C0 97.68 0 195.36 0 296 C-147.18 296 -294.36 296 -446 296 C-445.01 292.7 -444.02 289.4 -443 286 C-443.73347656 285.7421875 -444.46695312 285.484375 -445.22265625 285.21875 C-448.11026493 283.9516137 -450.03673175 282.53045911 -452.4375 280.5 C-456.47777853 277.18012775 -460.60593153 274.0758228 -464.875 271.0625 C-470.18315794 267.30836578 -475.41155305 263.46763825 -480.6015625 259.55078125 C-492.98343987 250.22835735 -505.51705121 241.09714607 -518.1015625 232.05078125 C-525.51084601 226.72029802 -532.89470367 221.36413393 -540.1875 215.875 C-540.83323975 215.3910376 -541.47897949 214.9070752 -542.14428711 214.40844727 C-545.51047307 211.88370219 -548.85950289 209.33937089 -552.19140625 206.76953125 C-553.54404522 205.74189047 -554.89690201 204.71453632 -556.25 203.6875 C-556.87028076 203.20071777 -557.49056152 202.71393555 -558.12963867 202.21240234 C-561.26358694 199.77281131 -561.26358694 199.77281131 -565.03515625 198.91796875 C-567.97772355 200.53842828 -570.57309979 202.53332688 -573.1875 204.625 C-573.75831299 205.07214355 -574.32912598 205.51928711 -574.91723633 205.97998047 C-577.55033116 208.04490645 -580.16543964 210.13197994 -582.78125 212.21875 C-583.5753125 212.8478125 -584.369375 213.476875 -585.1875 214.125 C-585.88230469 214.68445313 -586.57710937 215.24390625 -587.29296875 215.8203125 C-589 217 -589 217 -591 217 C-591 217.66 -591 218.32 -591 219 C-592.76303678 220.43787433 -594.58825847 221.79982567 -596.4375 223.125 C-601.92063942 227.1131093 -607.02352436 231.38796323 -612 236 C-603.05027796 242.73755737 -594.0864851 249.44735964 -585 256 C-583.6522598 256.97384217 -582.30461103 257.94781087 -580.95703125 258.921875 C-577.09325874 261.7140776 -573.22818682 264.5044761 -569.36279297 267.29443359 C-567.06584353 268.95247129 -564.76917954 270.61090336 -562.47265625 272.26953125 C-561.73265381 272.80392822 -560.99265137 273.3383252 -560.23022461 273.88891602 C-558.75027718 274.95800995 -557.27061939 276.02750495 -555.79125977 277.09741211 C-551.82381785 279.96581548 -547.8499093 282.82471644 -543.8671875 285.671875 C-543.031875 286.27064453 -542.1965625 286.86941406 -541.3359375 287.48632812 C-539.72065899 288.64394439 -538.10352773 289.79898068 -536.484375 290.95117188 C-535.76507812 291.46744141 -535.04578125 291.98371094 -534.3046875 292.515625 C-533.66515137 292.97227539 -533.02561523 293.42892578 -532.36669922 293.89941406 C-531.91568848 294.26260742 -531.46467773 294.62580078 -531 295 C-531 295.33 -531 295.66 -531 296 C-586.44 296 -641.88 296 -699 296 C-691.94832651 287.7730476 -684.59343522 280.09309675 -676.34765625 273.06640625 C-673.72784866 270.76045248 -671.19326367 268.376198 -668.6550293 265.98120117 C-662.86336296 260.51724297 -657.0220467 255.23839529 -650.796875 250.265625 C-647.53168485 247.62063857 -644.36244981 244.87691391 -641.1875 242.125 C-634.29660439 236.18515261 -627.20705267 230.54955041 -620 225 C-619.22769043 224.40171387 -618.45538086 223.80342773 -617.65966797 223.18701172 C-574.48655104 189.76673133 -528.18739167 160.61217214 -480 135 C-479.09024414 134.51354004 -478.18048828 134.02708008 -477.24316406 133.52587891 C-433.95899086 110.41441265 -389.07050045 90.83252471 -343.08044434 73.77227783 C-341.13878562 73.05151835 -339.19872383 72.32646095 -337.25878906 71.60107422 C-252.32121752 39.96164952 -162.6869078 19.3362936 0 0 Z " fill="#000000" transform="translate(2400,0)"/>
<path d="M0 0 C1.87894707 -0.00591408 1.87894707 -0.00591408 3.79585266 -0.01194763 C7.22643928 -0.01750727 10.65551708 -0.00076292 14.08590674 0.02653241 C17.68468062 0.0504133 21.28343945 0.04741794 24.88227844 0.0478363 C30.93077537 0.05246374 36.97895747 0.07609101 43.02734375 0.11230469 C49.99996167 0.15394356 56.97229571 0.17161421 63.94503087 0.17492443 C71.38879007 0.17853927 78.83244843 0.19744477 86.27616525 0.22204471 C88.40995275 0.22824465 90.54373254 0.23189915 92.67752647 0.23507881 C96.67446195 0.24213739 100.67111408 0.26659482 104.66796875 0.29296875 C105.83975677 0.29363342 107.0115448 0.2942981 108.21884155 0.29498291 C126.84016629 0.46379126 126.84016629 0.46379126 133.6574707 6.59936523 C136.47016434 12.43739602 135.98827536 18.76595298 135.9699707 25.09936523 C135.98608398 26.2144043 136.00219727 27.32944336 136.01879883 28.47827148 C136.02493312 38.77160514 136.02493312 38.77160514 132.6574707 43.59936523 C125.17699462 50.03605396 115.13737651 48.75524624 105.80322266 48.77636719 C104.53236816 48.78293839 103.26151367 48.78950958 101.95214844 48.79627991 C97.76669543 48.81715463 93.58124268 48.82765741 89.39575195 48.83764648 C87.94960194 48.84169839 86.50345212 48.84581543 85.05730247 48.84999657 C78.26939507 48.86900113 71.48149831 48.88324949 64.69356948 48.89160854 C56.87051269 48.90140402 49.04773708 48.92780307 41.22477943 48.96810943 C35.16513973 48.9982567 29.10558086 49.01307553 23.04586762 49.01638955 C19.43120574 49.0187389 15.81684596 49.0276862 12.20226479 49.05285072 C8.17584006 49.08043729 4.15004832 49.07630472 0.12353516 49.06933594 C-1.07086685 49.082146 -2.26526886 49.09495605 -3.49586487 49.1081543 C-11.51007187 49.05745195 -11.51007187 49.05745195 -15.58122253 46.81716919 C-17.42772433 44.49208927 -17.97214264 43.56337968 -17.98950195 40.64453125 C-18.00526276 39.88016251 -18.02102356 39.11579376 -18.03726196 38.32826233 C-18.02714081 37.51151535 -18.01701965 36.69476837 -18.0065918 35.85327148 C-18.01137543 35.00514389 -18.01615906 34.1570163 -18.02108765 33.28318787 C-18.02448538 31.49199567 -18.01529161 29.70074137 -17.99438477 27.90966797 C-17.9676475 25.17395992 -17.99411645 22.4423666 -18.02612305 19.70678711 C-18.02281827 17.96393954 -18.01641063 16.22109453 -18.0065918 14.47827148 C-18.01671295 13.66354874 -18.02683411 12.84882599 -18.03726196 12.00941467 C-18.02150116 11.24189377 -18.00574036 10.47437286 -17.98950195 9.68359375 C-17.98552399 9.01393082 -17.98154602 8.34426788 -17.97744751 7.65431213 C-15.28156284 -1.07106339 -7.54437472 -0.09469039 0 0 Z " fill="#000000" transform="translate(424.342529296875,141.400634765625)"/>
</svg>
