<svg xmlns="http://www.w3.org/2000/svg" style="display: none;">

    <symbol id="logo-spacex" viewBox="0 0 400 50">
        <path d="M12.4 17.2h15.2v2.6H12.4v9h17.3v2.6H9.7V14.6h20v2.6H12.4v-.2zm24.7-2.6h10.4c4.8 0 7.4 2.2 7.4 5.7 0 2.8-1.6 4.7-4.6 5.3l5.5 10.8h-3.2l-5.1-10.2H40v10.2h-2.9V14.6zm10.2 8.7c2.9 0 4.4-1.2 4.4-3.2 0-1.9-1.5-3-4.4-3H40v6.2h7.3zM69 14.6h3l9.4 21.8h-3.1l-2.6-6.2H65.2l-2.6 6.2H59.5L69 14.6zm5.8 13L70.5 17l-4.3 10.6h8.6zm25.2-9.4c3.4 0 6 1.4 7.3 4l-2.4 1.5c-.9-1.7-2.6-2.7-4.9-2.7-3.9 0-6.7 3.2-6.7 7.5 0 4.3 2.8 7.5 6.7 7.5 2.3 0 4-1 4.9-2.7l2.4 1.5c-1.3 2.6-3.9 4-7.3 4-5.7 0-9.7-4.3-9.7-10.3s4-10.3 9.7-10.3zm20.3 9.4h15.2v2.6h-15.2v9h17.3v2.6h-20.2V14.6h20v2.6h-17.1v-.2z"/>
        <path d="M141.6 14.6l5.9 8.7 5.9-8.7h3.6l-7.7 11.1 8.1 13.3h-3.6l-6.3-10.5-6.3 10.5h-3.6l8.1-13.3-7.7-11.1h3.6zm24.7 0h3l16.1 27.2h-3.5l-3.9-6.7H162l-3.9 6.7h-3.5l16.2-27.2zm10 17.8l-6.2-10.6-6.2 10.6h12.4z"/>
        <path d="M190.5 14.6c20.5 0 38.5 7.2 50.3 18.5L255 31c-13.2-12.3-32.5-20-55.3-20-37.1 0-68.5 20.3-81.5 50.3h4.2c12.5-27.4 41-46.7 78.1-46.7z"/>
    </symbol>

    <symbol id="logo-otkritie" viewBox="0 0 350 45">
        <path d="M22.5 0C10.1 0 0 10.1 0 22.5S10.1 45 22.5 45 45 34.9 45 22.5 34.9 0 22.5 0zm0 39C13.4 39 6 31.6 6 22.5S13.4 6 22.5 6 39 13.4 39 22.5 31.6 39 22.5 39z"/>
        <text x="60" y="31" font-family="'Helvetica Neue', Arial, sans-serif" font-size="24" font-weight="bold" letter-spacing="2">OTKRITIE</text>
    </symbol>

    <symbol id="logo-rtx" viewBox="0 0 180 50">
        <path d="M10 10h25c8 0 13 4 13 11 0 5-3 9-8 11l10 13H36l-9-12H20v12H10V10zm10 10v10h14c3 0 5-2 5-5s-2-5-5-5H20zm45-10h30v8H80v10h12v8H80v10h15v8H65V10zm50 0l12 18 12-18h11l-17 24 17 21h-11l-12-17-12 17h-11l17-21-17-24h11z"/>
    </symbol>

    <symbol id="logo-boeing" viewBox="0 0 220 40">
        <path d="M15 8h22c5 0 8 2 8 6 0 3-2 5-5 6 4 1 6 3 6 7 0 5-4 7-9 7H15V8zm8 6v4h12c2 0 3-1 3-2s-1-2-3-2H23zm0 9v5h14c2 0 3-1 3-2.5s-1-2.5-3-2.5H23zm42-7c0-6 5-10 11-10s11 4 11 10-5 10-11 10-11-4-11-10zm8 0c0 3 1.5 5 3 5s3-2 3-5-1.5-5-3-5-3 2-3 5zm33-7h22v5h-14v4h12v5h-12v4h14v5h-22V8zm35 0h8v24h-8V8zm15 0h7l12 14V8h8v24h-6L143 17v15h-8V8zm40 12v4h8v3c0 5-4 8-10 8-7 0-11-4-11-10s4-10 11-10c5 0 8 2 9 5l-7 2c-1-1-1.5-2-2.5-2-2.5 0-3.5 2-3.5 5s1 5 3.5 5c2.5 0 3.5-1 3.5-3h-2v-2h4z"/>
    </symbol>

    <symbol id="logo-lmt" viewBox="0 0 240 45">
        <path d="M10 5h8v28h14v7H10V5zm35 0h30v7H53v9h18v7H53v10h23v7H45V5zm42 0h10l11 15L119 5h10v35h-8V17l-10 14h-6l-10-14v23h-8V5zm52 0h18c7 0 11 4 11 10 0 4-2 7-6 9l8 16h-9l-7-14h-7v14h-8V5zm8 7v10h9c2.5 0 4-1.5 4-5s-1.5-5-4-5h-9zm40-7h8v35h-8V5zm15 0h8l16 21V5h8v35h-6l-18-23v23h-8V5z"/>
    </symbol>

    <symbol id="logo-gd" viewBox="0 0 200 45">
        <path d="M15 5h20c12 0 18 7 18 17.5S47 40 35 40H15V5zm10 7v21h10c6 0 9-3 9-10.5S41 12 35 12H25zm42-7h30v7H77v9h16v7H77v10h18v7H67V5zm40 0h7l16 21V5h8v35h-6l-18-23v23h-8V5z"/>
    </symbol>

    <symbol id="logo-noc" viewBox="0 0 220 40">
        <path d="M10 5h7l15 20V5h8v30h-6L19 14v21h-9V5zm43 0h7l15 13L90 5h7v30h-8V16l-11 10h-6L61 16v19h-8V5zm52 0h18c6 0 10 3 10 8.5 0 4-2.5 7-6.5 8l8 13.5h-9l-7-12h-5v12h-8V5zm8 6v7h9c2 0 3-1 3-3.5s-1-3.5-3-3.5h-9z"/>
    </symbol>

    <symbol id="logo-l3" viewBox="0 0 100 45">
        <path d="M10 5h8v28h16v7H10V5zm36 23h12v7H46v-7zm18-23h26v7H74v8h10v7H74v11h14v7H64V5z"/>
    </symbol>

</svg>
