<?xml version="1.0" encoding="utf-8"?>
<svg xmlns="http://www.w3.org/2000/svg" style="display: none;">

  <symbol version="1.1" viewBox="0 0 4196 961" id="boeing">
    <path d="M0 0 C1384.68 0 2769.36 0 4196 0 C4196 77.55 4196 155.1 4196 235 C4195.34 235.33 4194.68 235.66 4194 236 C4193.690625 234.88625 4193.38125 233.7725 4193.0625 232.625 C4192.17673517 229.2054845 4192.17673517 229.2054845 4191 227 C4190.33333333 225.66666667 4189.66666667 224.33333333 4189 223 C4189.66 222.34 4190.32 221.68 4191 221 C4189.02 220.67 4187.04 220.34 4185 220 C4185.33 219.01 4185.66 218.02 4186 217 C4185.01 217.33 4184.02 217.66 4183 218 C4182.67 217.01 4182.34 216.02 4182 215 C4182.99 215 4183.98 215 4185 215 C4181.76207328 212.84138219 4179.21261629 211.23097453 4175.375 210.5 C4173 210 4173 210 4171 208 C4169.00882592 207.30741771 4167.0078864 206.64252365 4165 206 C4164.278125 205.62875 4163.55625 205.2575 4162.8125 204.875 C4160.88516673 203.78262547 4160.88516673 203.78262547 4158 204 C4157.505 203.01 4157.505 203.01 4157 202 C4156.34 202 4155.68 202 4155 202 C4155 202.66 4155 203.32 4155 204 C4051.05 204 3947.1 204 3840 204 C3840 203.34 3840 202.68 3840 202 C3839.34 202 3838.68 202 3838 202 C3837.67 202.66 3837.34 203.32 3837 204 C3835.13734868 204 3833.28629676 203.70831513 3831.4375 203.5 C3830.19806641 203.36078125 3830.19806641 203.36078125 3828.93359375 203.21875 C3828.29550781 203.1465625 3827.65742188 203.074375 3827 203 C3827 203.66 3827 204.32 3827 205 C3825.9275 204.979375 3824.855 204.95875 3823.75 204.9375 C3820.22191619 204.83459411 3820.22191619 204.83459411 3817.8125 205.625 C3815.32641484 206.13936245 3814.11521237 205.28423608 3812 204 C3811.01 204.66 3810.02 205.32 3809 206 C3809 206.66 3809 207.32 3809 208 C3807.66961551 208.3449145 3806.33542939 208.67516582 3805 209 C3804.154375 209.20625 3803.30875 209.4125 3802.4375 209.625 C3800 210 3800 210 3797 209 C3797 209.66 3797 210.32 3797 211 C3795.2984375 211.185625 3795.2984375 211.185625 3793.5625 211.375 C3792.386875 211.58125 3791.21125 211.7875 3790 212 C3789.67 212.66 3789.34 213.32 3789 214 C3786.75 214.8515625 3786.75 214.8515625 3784 215.625 C3783.0925 215.88539063 3782.185 216.14578125 3781.25 216.4140625 C3779 217 3779 217 3778 217 C3777.67 217.66 3777.34 218.32 3777 219 C3775.35 219 3773.7 219 3772 219 C3772.33 219.33 3772.66 219.66 3773 220 C3772.01 220.66 3771.02 221.32 3770 222 C3769.67 222.33 3769.34 222.66 3769 223 C3768.01 223.33 3767.02 223.66 3766 224 C3765.34 223.01 3764.68 222.02 3764 221 C3763.67 222.65 3763.34 224.3 3763 226 C3762.34 226 3761.68 226 3761 226 C3760.2575 226.763125 3759.515 227.52625 3758.75 228.3125 C3755.95731806 231.0417119 3753.54135257 232.42606552 3750 234 C3749.34 234.33 3748.68 234.66 3748 235 C3748 235.66 3748 236.32 3748 237 C3747.071875 237.433125 3747.071875 237.433125 3746.125 237.875 C3743.86674235 238.93720042 3743.86674235 238.93720042 3742 241 C3740.453125 241.99 3740.453125 241.99 3738.875 243 C3737.451875 243.99 3737.451875 243.99 3736 245 C3736 245.66 3736 246.32 3736 247 C3735.34 247 3734.68 247 3734 247 C3734 247.66 3734 248.32 3734 249 C3733.34 249 3732.68 249 3732 249 C3731.67 249.99 3731.34 250.98 3731 252 C3729.02 251.67 3727.04 251.34 3725 251 C3725.226875 251.928125 3725.45375 252.85625 3725.6875 253.8125 C3726 257 3726 257 3724.8125 258.625 C3724.214375 259.07875 3723.61625 259.5325 3723 260 C3722.278125 260.721875 3721.55625 261.44375 3720.8125 262.1875 C3719.9153125 263.0846875 3719.9153125 263.0846875 3719 264 M2791 212 C2791.33 212.66 2791.66 213.32 2792 214 C2792.33 213.34 2792.66 212.68 2793 212 Z M3197 213 C3198 215 3198 215 3198 215 Z M3654 213 C3654 214.32 3654 215.64 3654 217 C3654.66 216.67 3655.32 216.34 3656 216 C3655.34 215.01 3654.68 214.02 3654 213 Z" />
  </symbol>

  <symbol version="1.1" viewBox="0 0 1141 1000" id="gd">
    <path d="M776 89 C746.1 89 697.8 78.1 670.7 103 C660.9 113.4 655.9 125.6 655.6 139.8 C654.8 140.6 654 141.4 653.2 142.2 C637.6 157.8 622 173.4 606.4 189 C622 204.6 637.6 220.2 653.2 235.8 C654 236.6 654.8 237.4 655.6 238.2 C655.9 252.4 660.9 264.6 670.7 275 C697.8 299.9 746.1 289 776 289 C805.9 289 854.1 299.9 881.3 275 C891.1 264.6 896.1 252.4 896.4 238.2 C897.2 237.4 898 236.6 898.8 235.8 C914.4 220.2 930 204.6 945.6 189 C930 173.4 914.4 157.8 898.8 142.2 C898 141.4 897.2 140.6 896.4 139.8 C896.1 125.6 891.1 113.4 881.3 103 C854.1 78.1 805.9 89 776 89 Z" />
  </symbol>

  <symbol version="1.1" viewBox="0 0 3557 552" id="l3">
    </symbol>

  <symbol version="1.1" viewBox="0 0 3381 771" id="lmt">
    </symbol>

  <symbol version="1.1" viewBox="0 0 4118 438" id="noc">
    </symbol>

  <symbol version="1.1" viewBox="0 0 1969 467" id="rtx">
    </symbol>

  <symbol version="1.1" viewBox="0 0 3200 391" id="spacex">
    </symbol>

  <symbol version="1.1" viewBox="0 0 2000 500" id="otkritie">
    </symbol>

</svg>
