<svg width="0" height="0" class="hidden" style="display: none;">
  <symbol id="spacex" viewBox="0 0 331.644 40.825">
    <g fill="currentColor">
      <path d="M77.292,15.094H49.249l-1.039,0.777v24.947h7.763v-9.355l0.741-0.664h20.579   c5.196,0,7.632-1.398,7.632-4.985v-5.728C84.924,16.493,82.489,15.094,77.292,15.094 M77.292,24.317   c0,1.69-1.118,2.041-3.554,2.041H56.799l-0.827-0.804V20.21l0.741-0.678h17.025c2.436,0,3.554,0.347,3.554,2.045V24.317z"></path>
      <polyline points="99.081,19.813 105.761,29.6 105.391,30.548 90.618,30.548 86.847,35.187 108.837,35.187 110.361,36.115 113.775,40.824 122.659,40.824 103.186,14.775"></polyline>
      <polyline points="187.418,35.757 187.418,28.833 188.217,28.143 203.079,28.143 203.079,23.734 179.524,23.734 179.524,40.823 214.27,40.823 214.27,36.435 188.252,36.435"></polyline>
      <rect x="179.524" y="15.094" width="35.113" height="4.848"></rect>
      <path d="M140.361,19.685h28.288c-0.436-3.597-2.668-4.595-8.33-4.595H140.06c-6.389,0-8.427,1.247-8.427,6.082   v13.565c0,4.84,2.038,6.087,8.427,6.087h20.259c5.745,0,7.945-1.079,8.095-4.81h-28.053l-0.832-0.783V20.209"></path>
      <path d="M29.333,25.118H8.754l-0.606-0.667v-4.402l0.603-0.466h27.742l0.379-0.927   c-0.945-2.431-3.392-3.565-7.936-3.565H9.665c-6.385,0-8.426,1.247-8.426,6.082v2.844c0,4.841,2.041,6.086,8.426,6.086h20.533   l0.645,0.566v4.602l-0.526,0.718H6.83v-0.022H0.678c0,0-0.704,0.353-0.677,0.518c0.525,3.382,2.829,4.34,8.345,4.34h20.987   c6.384,0,8.486-1.247,8.486-6.087v-3.543C37.819,26.363,35.717,25.118,29.333,25.118"></path>
      <path d="M236.725,14.988h-11.551l-0.627,1.193l12.828,9.351c2.43-1.407,5.074-2.833,7.95-4.24"></path>
      <path d="M247.075,32.603l11.275,8.222h11.692l0.484-1.089L253.69,27.413   C251.454,29.054,249.245,30.787,247.075,32.603"></path>
      <path d="M235.006,40.806h-10.451l-0.883-1.383C230.778,32.562,262.56,3.151,331.644,0   C331.644,0,273.658,1.956,235.006,40.806"></path>
    </g>
  </symbol>

  <symbol id="boeing" viewBox="0 0 172 40" fill="currentColor">
    <path d="M27,24.16a13.54,13.54,0,0,0-4.79-17c2.17-2.23,4.52-4.44,7-6.55A61,61,0,0,0,21,6.46,13.54,13.54,0,0,0,4.47,27.29c-2.59,5.61-3,10.11-.76,11.63,2.45,1.63,7.77-1.33,11-6.14,0,0-4.94,4.45-7.65,3.43-1.67-.63-1.67-3.19-.3-6.85a13.54,13.54,0,0,0,17.52-1.28l.48.9c5.9-.48,23.51-.95,23.51-.95C48.23,27.2,36.57,28,27,24.16ZM2.82,18.45A11.92,11.92,0,0,1,19.67,7.61,64.92,64.92,0,0,0,5.26,25.68,11.86,11.86,0,0,1,2.82,18.45ZM14.73,30.36a11.86,11.86,0,0,1-7.37-2.55c2.36-5.32,7.16-12.46,13.71-19.44a11.91,11.91,0,0,1,4.43,15.15,21.76,21.76,0,0,1-5.66-3.69l3.59,6.74A11.87,11.87,0,0,1,14.73,30.36Z"></path>
    <polygon points="107.76 17.21 109.96 14.28 102.28 14.28 104.17 11.77 111.86 11.77 114.07 8.84 98.73 8.84 88.18 22.84 103.52 22.84 105.72 19.91 98.04 19.91 100.07 17.21 107.76 17.21 107.76 17.21"></polygon>
    <polygon points="118.41 8.84 107.86 22.84 115.52 22.84 126.06 8.84 118.41 8.84 118.41 8.84"></polygon>
    <polygon points="143.91 8.84 138.56 15.94 136.92 8.84 130.94 8.84 120.39 22.84 125.45 22.84 130.75 15.81 132.38 22.84 138.42 22.84 148.97 8.84 143.91 8.84 143.91 8.84"></polygon>
    <path d="M168.93,8.84h-12.3a6.43,6.43,0,0,0-5.15,2.57l-6.35,8.43a1.85,1.85,0,0,0-.38,1.13,1.88,1.88,0,0,0,1.87,1.88h12.3a6.44,6.44,0,0,0,5.16-2.57l1.53-2h1.78l2.22-3h-9.42l-3,3.95a1.67,1.67,0,0,1-1.34.67h-2.17a.49.49,0,0,1-.49-.49.46.46,0,0,1,.1-.29l5-6.7a1.66,1.66,0,0,1,1.34-.67h2.17a.49.49,0,0,1,.49.49.51.51,0,0,1-.1.29l-.82,1.09h7.64l1.35-1.8a1.87,1.87,0,0,0-1.5-3Z"></path>
    <path d="M92.45,10.72a1.87,1.87,0,0,0-1.87-1.87H78.28a6.44,6.44,0,0,0-5.16,2.57l-6.35,8.43a1.88,1.88,0,0,0,1.5,3h12.3a6.44,6.44,0,0,0,5.16-2.57l6.35-8.43a1.86,1.86,0,0,0,.37-1.13ZM83.9,12.55l-5,6.69a1.66,1.66,0,0,1-1.34.67H75.35a.49.49,0,0,1-.39-.78l5-6.7a1.69,1.69,0,0,1,1.34-.67h2.17a.49.49,0,0,1,.49.49.51.51,0,0,1-.1.29Z"></path>
    <path d="M63.52,16.18a6.43,6.43,0,0,0,3.72-2.41l1.46-1.93a1.87,1.87,0,0,0-1.5-3H51.68l-10.55,14H57.19a6.44,6.44,0,0,0,5.16-2.57l1.49-2a1.47,1.47,0,0,0,.3-.9,1.51,1.51,0,0,0-.61-1.21ZM56.42,18l-.95,1.26a1.67,1.67,0,0,1-1.34.67H51l2-2.7h3a.49.49,0,0,1,.49.49.47.47,0,0,1-.1.29Zm4.1-5.44-.81,1.07a1.68,1.68,0,0,1-1.34.66H55.24l1.89-2.51h3a.49.49,0,0,1,.49.49.51.51,0,0,1-.1.29Z"></path>
  </symbol>

  <symbol id="gd" viewBox="0 0 534 40">
    <g fill="currentColor">
      <path d="M7.71,20.146c0,5.732,1.158,12.592,10.004,12.592 c6.939,0,21.637,0,21.637,0V17.383H22.407v6.35h10.41v2.965c0,0-10.717,0-13.678,0c-5.135,0-4.387-4.982-4.387-6.447 c0-3.65,0.68-5.631,4.082-5.631h20.516V8.018H18.937C10.876,8.018,7.71,12.777,7.71,20.146L7.71,20.146z"></path>
      <polygon points="45.497,32.738 73.052,32.738 73.052,26.697 52.386,26.697 52.386,23.732 73.052,23.732 73.052,17.742 52.386,17.742 52.386,15.131 73.052,15.131 73.052,8.018 45.497,8.018 45.497,32.738"></polygon>
      <polygon points="102.464,26.236 88.585,8.018 79.194,8.018 79.194,32.738 85.624,32.738 85.624,14.516 99.503,32.738 108.894,32.738 108.894,8.018 102.464,8.018 102.464,26.236"></polygon>
      <polygon points="115.858,32.738 143.413,32.738 143.413,26.697 122.747,26.697 122.747,23.732 143.413,23.732 143.413,17.742 122.747,17.742 122.747,15.131 143.413,15.131 143.413,8.018 115.858,8.018 115.858,32.738"></polygon>
      <path d="M180.382,16.82c0-3.43-0.068-8.803-8.266-8.803H149.56v24.721 h6.635v-7.217h10.307l5.768,7.217h8.572l-6.174-7.934C179.19,24.133,180.382,20.92,180.382,16.82L180.382,16.82z M170.226,19.471 H156.19v-4.658h14.137c1.889,0,3.215,0.562,3.215,2.1C173.542,18.447,173.235,19.471,170.226,19.471L170.226,19.471z"></path>
      <polygon points="227.712,8.018 220.825,8.018 220.825,32.738 245.624,32.738 245.624,26.697 227.712,26.697 227.712,8.018"></polygon>
      <path d="M195.401,8.018l-13.879,24.721h7.553l2.723-4.863h16.156 l2.705,4.863h7.553L204.331,8.018H195.401L195.401,8.018z M195.208,21.775l4.658-8.316l4.67,8.316H195.208L195.208,21.775z"></path>
      <path d="M286.862,8.018h-20.41v6.602v18.119c0,0,14.697,0,21.637,0 c8.301,0,10-5.223,10-12.592S294.925,8.018,286.862,8.018L286.862,8.018z M286.657,26.697c-2.961,0-13.676,0-13.676,0V14.619 h13.982c3.811,0,4.082,2.391,4.082,5.631C291.046,23.217,291.114,26.697,286.657,26.697L286.657,26.697z"></path>
      <polygon points="357.507,26.236 343.628,8.018 334.237,8.018 334.237,32.738 340.669,32.738 340.669,14.516 354.548,32.738 363.938,32.738 363.938,8.018 357.507,8.018 357.507,26.236"></polygon>
      <path d="M380.806,8.018l-13.881,24.721h7.553l2.723-4.863h16.158 l2.703,4.863h7.553L389.733,8.018H380.806L380.806,8.018z M380.61,21.775l4.658-8.316l4.67,8.316H380.61L380.61,21.775z"></path>
      <polygon points="314.866,18.662 306.054,8.018 297.071,8.018  311.259,24.193 311.259,32.738 318.302,32.738 318.302,24.193 332.487,8.018 323.505,8.018 314.866,18.662"></polygon>
      <polygon points="424.942,25.238 416.778,8.018 406.165,8.018 406.165,32.738 412.595,32.738 412.595,13.877 421.983,32.738 427.903,32.738 437.294,13.877 437.294,32.738 443.72,32.738 443.72,8.018 433.108,8.018 424.942,25.238"></polygon>
      <polygon points="451.157,8.018 451.157,32.738 458.099,32.738  458.048,8.018 451.157,8.018"></polygon>
      <path d="M462.94,20.146c0,7.369,1.699,12.592,10.004,12.592 c6.939,0,19.49,0,19.49,0v-6.014c0,0-15.105-0.027-18.064-0.027c-4.455,0-4.387-3.48-4.387-6.447c0-3.242,0.271-5.631,4.08-5.631 h18.371V8.018h-18.268C466.104,8.018,462.94,12.777,462.94,20.146L462.94,20.146z"></path>
      <path d="M519.749,17.691h-14.902c-1.07,0-2.271-0.307-2.271-1.484 s1.201-1.484,2.271-1.484c2.961,0,21.381-0.025,21.381-0.025V8.684c0,0-16.072,0-23.016,0c-5.865,0-7.293,3.02-7.293,7.523 s1.428,7.525,7.293,7.525h14.902c1.074,0,2.271,0.303,2.271,1.484c0,1.178-1.197,1.48-2.271,1.48 c-2.957,0-21.381,0.027-21.381,0.027v6.014c0,0,16.076,0,23.016,0c5.867,0,7.295-3.021,7.295-7.521 C527.044,20.711,525.616,17.691,519.749,17.691L519.749,17.691z"></path>
    </g>
  </symbol>

  <symbol id="l3" viewBox="0 0 168.2 36">
    <g fill="currentColor">
      <path d="M23.4,36H12.6c-0.1,0-0.2,0-0.3-0.1l-8.7-6.5c-0.1-0.1-0.2-0.2-0.2-0.3L0,18.6c0-0.1,0-0.2,0-0.3L3.4,6.9 c0-0.1,0.1-0.2,0.2-0.3l8.9-6.5C12.6,0,12.7,0,12.8,0h10.4c0.1,0,0.2,0,0.3,0.1l8.9,6.5c0.1,0.1,0.2,0.2,0.2,0.3L36,18.2 c0,0.1,0,0.2,0,0.3l-3.3,10.6c0,0.1-0.1,0.2-0.2,0.3l-8.7,6.5C23.6,36,23.5,36,23.4,36 M13.1,34.9H22c-3.5-3.4-7-6.4-10.6-9.1 C11.7,28.7,12.3,31.8,13.1,34.9 M11.8,24.7c3.9,2.8,7.5,6,11.3,9.6c0.9-4.8,1.4-9.4,1.6-13.8C19.9,21.5,15.4,23,11.8,24.7 M25.7,21 c-0.2,4.2-0.7,8.6-1.5,13.1l7.2-5.3C29.8,25.6,27.9,23,25.7,21 M4.8,28.9l6.9,5.1c-0.7-2.9-1.2-5.8-1.5-8.6 C8.1,26.5,6.3,27.7,4.8,28.9 M1.5,19.6L4.2,28c1.5-1.2,3.3-2.4,5.4-3.5C6.9,22.7,4.3,21,1.5,19.6 M26.4,20.1c2.1,2,4,4.4,5.5,7.4 l2.7-8.4C32,19.2,29.2,19.6,26.4,20.1 M11,12.8c-0.3,3.5-0.3,7.2,0.1,10.9c3.7-1.7,8.1-3.2,12.8-4.2c-2.8-2.1-5.7-3.4-8.7-4.8 C13.8,14.1,12.4,13.5,11,12.8 M1.5,18.3c2.9,1.5,5.7,3.2,8.4,5.1c-0.3-3.6-0.3-7.2-0.1-10.6C6.6,14.3,3.8,16.2,1.5,18.3 M25.3,9.1 c0.4,3.2,0.5,6.6,0.5,9.9c2.9-0.6,5.8-1,8.5-1.2C31.6,14.6,28.7,11.8,25.3,9.1 M11.9,11.9c1.2,0.6,2.4,1.1,3.8,1.7 c3,1.3,6,2.7,9,4.9c0-3.4-0.1-6.8-0.6-10.1C19.6,9.3,15.5,10.4,11.9,11.9 M4.2,8.1l-2.5,8.5c2.1-1.8,4.7-3.4,7.6-4.8 C7.3,10.7,5.7,9.5,4.2,8.1 M26,8.2c3,2.3,5.7,4.9,8.1,7.7l-2.4-8.3C29.8,7.8,27.9,8,26,8.2 M13.1,1.4c-0.9,3.1-1.6,6.3-2,9.6 c3.6-1.5,7.6-2.7,12-3.4C20.4,5.5,17.2,3.6,13.1,1.4 M4.8,7.1C6.3,8.6,8,9.8,10,11c0.3-3,0.9-6,1.7-8.9L4.8,7.1z M24.1,1.9 c0.4,1.7,0.7,3.5,1,5.3c1.8-0.3,3.6-0.5,5.4-0.6L24.1,1.9z M15,1.1c3.4,1.9,6.3,3.7,8.8,5.5c-0.3-1.8-0.6-3.7-1.1-5.5 C22.7,1.1,15,1.1,15,1.1z"></path>
      <path d="M93.4,9.1l-6.4,17.7h3.6l1.1-3.1h6.3l1,3.1h3.6L96.1,9.1H93.4z M92.6,20.8l2.2-6.4l2.2,6.4H92.6z M118.2,14.6 c0-3-2.1-5.4-5.7-5.4h-6.9v17.7h3.5v-7.1h2.5l3.5,7.1h4l-4-7.6C116.7,18.6,118.2,17.1,118.2,14.6z M112.2,16.9h-3.3v-4.7h3.3 c1.5,0,2.5,1,2.5,2.3C114.7,15.9,113.7,16.9,112.2,16.9z M134.8,14.6c0-3-2.1-5.4-5.7-5.4h-6.9v17.7h3.5v-7.1h2.5l3.5,7.1h4l-4-7.6 C133.3,18.6,134.8,17.1,134.8,14.6z M128.9,16.9h-3.3v-4.7h3.3c1.5,0,2.5,1,2.5,2.3C131.4,15.9,130.4,16.9,128.9,16.9z M138.8,9.1 h3.5v17.7h-3.5V9.1z M157,17.9c0.9,0.9,1.4,2.2,1.4,3.8c0,3.4-2.9,5.4-6.6,5.4c-2.7,0-4.7-0.6-6.5-2.3l2.2-2.2 c1.1,1.1,2.6,1.5,4.3,1.5c2,0,3.1-0.8,3.1-2.2c0-0.6-0.2-1.1-0.5-1.5c-0.3-0.3-0.7-0.5-1.6-0.6l-2.1-0.3c-1.5-0.2-2.6-0.7-3.4-1.5 c-0.8-0.8-1.3-2-1.3-3.5c0-3.2,2.3-5.4,6.2-5.4c2.4,0,4.2,0.6,5.7,2.1l-2.2,2.2c-1.1-1.1-2.5-1.2-3.6-1.2c-1.8,0-2.7,1-2.7,2.2 c0,0.4,0.1,0.9,0.5,1.3c0.3,0.3,0.9,0.6,1.6,0.7l2.1,0.3C155.2,16.7,156.3,17.2,157,17.9z M67.4,21.7c0,3.5-2.6,5.3-5.6,5.3 c-2.5,0-4.9-1.2-5.5-3.9l3.1-1.3c0,1.6,1.1,2.3,2.4,2.3c1.4,0,2.4-0.9,2.4-2.5c0-1.5-0.9-2.4-2.5-2.4h-0.1v-2.8h0.1 c1.6,0,2.2-1,2.2-2.2c0-1.5-1-2.3-2.2-2.3c-1.2,0-2.1,0.8-2.2,2.1l-3.1-1.3c0.6-2.4,2.7-3.8,5.2-3.8c3.1,0,5.4,2.1,5.4,5.1 c0,1.9-0.9,3-2,3.6C66.4,18.4,67.4,19.6,67.4,21.7z M80.5,9.1H84v17.7h-3.5v-7.4h-6v7.4h-3.5V9.1h3.5v7.2h6V9.1z M48.5,23.8h5.6 v3.1h-9V9.1h3.5C48.5,9.1,48.5,23.8,48.5,23.8z M161.1,9.6h2.9v0.6h-1.1v3.5h-0.6v-3.5h-1.1L161.1,9.6L161.1,9.6z M168.2,9.6v4.1 h-0.6V11l-0.9,1.9h-0.5l0,0l-0.9-1.9v2.7h-0.6V9.6h0.6l0,0l1.2,2.5l1.1-2.5H168.2z"></path>
    </g>
  </symbol>

  <symbol id="lmt" viewBox="0 0 359.5 86.67">
    <g fill="currentColor">
      <polygon points="178.46 44.23 173.83 54.05 169.64 54.05 169.19 44.23 169.03 44.23 167 54.05 162.6 54.05 165.66 39.35 172.89 39.35 173 47.8 173.19 47.8 176.77 39.35 184.21 39.35 181.16 54.05 176.52 54.05 178.64 44.23 178.46 44.23"></polygon>
      <path d="M413.65,311.05l-.28-5.57h-.17l-2.7,5.57h3.15Zm-2.91-9h6.7l1,14.69h-4.8l-.07-2.6h-4.3l-1.17,2.6h-4.52Z" transform="translate(-216.25 -262.67)"></path>
      <polygon points="231.42 42.82 228.2 42.82 228.92 39.35 240.16 39.35 239.44 42.82 236.22 42.82 233.88 54.05 229.08 54.05 231.42 42.82"></polygon>
      <polygon points="259.32 39.35 265.83 39.35 267.26 48.13 267.4 48.13 269.23 39.35 273.79 39.35 270.74 54.05 264.23 54.05 263 45.06 262.84 45.06 260.97 54.05 256.26 54.05 259.32 39.35"></polygon>
      <path d="M432.8,308.14c1.36,0,1.94-.67,1.94-1.56,0-.73-.42-1.09-1.4-1.09h-1.21l-.55,2.65ZM428,302h7.09c3.46,0,4.68,1.92,4.68,3.75a3.84,3.84,0,0,1-3.48,3.79v.2a2.22,2.22,0,0,1,2,2.41c0,1-.21,2-.21,3.23a9.11,9.11,0,0,0,.13,1.31h-5.14a7.93,7.93,0,0,1-.08-.85c0-1.23.34-2.09.34-3.44a1.08,1.08,0,0,0-1.22-1.21h-1.24l-1.14,5.5H425Z" transform="translate(-216.25 -262.67)"></path>
      <polygon points="246.25 39.35 251.05 39.35 248 54.05 243.19 54.05 246.25 39.35"></polygon>
      <polygon points="3.06 39.35 7.86 39.35 5.53 50.58 10.23 50.58 9.54 54.05 0 54.05 3.06 39.35"></polygon>
      <polygon points="58.64 39.35 63.44 39.35 62.13 45.67 62.25 45.67 66.5 39.35 71.62 39.35 66.31 46.29 68.97 54.05 63.85 54.05 61.86 47.52 61.74 47.52 60.39 54.05 55.58 54.05 58.64 39.35"></polygon>
      <polygon points="83.55 48.54 80.69 48.54 79.54 54.05 74.73 54.05 77.79 39.35 82.6 39.35 81.45 44.87 84.32 44.87 85.46 39.35 90.27 39.35 87.21 54.05 82.4 54.05 83.55 48.54"></polygon>
      <polygon points="117.33 39.35 127.43 39.35 126.7 42.82 121.41 42.82 120.96 44.99 125.76 44.99 125.03 48.45 120.24 48.45 119.8 50.58 125.33 50.58 124.61 54.05 114.27 54.05 117.33 39.35"></polygon>
      <polygon points="98.92 39.35 109.02 39.35 108.3 42.82 103 42.82 102.55 44.99 107.35 44.99 106.62 48.45 101.83 48.45 101.39 50.58 106.92 50.58 106.2 54.05 95.86 54.05 98.92 39.35"></polygon>
      <path d="M238.84,313.25c2.11,0,3-5.25,3-6.46a1.15,1.15,0,0,0-1.25-1.29c-2.17,0-3,5.34-3,6.45a1.15,1.15,0,0,0,1.25,1.3m2.28-11.43c3.57,0,5.5,2,5.5,5.19,0,3.86-2,9.91-8.29,9.91-3.48,0-5.51-1.92-5.51-5.16,0-4.27,2.21-9.94,8.3-9.94" transform="translate(-216.25 -262.67)"></path>
      <path d="M355.29,313.25h1.4c1.95,0,3.3-2.57,3.3-5.74,0-1.15-.51-2-2.23-2h-.86ZM352.83,302h5.44c4.64,0,6.56,2.6,6.56,5.47,0,5.46-3.44,9.22-9.2,9.22h-5.86Z" transform="translate(-216.25 -262.67)"></path>
      <path d="M265,311.21a6.76,6.76,0,0,1-7.08,5.71c-3.55,0-5.5-2-5.5-5.17,0-3.7,1.89-9.93,8.3-9.93,2.94,0,5.29,1.09,5.21,4.22a13.55,13.55,0,0,1-.14,1.49h-4.47a6.3,6.3,0,0,0,.09-.92,1.06,1.06,0,0,0-1.17-1.11c-2.2,0-3,5.28-3,6.46a1.14,1.14,0,0,0,1.22,1.29c.74,0,1.42-.57,2-2Z" transform="translate(-216.25 -262.67)"></path>
      <path d="M505.3,312.32h0" transform="translate(-216.25 -262.67)"></path>
      <path d="M575.75,292.46H543.12c4.28-16.12,8.15-29.79,8.15-29.79s-14.69,15.71-27.74,29.79l-129.35.27h0l126.15,3.18c-9.71,10.32-14.82,16.2-15,16.41l.05-.05c.42-.37,17.88-16.29,17.88-16.29l15.35.39-2.31,12.11-71.93,40.69-.29.16s57.12-30,71.54-37.3c0,0-5.06,26.42-5.06,26.53a.2.2,0,0,0,0-.05v.05l.06-.26c.47-1.72,3.5-12.11,7.63-27.48,18.77-9.58,37.53-18.36,37.53-18.36M541.91,279l-2.58,13.49H527.1Zm.08,17.48,14.87.38-17.66,10c1-3.55,1.82-6.79,2.79-10.37" transform="translate(-216.25 -262.67)"></path>
    </g>
  </symbol>

  <symbol id="noc" viewBox="0 0 267.23 61.119">
    <path d="M32.905 56.014c-2.43-2.567-3.672-5.77-3.672-9.607 0-3.755 1.243-6.93 3.672-9.525q3.768-3.975 9.359-3.975c5.052 0 8.834 2.098 11.319 6.294l-5.246 2.9c-.082-.332-.358-.691-.745-1.133-1.408-1.573-3.23-2.319-5.383-2.319s-3.755.828-4.86 2.485c-.91 1.408-1.352 3.257-1.352 5.549 0 2.319.552 4.113 1.629 5.494 1.187 1.435 2.926 2.153 5.163 2.153 1.325 0 2.512-.414 3.616-1.242 1.187-.884 1.85-1.933 1.933-3.203h-5.743V44.64h12.59v1.38c0 4.252-1.05 7.592-3.175 10.021-2.237 2.54-5.44 3.81-9.663 3.81-3.837 0-6.984-1.27-9.441-3.837m52.728 1.64c-2.236-1.684-3.368-3.975-3.368-6.846V33.83h6.543v15.598c0 3.009 1.49 4.527 4.527 4.527 1.325 0 2.485-.359 3.286-1.077.8-.773 1.242-1.822 1.242-3.12V33.83h6.515v16.26c0 3.174-1.05 5.66-3.258 7.398-1.987 1.574-4.638 2.347-7.923 2.347-3.009 0-5.549-.718-7.564-2.181m107.056-8.42-2.65-7.675-2.678 7.675zm-6.322-15.405h7.51l9.275 25.095h-7.067l-1.684-4.638h-8.697l-1.656 4.638h-6.984zm20.432.006h6.543l11.567 14.88v-14.88h6.515V58.93h-6.543l-11.54-14.963V58.93H206.8zM1.323 2.192h6.543l11.733 14.88V2.192h6.543v25.095h-6.737L7.865 12.324v14.963H1.323zm46.959 17.792c1.353-1.353 2.043-3.175 2.043-5.383 0-2.016-.69-3.7-2.07-5.08s-3.12-2.098-5.19-2.098c-2.099 0-3.783.745-5.163 2.098-1.353 1.38-2.016 3.147-2.016 5.273 0 2.18.635 3.865 1.988 5.245 1.325 1.353 3.037 2.043 5.19 2.043 2.098 0 3.865-.69 5.218-2.098m-15.129 4.39c-2.623-2.568-3.893-5.743-3.893-9.663s1.325-7.178 4.059-9.745c2.65-2.457 5.88-3.7 9.772-3.7 3.92 0 7.233 1.298 9.856 3.838 2.678 2.54 3.975 5.687 3.975 9.386 0 3.976-1.325 7.288-4.03 9.884-2.65 2.567-5.936 3.837-9.828 3.837-4.03 0-7.344-1.27-9.911-3.837m35.862-10.88c2.264 0 3.368-1.05 3.368-3.147 0-2.07-1.077-3.147-3.313-3.147h-2.043v6.294zm-8.53-11.291h9.993c2.512 0 4.5.69 6.101 2.015 1.63 1.436 2.485 3.368 2.485 5.825q0 5.218-4.307 6.874l6.709 10.353h-7.84l-5.274-8.834h-1.325v8.834h-6.542zm27.109 6.534h-5.3V2.195h17.143v6.542h-5.3V27.29h-6.543zm15.986-6.545h6.543v8.862h9.165V2.192h6.57v25.095h-6.57v-9.69h-9.165v9.69h-6.543zm35.67 11.302c2.264 0 3.368-1.05 3.368-3.147 0-2.07-1.077-3.147-3.313-3.147h-2.043v6.294zm-8.53-11.291h9.993c2.512 0 4.5.69 6.101 2.015 1.63 1.436 2.485 3.368 2.485 5.825q0 5.218-4.307 6.874l6.709 10.353h-7.84l-5.274-8.834h-1.325v8.834h-6.542zm40.96 17.781c1.353-1.353 2.015-3.175 2.015-5.383 0-2.016-.662-3.7-2.043-5.08-1.38-1.38-3.12-2.098-5.19-2.098-2.098 0-3.81.745-5.162 2.098-1.353 1.38-2.016 3.147-2.016 5.273 0 2.18.635 3.865 1.988 5.245 1.325 1.353 3.037 2.043 5.19 2.043 2.098 0 3.865-.69 5.218-2.098m-15.129 4.39c-2.623-2.568-3.893-5.743-3.893-9.663s1.326-7.178 4.059-9.745c2.65-2.457 5.88-3.7 9.772-3.7 3.92 0 7.206 1.298 9.856 3.838 2.678 2.54 3.975 5.687 3.975 9.386 0 3.976-1.325 7.288-4.03 9.884-2.65 2.567-5.936 3.837-9.828 3.837-4.03 0-7.344-1.27-9.911-3.837m36.589-10.651c2.595 0 3.837-1.077 3.837-3.368 0-2.18-1.214-3.23-3.782-3.23h-2.236v6.598zm-8.724-11.54h11.181c2.457 0 4.417.8 5.825 2.457 1.408 1.49 2.098 3.506 2.098 5.963 0 2.374-.69 4.28-2.098 5.715-1.408 1.463-3.257 2.236-5.604 2.236h-4.859v8.724h-6.543zm22.384.009v6.543h52.563v50.189h6.543V2.192zm-82.93 44.613 8.282-12.948h6.543v25.067h-6.515V44.21h-.028l-6.515 10.242h-3.479l-6.542-10.242v14.714h-6.57V33.857h6.57zm35.03 0 8.282-12.948h6.543v25.067h-6.515V44.21h-.028l-6.515 10.242h-3.479l-6.542-10.242h-.028v14.714h-6.543V33.857h6.57zm-91.293-1.668c2.264 0 3.368-1.05 3.368-3.147 0-2.07-1.077-3.147-3.313-3.147H65.62v6.294zm-8.53-11.291h9.993c2.512 0 4.5.69 6.101 2.015 1.657 1.436 2.485 3.368 2.485 5.825q0 5.218-4.307 6.874l6.709 10.353h-7.84l-5.274-8.834H65.62v8.834h-6.542z" fill="currentColor"></path>
  </symbol>

  <symbol id="otkritie" viewBox="0 0 249 44">
    <g fill="none" fill-rule="nonzero">
      <path fill="currentColor" d="M204.7.4h1v43.3h-1z"></path>
      <g fill="currentColor">
        <path d="M219 17h3c1.9 0 3.2.6 3.2 2.6v.1c0 .9-.4 1.7-1.5 2.1 1.5.4 2 1.1 2 2.4v.1c0 1.9-1.3 2.8-3.3 2.8H219V17zm3 4.4c1.5 0 2-.5 2-1.8v-.1c0-1.1-.7-1.6-2.1-1.6h-1.8v3.4h1.9v.1zm.4 4.7c1.5 0 2.1-.6 2.1-1.9v-.1c0-1.2-.7-1.8-2.3-1.8h-2V26h2.2v.1zM226.8 25c0-1.7 1.8-2.3 3.7-2.3h1.1v-.5c0-1.2-.4-1.7-1.6-1.7-1 0-1.6.4-1.7 1.3h-1.2c.2-1.7 1.5-2.3 2.9-2.3s2.7.6 2.7 2.6V27h-1.2v-.9c-.5.7-1.2 1-2.3 1-1.3.1-2.4-.6-2.4-2.1zm4.7-.5v-.9h-1c-1.5 0-2.5.4-2.5 1.4 0 .8.4 1.2 1.4 1.2 1.2 0 2.1-.6 2.1-1.7zM234.5 19.7h1.2v1.2c.3-.7 1.1-1.3 2.4-1.3 1.5 0 2.6.8 2.6 3V27h-1.2v-4.6c0-1.3-.5-1.9-1.7-1.9-1.1 0-2 .7-2 2V27h-1.2v-7.3h-.1zM242.5 16.2h1.2v6.9l3-3.4h1.4l-3.1 3.4 3.4 3.9H247l-3.2-3.8V27h-1.2V16.2z"></path>
      </g>
      <path fill="currentColor" d="M26.7 36.3l-1.5-4.8c4.1-1.3 6.8-5 6.8-9.4 0-4.3-2.7-8-6.7-9.4L26.9 8c6 2 10.1 7.7 10.1 14.1 0 6.6-4.1 12.2-10.3 14.2zm-7.5-4.9l-1.6 4.7c-6-2-10-7.7-10-14C7.6 15.7 11.7 10 17.7 8l1.6 4.7c-4 1.3-6.7 5.1-6.7 9.4 0 4.2 2.7 8 6.6 9.3zM22.3.5C10.3.5.6 10.2.6 22.2s9.7 21.7 21.7 21.7S44 34.2 44 22.2 34.3.5 22.3.5z"></path>
      <g fill="currentColor">
        <path d="M183.4 12.2c-5.9 0-9.9 4.3-9.9 10.3 0 3.9 1.6 7.1 4.8 8.7 1.5.7 3.2 1.1 5.6 1.1 2.5 0 5.6-.7 8.1-3.3l-2.4-2.9c-1.7 1.7-3.6 2.3-5.4 2.3-1.7 0-3-.3-4.1-1-1.3-.8-2.2-2.3-2.3-3.9h15c.3-6.4-2.9-11.3-9.4-11.3zm-5.7 7.8c.4-2.1 2.2-4.3 5.4-4.3 3.1 0 5 2 5.2 4.3h-10.6zM76 16.5h6.5v15.3h4.2V16.5h6.5v-3.9H76zM114 12.6h-5.4l-6.4 7.5h-1.6v-7.5h-4.2v19.2h4.2v-7.6h1.7l6.4 7.6h5.4l-8.5-9.9zM65 12.2c-5.8 0-10.3 4.3-10.3 10S59.1 32.3 65 32.3c5.8 0 10.3-4.3 10.3-10.1s-4.5-10-10.3-10zm0 16.2c-3.5 0-6-2.6-6-6.2s2.6-6.2 6-6.2 6 2.6 6 6.2-2.6 6.2-6 6.2zM165.7 12.6h4.2v19.1h-4.2zM145.3 16.5h6.5v15.3h4.1V16.5h6.5v-3.9h-17.1zM137.9 12.6h4.2v19.1h-4.2zM133.5 19.2c0-4.3-3.5-6.6-7.8-6.6h-8.8v19.1h4.1V26h2.5l4.9 5.8h5.2l-5.4-6.1c3.1-.8 5.3-3 5.3-6.5zm-12.4-3h4.5c2.2 0 3.8.9 3.8 3.1s-1.6 3.2-3.8 3.2h-4.5v-6.3z"></path>
      </g>
    </g>
  </symbol>

  <symbol id="rtx" viewBox="0 0 185.9 71.8">
    <g fill="currentColor">
      <path d="M28.1,0.8c0.8-0.2,1.6-0.3,2.4-0.4l3.7,21.2c-0.8,0.1-1.6,0.2-2.4,0.4L28.1,0.8z M27.2,24.2c0.8-0.6,1.6-1,2.5-1.4L19,4.1 c-0.8,0.5-1.7,0.9-2.5,1.4L27.2,24.2z M21.1,35.9c0-0.8,0.1-1.6,0.2-2.3H0.1C0,34.3,0,35,0,35.8c0,0.7,0,1.4,0.1,2.1h21.2 C21.2,37.2,21.1,36.6,21.1,35.9 M49.9,35.9c0,8-6.4,14.4-14.4,14.4c-7.1,0-13-5.2-14.2-12l-20,7.3c0.4,1.6,1,3.1,1.6,4.5l19.8-7.3 L6.6,56.6c1,1.4,2.2,2.8,3.4,4.1l15.1-12.8l-9.9,17.3c1.6,1.1,3.2,2.1,5,2.9l9.3-16.3l-3.2,18.5c2,0.5,4,0.9,6.1,1.1l3-17.3 l3,17.3c2.2-0.2,4.3-0.6,6.4-1.1l-2.8-16l8.1,14.1c2.2-1,4.3-2.2,6.3-3.7l-7.4-13l11.4,9.6c1.8-1.8,3.4-3.8,4.8-5.9l-10.2-8.6 l12.4,4.6c1.2-2.4,2-4.9,2.6-7.6l-10.9-4l11.6,0c0.1-1.3,0.2-2.7,0.2-4.1c0-1.6-0.1-3.2-0.3-4.7H49.1 C49.6,32.6,49.9,34.2,49.9,35.9 M21.5,32.6c0.3-1.3,0.8-2.5,1.4-3.6l-20-7.3c-0.5,1.2-0.9,2.4-1.3,3.6L21.5,32.6z M62.3,12.3 L46,26c0.4,0.4,0.8,0.9,1.1,1.3l16.3-13.7C63.1,13.2,62.7,12.7,62.3,12.3 M54.2,5.4c-0.6-0.4-1.2-0.7-1.7-1L41.8,22.9 c0.6,0.3,1.2,0.6,1.8,1L54.2,5.4z M25.8,25.3L9.4,11.5c-0.8,0.8-1.5,1.7-2.2,2.6l16.3,13.8C24.2,26.9,24.9,26.1,25.8,25.3 M37,21.6c0.7,0.1,1.4,0.2,2.1,0.4l3.7-21.2c-0.7-0.1-1.4-0.3-2.1-0.4L37,21.6z"></path>
      <path d="M87.6,54.3V17.5H101c4.5,0,8,1.1,10.6,3.3c2.5,2.2,3.8,5.3,3.8,9.2c0,2.1-0.5,4-1.5,5.7c-1,1.7-2.3,3.1-3.9,4.2l9,14.4 h-10.7l-6.4-11.8h-4.9v11.8H87.6z M99.6,24.6h-2.8v10.7h2.7c4.2,0,6.3-1.8,6.3-5.4C105.9,26.4,103.8,24.6,99.6,24.6z"></path>
      <path d="M127.5,54.3V25.4h-11.3v-7.9h32.4v7.9h-11.3v28.9H127.5z"></path>
      <path d="M148.8,54.3l12.8-19.1l-11.9-17.6h11.5l6.5,11.3l6.4-11.3h11.1l-12,18l12.7,18.7h-11.5l-7.4-12.5l-7,12.5H148.8z"></path>
    </g>
  </symbol>
</svg>
